<?xml version="1.0" encoding="utf-8" standalone="no"?>
<!DOCTYPE svg PUBLIC "-//W3C//DTD SVG 1.1//EN"
  "http://www.w3.org/Graphics/SVG/1.1/DTD/svg11.dtd">
<svg height="345.6pt" version="1.1" viewBox="0 0 460.8 345.6" width="460.8pt" xmlns="http://www.w3.org/2000/svg" xmlns:xlink="http://www.w3.org/1999/xlink">
 <metadata>
  <rdf:RDF xmlns:cc="http://creativecommons.org/ns#" xmlns:dc="http://purl.org/dc/elements/1.1/" xmlns:rdf="http://www.w3.org/1999/02/22-rdf-syntax-ns#">
   <cc:Work>
    <dc:type rdf:resource="http://purl.org/dc/dcmitype/StillImage"/>
    <dc:date>2021-11-27T16:44:03.883671</dc:date>
    <dc:format>image/svg+xml</dc:format>
    <dc:creator>
     <cc:Agent>
      <dc:title>Matplotlib v3.4.3, https://matplotlib.org/</dc:title>
     </cc:Agent>
    </dc:creator>
   </cc:Work>
  </rdf:RDF>
 </metadata>
 <defs>
  <style type="text/css">*{stroke-linecap:butt;stroke-linejoin:round;}</style>
 </defs>
 <g id="figure_1">
  <g id="patch_1">
   <path d="M 0 345.6 
L 460.8 345.6 
L 460.8 0 
L 0 0 
z
" style="fill:#ffffff;"/>
  </g>
  <g id="axes_1">
   <g id="patch_2">
    <path d="M 57.6 307.584 
L 414.72 307.584 
L 414.72 41.472 
L 57.6 41.472 
z
" style="fill:#ffffff;"/>
   </g>
   <g id="matplotlib.axis_1">
    <g id="xtick_1">
     <g id="line2d_1">
      <defs>
       <path d="M 0 0 
L 0 3.5 
" id="m0edad80dc7" style="stroke:#000000;stroke-width:0.8;"/>
      </defs>
      <g>
       <use style="stroke:#000000;stroke-width:0.8;" x="73.832727" xlink:href="#m0edad80dc7" y="307.584"/>
      </g>
     </g>
     <g id="text_1">
      <!-- 0 -->
      <g transform="translate(70.651477 322.182437)scale(0.1 -0.1)">
       <defs>
        <path d="M 2034 4250 
Q 1547 4250 1301 3770 
Q 1056 3291 1056 2328 
Q 1056 1369 1301 889 
Q 1547 409 2034 409 
Q 2525 409 2770 889 
Q 3016 1369 3016 2328 
Q 3016 3291 2770 3770 
Q 2525 4250 2034 4250 
z
M 2034 4750 
Q 2819 4750 3233 4129 
Q 3647 3509 3647 2328 
Q 3647 1150 3233 529 
Q 2819 -91 2034 -91 
Q 1250 -91 836 529 
Q 422 1150 422 2328 
Q 422 3509 836 4129 
Q 1250 4750 2034 4750 
z
" id="DejaVuSans-30" transform="scale(0.015625)"/>
       </defs>
       <use xlink:href="#DejaVuSans-30"/>
      </g>
     </g>
    </g>
    <g id="xtick_2">
     <g id="line2d_2">
      <g>
       <use style="stroke:#000000;stroke-width:0.8;" x="118.428132" xlink:href="#m0edad80dc7" y="307.584"/>
      </g>
     </g>
     <g id="text_2">
      <!-- 50 -->
      <g transform="translate(112.065632 322.182437)scale(0.1 -0.1)">
       <defs>
        <path d="M 691 4666 
L 3169 4666 
L 3169 4134 
L 1269 4134 
L 1269 2991 
Q 1406 3038 1543 3061 
Q 1681 3084 1819 3084 
Q 2600 3084 3056 2656 
Q 3513 2228 3513 1497 
Q 3513 744 3044 326 
Q 2575 -91 1722 -91 
Q 1428 -91 1123 -41 
Q 819 9 494 109 
L 494 744 
Q 775 591 1075 516 
Q 1375 441 1709 441 
Q 2250 441 2565 725 
Q 2881 1009 2881 1497 
Q 2881 1984 2565 2268 
Q 2250 2553 1709 2553 
Q 1456 2553 1204 2497 
Q 953 2441 691 2322 
L 691 4666 
z
" id="DejaVuSans-35" transform="scale(0.015625)"/>
       </defs>
       <use xlink:href="#DejaVuSans-35"/>
       <use x="63.623047" xlink:href="#DejaVuSans-30"/>
      </g>
     </g>
    </g>
    <g id="xtick_3">
     <g id="line2d_3">
      <g>
       <use style="stroke:#000000;stroke-width:0.8;" x="163.023536" xlink:href="#m0edad80dc7" y="307.584"/>
      </g>
     </g>
     <g id="text_3">
      <!-- 100 -->
      <g transform="translate(153.479786 322.182437)scale(0.1 -0.1)">
       <defs>
        <path d="M 794 531 
L 1825 531 
L 1825 4091 
L 703 3866 
L 703 4441 
L 1819 4666 
L 2450 4666 
L 2450 531 
L 3481 531 
L 3481 0 
L 794 0 
L 794 531 
z
" id="DejaVuSans-31" transform="scale(0.015625)"/>
       </defs>
       <use xlink:href="#DejaVuSans-31"/>
       <use x="63.623047" xlink:href="#DejaVuSans-30"/>
       <use x="127.246094" xlink:href="#DejaVuSans-30"/>
      </g>
     </g>
    </g>
    <g id="xtick_4">
     <g id="line2d_4">
      <g>
       <use style="stroke:#000000;stroke-width:0.8;" x="207.618941" xlink:href="#m0edad80dc7" y="307.584"/>
      </g>
     </g>
     <g id="text_4">
      <!-- 150 -->
      <g transform="translate(198.075191 322.182437)scale(0.1 -0.1)">
       <use xlink:href="#DejaVuSans-31"/>
       <use x="63.623047" xlink:href="#DejaVuSans-35"/>
       <use x="127.246094" xlink:href="#DejaVuSans-30"/>
      </g>
     </g>
    </g>
    <g id="xtick_5">
     <g id="line2d_5">
      <g>
       <use style="stroke:#000000;stroke-width:0.8;" x="252.214346" xlink:href="#m0edad80dc7" y="307.584"/>
      </g>
     </g>
     <g id="text_5">
      <!-- 200 -->
      <g transform="translate(242.670596 322.182437)scale(0.1 -0.1)">
       <defs>
        <path d="M 1228 531 
L 3431 531 
L 3431 0 
L 469 0 
L 469 531 
Q 828 903 1448 1529 
Q 2069 2156 2228 2338 
Q 2531 2678 2651 2914 
Q 2772 3150 2772 3378 
Q 2772 3750 2511 3984 
Q 2250 4219 1831 4219 
Q 1534 4219 1204 4116 
Q 875 4013 500 3803 
L 500 4441 
Q 881 4594 1212 4672 
Q 1544 4750 1819 4750 
Q 2544 4750 2975 4387 
Q 3406 4025 3406 3419 
Q 3406 3131 3298 2873 
Q 3191 2616 2906 2266 
Q 2828 2175 2409 1742 
Q 1991 1309 1228 531 
z
" id="DejaVuSans-32" transform="scale(0.015625)"/>
       </defs>
       <use xlink:href="#DejaVuSans-32"/>
       <use x="63.623047" xlink:href="#DejaVuSans-30"/>
       <use x="127.246094" xlink:href="#DejaVuSans-30"/>
      </g>
     </g>
    </g>
    <g id="xtick_6">
     <g id="line2d_6">
      <g>
       <use style="stroke:#000000;stroke-width:0.8;" x="296.80975" xlink:href="#m0edad80dc7" y="307.584"/>
      </g>
     </g>
     <g id="text_6">
      <!-- 250 -->
      <g transform="translate(287.266 322.182437)scale(0.1 -0.1)">
       <use xlink:href="#DejaVuSans-32"/>
       <use x="63.623047" xlink:href="#DejaVuSans-35"/>
       <use x="127.246094" xlink:href="#DejaVuSans-30"/>
      </g>
     </g>
    </g>
    <g id="xtick_7">
     <g id="line2d_7">
      <g>
       <use style="stroke:#000000;stroke-width:0.8;" x="341.405155" xlink:href="#m0edad80dc7" y="307.584"/>
      </g>
     </g>
     <g id="text_7">
      <!-- 300 -->
      <g transform="translate(331.861405 322.182437)scale(0.1 -0.1)">
       <defs>
        <path d="M 2597 2516 
Q 3050 2419 3304 2112 
Q 3559 1806 3559 1356 
Q 3559 666 3084 287 
Q 2609 -91 1734 -91 
Q 1441 -91 1130 -33 
Q 819 25 488 141 
L 488 750 
Q 750 597 1062 519 
Q 1375 441 1716 441 
Q 2309 441 2620 675 
Q 2931 909 2931 1356 
Q 2931 1769 2642 2001 
Q 2353 2234 1838 2234 
L 1294 2234 
L 1294 2753 
L 1863 2753 
Q 2328 2753 2575 2939 
Q 2822 3125 2822 3475 
Q 2822 3834 2567 4026 
Q 2313 4219 1838 4219 
Q 1578 4219 1281 4162 
Q 984 4106 628 3988 
L 628 4550 
Q 988 4650 1302 4700 
Q 1616 4750 1894 4750 
Q 2613 4750 3031 4423 
Q 3450 4097 3450 3541 
Q 3450 3153 3228 2886 
Q 3006 2619 2597 2516 
z
" id="DejaVuSans-33" transform="scale(0.015625)"/>
       </defs>
       <use xlink:href="#DejaVuSans-33"/>
       <use x="63.623047" xlink:href="#DejaVuSans-30"/>
       <use x="127.246094" xlink:href="#DejaVuSans-30"/>
      </g>
     </g>
    </g>
    <g id="xtick_8">
     <g id="line2d_8">
      <g>
       <use style="stroke:#000000;stroke-width:0.8;" x="386.000559" xlink:href="#m0edad80dc7" y="307.584"/>
      </g>
     </g>
     <g id="text_8">
      <!-- 350 -->
      <g transform="translate(376.456809 322.182437)scale(0.1 -0.1)">
       <use xlink:href="#DejaVuSans-33"/>
       <use x="63.623047" xlink:href="#DejaVuSans-35"/>
       <use x="127.246094" xlink:href="#DejaVuSans-30"/>
      </g>
     </g>
    </g>
    <g id="text_9">
     <!-- Time -->
     <g transform="translate(223.926406 335.860562)scale(0.1 -0.1)">
      <defs>
       <path d="M -19 4666 
L 3928 4666 
L 3928 4134 
L 2272 4134 
L 2272 0 
L 1638 0 
L 1638 4134 
L -19 4134 
L -19 4666 
z
" id="DejaVuSans-54" transform="scale(0.015625)"/>
       <path d="M 603 3500 
L 1178 3500 
L 1178 0 
L 603 0 
L 603 3500 
z
M 603 4863 
L 1178 4863 
L 1178 4134 
L 603 4134 
L 603 4863 
z
" id="DejaVuSans-69" transform="scale(0.015625)"/>
       <path d="M 3328 2828 
Q 3544 3216 3844 3400 
Q 4144 3584 4550 3584 
Q 5097 3584 5394 3201 
Q 5691 2819 5691 2113 
L 5691 0 
L 5113 0 
L 5113 2094 
Q 5113 2597 4934 2840 
Q 4756 3084 4391 3084 
Q 3944 3084 3684 2787 
Q 3425 2491 3425 1978 
L 3425 0 
L 2847 0 
L 2847 2094 
Q 2847 2600 2669 2842 
Q 2491 3084 2119 3084 
Q 1678 3084 1418 2786 
Q 1159 2488 1159 1978 
L 1159 0 
L 581 0 
L 581 3500 
L 1159 3500 
L 1159 2956 
Q 1356 3278 1631 3431 
Q 1906 3584 2284 3584 
Q 2666 3584 2933 3390 
Q 3200 3197 3328 2828 
z
" id="DejaVuSans-6d" transform="scale(0.015625)"/>
       <path d="M 3597 1894 
L 3597 1613 
L 953 1613 
Q 991 1019 1311 708 
Q 1631 397 2203 397 
Q 2534 397 2845 478 
Q 3156 559 3463 722 
L 3463 178 
Q 3153 47 2828 -22 
Q 2503 -91 2169 -91 
Q 1331 -91 842 396 
Q 353 884 353 1716 
Q 353 2575 817 3079 
Q 1281 3584 2069 3584 
Q 2775 3584 3186 3129 
Q 3597 2675 3597 1894 
z
M 3022 2063 
Q 3016 2534 2758 2815 
Q 2500 3097 2075 3097 
Q 1594 3097 1305 2825 
Q 1016 2553 972 2059 
L 3022 2063 
z
" id="DejaVuSans-65" transform="scale(0.015625)"/>
      </defs>
      <use xlink:href="#DejaVuSans-54"/>
      <use x="57.958984" xlink:href="#DejaVuSans-69"/>
      <use x="85.742188" xlink:href="#DejaVuSans-6d"/>
      <use x="183.154297" xlink:href="#DejaVuSans-65"/>
     </g>
    </g>
   </g>
   <g id="matplotlib.axis_2">
    <g id="ytick_1">
     <g id="line2d_9">
      <defs>
       <path d="M 0 0 
L -3.5 0 
" id="mf8238bb4fa" style="stroke:#000000;stroke-width:0.8;"/>
      </defs>
      <g>
       <use style="stroke:#000000;stroke-width:0.8;" x="57.6" xlink:href="#mf8238bb4fa" y="307.584"/>
      </g>
     </g>
     <g id="text_10">
      <!-- 0 -->
      <g transform="translate(44.2375 311.383219)scale(0.1 -0.1)">
       <use xlink:href="#DejaVuSans-30"/>
      </g>
     </g>
    </g>
    <g id="ytick_2">
     <g id="line2d_10">
      <g>
       <use style="stroke:#000000;stroke-width:0.8;" x="57.6" xlink:href="#mf8238bb4fa" y="265.432352"/>
      </g>
     </g>
     <g id="text_11">
      <!-- 10000 -->
      <g transform="translate(18.7875 269.23157)scale(0.1 -0.1)">
       <use xlink:href="#DejaVuSans-31"/>
       <use x="63.623047" xlink:href="#DejaVuSans-30"/>
       <use x="127.246094" xlink:href="#DejaVuSans-30"/>
       <use x="190.869141" xlink:href="#DejaVuSans-30"/>
       <use x="254.492188" xlink:href="#DejaVuSans-30"/>
      </g>
     </g>
    </g>
    <g id="ytick_3">
     <g id="line2d_11">
      <g>
       <use style="stroke:#000000;stroke-width:0.8;" x="57.6" xlink:href="#mf8238bb4fa" y="223.280703"/>
      </g>
     </g>
     <g id="text_12">
      <!-- 20000 -->
      <g transform="translate(18.7875 227.079922)scale(0.1 -0.1)">
       <use xlink:href="#DejaVuSans-32"/>
       <use x="63.623047" xlink:href="#DejaVuSans-30"/>
       <use x="127.246094" xlink:href="#DejaVuSans-30"/>
       <use x="190.869141" xlink:href="#DejaVuSans-30"/>
       <use x="254.492188" xlink:href="#DejaVuSans-30"/>
      </g>
     </g>
    </g>
    <g id="ytick_4">
     <g id="line2d_12">
      <g>
       <use style="stroke:#000000;stroke-width:0.8;" x="57.6" xlink:href="#mf8238bb4fa" y="181.129055"/>
      </g>
     </g>
     <g id="text_13">
      <!-- 30000 -->
      <g transform="translate(18.7875 184.928274)scale(0.1 -0.1)">
       <use xlink:href="#DejaVuSans-33"/>
       <use x="63.623047" xlink:href="#DejaVuSans-30"/>
       <use x="127.246094" xlink:href="#DejaVuSans-30"/>
       <use x="190.869141" xlink:href="#DejaVuSans-30"/>
       <use x="254.492188" xlink:href="#DejaVuSans-30"/>
      </g>
     </g>
    </g>
    <g id="ytick_5">
     <g id="line2d_13">
      <g>
       <use style="stroke:#000000;stroke-width:0.8;" x="57.6" xlink:href="#mf8238bb4fa" y="138.977407"/>
      </g>
     </g>
     <g id="text_14">
      <!-- 40000 -->
      <g transform="translate(18.7875 142.776626)scale(0.1 -0.1)">
       <defs>
        <path d="M 2419 4116 
L 825 1625 
L 2419 1625 
L 2419 4116 
z
M 2253 4666 
L 3047 4666 
L 3047 1625 
L 3713 1625 
L 3713 1100 
L 3047 1100 
L 3047 0 
L 2419 0 
L 2419 1100 
L 313 1100 
L 313 1709 
L 2253 4666 
z
" id="DejaVuSans-34" transform="scale(0.015625)"/>
       </defs>
       <use xlink:href="#DejaVuSans-34"/>
       <use x="63.623047" xlink:href="#DejaVuSans-30"/>
       <use x="127.246094" xlink:href="#DejaVuSans-30"/>
       <use x="190.869141" xlink:href="#DejaVuSans-30"/>
       <use x="254.492188" xlink:href="#DejaVuSans-30"/>
      </g>
     </g>
    </g>
    <g id="ytick_6">
     <g id="line2d_14">
      <g>
       <use style="stroke:#000000;stroke-width:0.8;" x="57.6" xlink:href="#mf8238bb4fa" y="96.825759"/>
      </g>
     </g>
     <g id="text_15">
      <!-- 50000 -->
      <g transform="translate(18.7875 100.624977)scale(0.1 -0.1)">
       <use xlink:href="#DejaVuSans-35"/>
       <use x="63.623047" xlink:href="#DejaVuSans-30"/>
       <use x="127.246094" xlink:href="#DejaVuSans-30"/>
       <use x="190.869141" xlink:href="#DejaVuSans-30"/>
       <use x="254.492188" xlink:href="#DejaVuSans-30"/>
      </g>
     </g>
    </g>
    <g id="ytick_7">
     <g id="line2d_15">
      <g>
       <use style="stroke:#000000;stroke-width:0.8;" x="57.6" xlink:href="#mf8238bb4fa" y="54.67411"/>
      </g>
     </g>
     <g id="text_16">
      <!-- 60000 -->
      <g transform="translate(18.7875 58.473329)scale(0.1 -0.1)">
       <defs>
        <path d="M 2113 2584 
Q 1688 2584 1439 2293 
Q 1191 2003 1191 1497 
Q 1191 994 1439 701 
Q 1688 409 2113 409 
Q 2538 409 2786 701 
Q 3034 994 3034 1497 
Q 3034 2003 2786 2293 
Q 2538 2584 2113 2584 
z
M 3366 4563 
L 3366 3988 
Q 3128 4100 2886 4159 
Q 2644 4219 2406 4219 
Q 1781 4219 1451 3797 
Q 1122 3375 1075 2522 
Q 1259 2794 1537 2939 
Q 1816 3084 2150 3084 
Q 2853 3084 3261 2657 
Q 3669 2231 3669 1497 
Q 3669 778 3244 343 
Q 2819 -91 2113 -91 
Q 1303 -91 875 529 
Q 447 1150 447 2328 
Q 447 3434 972 4092 
Q 1497 4750 2381 4750 
Q 2619 4750 2861 4703 
Q 3103 4656 3366 4563 
z
" id="DejaVuSans-36" transform="scale(0.015625)"/>
       </defs>
       <use xlink:href="#DejaVuSans-36"/>
       <use x="63.623047" xlink:href="#DejaVuSans-30"/>
       <use x="127.246094" xlink:href="#DejaVuSans-30"/>
       <use x="190.869141" xlink:href="#DejaVuSans-30"/>
       <use x="254.492188" xlink:href="#DejaVuSans-30"/>
      </g>
     </g>
    </g>
    <g id="text_17">
     <!-- Stock Prices -->
     <g transform="translate(12.707812 204.757688)rotate(-90)scale(0.1 -0.1)">
      <defs>
       <path d="M 3425 4513 
L 3425 3897 
Q 3066 4069 2747 4153 
Q 2428 4238 2131 4238 
Q 1616 4238 1336 4038 
Q 1056 3838 1056 3469 
Q 1056 3159 1242 3001 
Q 1428 2844 1947 2747 
L 2328 2669 
Q 3034 2534 3370 2195 
Q 3706 1856 3706 1288 
Q 3706 609 3251 259 
Q 2797 -91 1919 -91 
Q 1588 -91 1214 -16 
Q 841 59 441 206 
L 441 856 
Q 825 641 1194 531 
Q 1563 422 1919 422 
Q 2459 422 2753 634 
Q 3047 847 3047 1241 
Q 3047 1584 2836 1778 
Q 2625 1972 2144 2069 
L 1759 2144 
Q 1053 2284 737 2584 
Q 422 2884 422 3419 
Q 422 4038 858 4394 
Q 1294 4750 2059 4750 
Q 2388 4750 2728 4690 
Q 3069 4631 3425 4513 
z
" id="DejaVuSans-53" transform="scale(0.015625)"/>
       <path d="M 1172 4494 
L 1172 3500 
L 2356 3500 
L 2356 3053 
L 1172 3053 
L 1172 1153 
Q 1172 725 1289 603 
Q 1406 481 1766 481 
L 2356 481 
L 2356 0 
L 1766 0 
Q 1100 0 847 248 
Q 594 497 594 1153 
L 594 3053 
L 172 3053 
L 172 3500 
L 594 3500 
L 594 4494 
L 1172 4494 
z
" id="DejaVuSans-74" transform="scale(0.015625)"/>
       <path d="M 1959 3097 
Q 1497 3097 1228 2736 
Q 959 2375 959 1747 
Q 959 1119 1226 758 
Q 1494 397 1959 397 
Q 2419 397 2687 759 
Q 2956 1122 2956 1747 
Q 2956 2369 2687 2733 
Q 2419 3097 1959 3097 
z
M 1959 3584 
Q 2709 3584 3137 3096 
Q 3566 2609 3566 1747 
Q 3566 888 3137 398 
Q 2709 -91 1959 -91 
Q 1206 -91 779 398 
Q 353 888 353 1747 
Q 353 2609 779 3096 
Q 1206 3584 1959 3584 
z
" id="DejaVuSans-6f" transform="scale(0.015625)"/>
       <path d="M 3122 3366 
L 3122 2828 
Q 2878 2963 2633 3030 
Q 2388 3097 2138 3097 
Q 1578 3097 1268 2742 
Q 959 2388 959 1747 
Q 959 1106 1268 751 
Q 1578 397 2138 397 
Q 2388 397 2633 464 
Q 2878 531 3122 666 
L 3122 134 
Q 2881 22 2623 -34 
Q 2366 -91 2075 -91 
Q 1284 -91 818 406 
Q 353 903 353 1747 
Q 353 2603 823 3093 
Q 1294 3584 2113 3584 
Q 2378 3584 2631 3529 
Q 2884 3475 3122 3366 
z
" id="DejaVuSans-63" transform="scale(0.015625)"/>
       <path d="M 581 4863 
L 1159 4863 
L 1159 1991 
L 2875 3500 
L 3609 3500 
L 1753 1863 
L 3688 0 
L 2938 0 
L 1159 1709 
L 1159 0 
L 581 0 
L 581 4863 
z
" id="DejaVuSans-6b" transform="scale(0.015625)"/>
       <path id="DejaVuSans-20" transform="scale(0.015625)"/>
       <path d="M 1259 4147 
L 1259 2394 
L 2053 2394 
Q 2494 2394 2734 2622 
Q 2975 2850 2975 3272 
Q 2975 3691 2734 3919 
Q 2494 4147 2053 4147 
L 1259 4147 
z
M 628 4666 
L 2053 4666 
Q 2838 4666 3239 4311 
Q 3641 3956 3641 3272 
Q 3641 2581 3239 2228 
Q 2838 1875 2053 1875 
L 1259 1875 
L 1259 0 
L 628 0 
L 628 4666 
z
" id="DejaVuSans-50" transform="scale(0.015625)"/>
       <path d="M 2631 2963 
Q 2534 3019 2420 3045 
Q 2306 3072 2169 3072 
Q 1681 3072 1420 2755 
Q 1159 2438 1159 1844 
L 1159 0 
L 581 0 
L 581 3500 
L 1159 3500 
L 1159 2956 
Q 1341 3275 1631 3429 
Q 1922 3584 2338 3584 
Q 2397 3584 2469 3576 
Q 2541 3569 2628 3553 
L 2631 2963 
z
" id="DejaVuSans-72" transform="scale(0.015625)"/>
       <path d="M 2834 3397 
L 2834 2853 
Q 2591 2978 2328 3040 
Q 2066 3103 1784 3103 
Q 1356 3103 1142 2972 
Q 928 2841 928 2578 
Q 928 2378 1081 2264 
Q 1234 2150 1697 2047 
L 1894 2003 
Q 2506 1872 2764 1633 
Q 3022 1394 3022 966 
Q 3022 478 2636 193 
Q 2250 -91 1575 -91 
Q 1294 -91 989 -36 
Q 684 19 347 128 
L 347 722 
Q 666 556 975 473 
Q 1284 391 1588 391 
Q 1994 391 2212 530 
Q 2431 669 2431 922 
Q 2431 1156 2273 1281 
Q 2116 1406 1581 1522 
L 1381 1569 
Q 847 1681 609 1914 
Q 372 2147 372 2553 
Q 372 3047 722 3315 
Q 1072 3584 1716 3584 
Q 2034 3584 2315 3537 
Q 2597 3491 2834 3397 
z
" id="DejaVuSans-73" transform="scale(0.015625)"/>
      </defs>
      <use xlink:href="#DejaVuSans-53"/>
      <use x="63.476562" xlink:href="#DejaVuSans-74"/>
      <use x="102.685547" xlink:href="#DejaVuSans-6f"/>
      <use x="163.867188" xlink:href="#DejaVuSans-63"/>
      <use x="218.847656" xlink:href="#DejaVuSans-6b"/>
      <use x="276.757812" xlink:href="#DejaVuSans-20"/>
      <use x="308.544922" xlink:href="#DejaVuSans-50"/>
      <use x="367.097656" xlink:href="#DejaVuSans-72"/>
      <use x="408.210938" xlink:href="#DejaVuSans-69"/>
      <use x="435.994141" xlink:href="#DejaVuSans-63"/>
      <use x="490.974609" xlink:href="#DejaVuSans-65"/>
      <use x="552.498047" xlink:href="#DejaVuSans-73"/>
     </g>
    </g>
   </g>
   <g id="line2d_16">
    <path clip-path="url(#p8392e995c7)" d="M 73.832727 110.735803 
L 74.724635 113.686418 
L 75.616543 113.686418 
L 76.508452 112.632627 
L 77.40036 114.107934 
L 79.184176 114.529451 
L 80.076084 120.009165 
L 80.967992 120.009165 
L 81.8599 117.480066 
L 83.643716 113.897176 
L 84.535624 112.000352 
L 85.427532 111.578835 
L 86.319441 111.578835 
L 87.211349 111.368077 
L 88.103257 112.21111 
L 88.995165 112.000352 
L 89.887073 112.000352 
L 90.778981 111.789594 
L 91.670889 110.103528 
L 92.562797 107.363671 
L 93.454705 112.000352 
L 94.346613 114.107934 
L 95.238521 116.637033 
L 96.13043 113.686418 
L 97.022338 116.215517 
L 97.914246 129.493286 
L 98.806154 123.802813 
L 99.698062 132.443901 
L 100.58997 129.704044 
L 101.481878 129.704044 
L 102.373786 123.170539 
L 103.265694 120.009165 
L 104.157602 120.219923 
L 105.04951 119.587649 
L 105.941419 119.587649 
L 106.833327 117.05855 
L 107.725235 114.950967 
L 108.617143 111.578835 
L 109.509051 111.157319 
L 110.400959 111.157319 
L 111.292867 112.843385 
L 112.184775 113.47566 
L 113.076683 109.471253 
L 113.968591 112.21111 
L 114.8605 111.368077 
L 116.644316 95.139693 
L 117.536224 90.924528 
L 118.428132 85.023297 
L 119.32004 87.130879 
L 120.211948 86.287847 
L 121.103856 84.601781 
L 121.995764 87.973912 
L 123.77958 92.189077 
L 124.671489 91.767561 
L 125.563397 93.03211 
L 126.455305 96.404242 
L 127.347213 98.090308 
L 128.239121 97.668792 
L 129.131029 98.933341 
L 130.022937 93.453627 
L 130.914845 96.825759 
L 131.806753 95.139693 
L 132.698661 93.875143 
L 133.590569 95.139693 
L 134.482478 90.081495 
L 135.374386 89.659978 
L 136.266294 90.081495 
L 137.158202 91.346044 
L 138.05011 94.29666 
L 138.942018 95.561209 
L 139.833926 93.453627 
L 140.725834 94.29666 
L 141.617742 95.982726 
L 142.50965 95.982726 
L 143.401558 97.247275 
L 144.293467 97.668792 
L 145.185375 97.87955 
L 146.077283 99.565616 
L 146.969191 99.565616 
L 147.861099 98.933341 
L 148.753007 97.668792 
L 149.644915 97.036517 
L 150.536823 99.565616 
L 151.428731 100.619407 
L 152.320639 101.46244 
L 153.212547 99.354857 
L 154.104456 98.933341 
L 154.996364 96.825759 
L 155.888272 99.354857 
L 156.78018 107.363671 
L 157.672088 104.413055 
L 158.563996 101.040923 
L 159.455904 103.780781 
L 160.347812 103.991539 
L 161.23972 101.883956 
L 162.131628 102.305473 
L 163.023536 103.991539 
L 163.915445 103.148506 
L 164.807353 101.673198 
L 165.699261 101.673198 
L 166.591169 102.726989 
L 167.483077 101.883956 
L 168.374985 104.623814 
L 169.266893 103.570022 
L 170.158801 103.570022 
L 171.050709 93.875143 
L 171.942617 94.29666 
L 172.834525 93.875143 
L 173.726434 95.982726 
L 174.618342 95.139693 
L 175.51025 90.924528 
L 176.402158 91.346044 
L 177.294066 93.453627 
L 178.185974 94.29666 
L 179.077882 93.03211 
L 179.96979 94.29666 
L 180.861698 93.453627 
L 181.753606 91.346044 
L 182.645514 93.875143 
L 183.537423 87.130879 
L 184.429331 90.081495 
L 186.213147 77.857517 
L 187.105055 80.386616 
L 187.996963 81.229649 
L 188.888871 87.130879 
L 189.780779 80.808132 
L 190.672687 79.965099 
L 191.564595 83.337231 
L 192.456503 83.758748 
L 193.348412 85.444814 
L 194.24032 83.758748 
L 195.132228 76.592967 
L 196.024136 77.014484 
L 196.916044 76.171451 
L 197.807952 77.436 
L 198.69986 76.171451 
L 200.483676 74.485385 
L 201.375584 73.220836 
L 202.267493 70.691737 
L 203.159401 66.055055 
L 204.051309 66.055055 
L 204.943217 67.319605 
L 205.835125 70.691737 
L 206.727033 71.53477 
L 207.618941 71.113253 
L 208.510849 84.180264 
L 209.402757 82.915715 
L 210.294665 76.171451 
L 211.186573 78.70055 
L 212.078482 80.386616 
L 212.97039 85.86633 
L 213.862298 93.875143 
L 214.754206 108.62822 
L 215.646114 101.040923 
L 216.538022 103.148506 
L 217.42993 98.090308 
L 220.105654 87.552396 
L 220.997562 88.395429 
L 221.889471 84.180264 
L 222.781379 72.799319 
L 223.673287 71.113253 
L 224.565195 70.691737 
L 225.457103 66.476572 
L 226.349011 68.162638 
L 227.240919 66.055055 
L 228.132827 61.418374 
L 229.024735 62.261407 
L 229.916643 58.889275 
L 230.808551 60.575341 
L 231.70046 60.996858 
L 232.592368 63.947473 
L 233.484276 63.10444 
L 234.376184 61.418374 
L 235.268092 69.005671 
L 236.16 72.377803 
L 237.051908 73.220836 
L 237.943816 73.220836 
L 238.835724 66.898088 
L 239.727632 63.947473 
L 240.61954 63.947473 
L 241.511449 64.368989 
L 242.403357 70.27022 
L 243.295265 71.53477 
L 244.187173 66.476572 
L 245.079081 70.27022 
L 245.970989 70.691737 
L 247.754805 73.220836 
L 248.646713 73.642352 
L 249.538621 75.328418 
L 250.430529 70.27022 
L 251.322438 69.427187 
L 252.214346 71.956286 
L 253.106254 72.377803 
L 253.998162 72.377803 
L 254.89007 71.956286 
L 256.673886 71.956286 
L 257.565794 76.171451 
L 258.457702 74.906901 
L 259.34961 78.279033 
L 260.241518 85.023297 
L 261.133427 86.287847 
L 262.025335 84.601781 
L 262.917243 92.610594 
L 263.809151 92.610594 
L 264.701059 97.036517 
L 265.592967 102.726989 
L 266.484875 96.825759 
L 267.376783 95.561209 
L 268.268691 98.301066 
L 269.160599 93.03211 
L 270.944416 93.875143 
L 271.836324 82.915715 
L 272.728232 84.180264 
L 273.62014 82.915715 
L 274.512048 79.965099 
L 275.403956 76.592967 
L 276.295864 79.965099 
L 277.187772 79.965099 
L 278.971588 78.279033 
L 279.863497 65.633539 
L 280.755405 70.27022 
L 281.647313 70.691737 
L 282.539221 74.485385 
L 283.431129 80.386616 
L 284.323037 76.592967 
L 285.214945 77.436 
L 286.106853 77.014484 
L 286.998761 74.906901 
L 287.890669 74.063869 
L 288.782577 66.476572 
L 289.674486 69.005671 
L 290.566394 77.014484 
L 291.458302 80.808132 
L 292.35021 86.287847 
L 293.242118 79.965099 
L 294.134026 75.749934 
L 295.025934 76.592967 
L 295.917842 71.53477 
L 296.80975 68.584154 
L 297.701658 69.427187 
L 298.593566 60.575341 
L 299.485475 60.575341 
L 300.377383 69.427187 
L 301.269291 71.53477 
L 302.161199 69.427187 
L 303.053107 66.898088 
L 303.945015 70.691737 
L 304.836923 76.592967 
L 305.728831 73.642352 
L 306.620739 74.063869 
L 307.512647 77.857517 
L 308.404555 89.659978 
L 309.296464 83.337231 
L 310.188372 87.130879 
L 311.08028 93.453627 
L 311.972188 98.301066 
L 312.864096 92.610594 
L 313.756004 93.03211 
L 314.647912 93.03211 
L 315.53982 92.189077 
L 316.431728 101.040923 
L 317.323636 99.565616 
L 318.215544 96.825759 
L 319.107453 93.03211 
L 319.999361 95.982726 
L 320.891269 97.247275 
L 321.783177 95.561209 
L 322.675085 94.718176 
L 323.566993 92.610594 
L 324.458901 91.346044 
L 325.350809 90.503011 
L 326.242717 91.767561 
L 327.134625 87.130879 
L 328.026533 86.709363 
L 328.918442 84.601781 
L 329.81035 84.601781 
L 330.702258 80.808132 
L 332.486074 84.180264 
L 333.377982 84.601781 
L 334.26989 87.973912 
L 335.161798 90.081495 
L 336.053706 90.081495 
L 336.945614 90.503011 
L 337.837522 98.511825 
L 338.729431 103.148506 
L 339.621339 101.883956 
L 340.513247 98.722583 
L 341.405155 102.305473 
L 342.297063 98.933341 
L 343.188971 98.722583 
L 344.080879 98.090308 
L 344.972787 93.453627 
L 345.864695 92.189077 
L 346.756603 95.139693 
L 347.648511 99.776374 
L 348.54042 94.29666 
L 349.432328 94.718176 
L 351.216144 96.404242 
L 352.108052 93.03211 
L 352.99996 92.610594 
L 353.891868 93.875143 
L 354.783776 96.825759 
L 355.675684 98.511825 
L 356.567592 96.404242 
L 357.4595 95.982726 
L 358.351409 96.825759 
L 359.243317 96.404242 
L 361.027133 88.395429 
L 361.919041 90.081495 
L 362.810949 88.816945 
L 363.702857 80.808132 
L 364.594765 80.386616 
L 365.486673 80.386616 
L 366.378581 79.965099 
L 367.27049 80.386616 
L 368.162398 76.171451 
L 369.054306 75.749934 
L 369.946214 80.808132 
L 370.838122 80.386616 
L 371.73003 81.651165 
L 372.621938 78.279033 
L 373.513846 76.592967 
L 374.405754 80.386616 
L 375.297662 82.072682 
L 376.18957 84.601781 
L 377.081479 79.543583 
L 377.973387 77.436 
L 378.865295 74.485385 
L 379.757203 76.592967 
L 380.649111 79.543583 
L 381.541019 80.386616 
L 382.432927 78.70055 
L 383.324835 84.180264 
L 384.216743 85.444814 
L 385.108651 80.386616 
L 386.000559 77.014484 
L 386.892468 77.857517 
L 387.784376 61.839891 
L 388.676284 55.517143 
L 389.568192 54.67411 
L 390.4601 54.252594 
L 391.352008 59.732308 
L 392.243916 45.822264 
L 393.135824 50.458945 
L 394.027732 57.203209 
L 394.91964 71.956286 
L 395.811548 67.319605 
L 396.703457 67.319605 
L 397.595365 63.10444 
L 398.487273 68.162638 
L 398.487273 68.162638 
" style="fill:none;stroke:#ff0000;stroke-linecap:square;stroke-width:1.5;"/>
   </g>
   <g id="line2d_17">
    <path clip-path="url(#p8392e995c7)" d="M 73.832727 119.365546 
L 75.616543 114.067314 
L 76.508452 115.185633 
L 77.40036 116.673702 
L 78.292268 117.694266 
L 79.184176 119.474037 
L 80.076084 118.826219 
L 80.967992 119.303948 
L 81.8599 121.829063 
L 82.751808 122.970351 
L 83.643716 122.269975 
L 84.535624 121.183023 
L 85.427532 118.862542 
L 86.319441 117.144895 
L 87.211349 116.945415 
L 88.103257 116.437225 
L 88.995165 116.939159 
L 89.887073 116.664695 
L 90.778981 117.216734 
L 91.670889 116.667511 
L 92.562797 114.512887 
L 93.454705 111.592913 
L 94.346613 113.078282 
L 95.238521 116.17325 
L 96.13043 117.933328 
L 97.022338 119.355913 
L 97.914246 120.116849 
L 98.806154 124.398551 
L 100.58997 130.06314 
L 101.481878 131.72403 
L 102.373786 132.827547 
L 103.265694 131.132903 
L 105.04951 125.743946 
L 105.941419 124.51325 
L 106.833327 124.612487 
L 107.725235 124.044971 
L 108.617143 122.213729 
L 109.509051 119.690953 
L 110.400959 117.572685 
L 111.292867 116.938335 
L 113.076683 118.60838 
L 113.968591 117.595259 
L 114.8605 116.27448 
L 115.752408 115.835889 
L 116.644316 112.862584 
L 118.428132 99.887236 
L 119.32004 90.538066 
L 120.211948 86.917833 
L 121.103856 88.717329 
L 121.995764 92.943394 
L 122.887672 94.560404 
L 123.77958 94.062257 
L 124.671489 95.18387 
L 125.563397 96.802641 
L 126.455305 97.580355 
L 127.347213 98.076428 
L 128.239121 99.662647 
L 129.131029 100.849166 
L 130.022937 101.346967 
L 130.914845 102.349469 
L 132.698661 99.171004 
L 133.590569 97.798852 
L 134.482478 98.350347 
L 135.374386 97.128526 
L 136.266294 95.581264 
L 137.158202 95.26404 
L 138.05011 95.075774 
L 138.942018 95.677357 
L 139.833926 97.868748 
L 141.617742 98.353624 
L 143.401558 98.892227 
L 144.293467 99.633684 
L 145.185375 101.123926 
L 146.077283 101.659252 
L 147.861099 103.27804 
L 148.753007 103.069537 
L 149.644915 101.769801 
L 150.536823 102.11831 
L 151.428731 102.06669 
L 152.320639 104.085524 
L 153.212547 105.629493 
L 154.104456 106.372646 
L 155.888272 103.886242 
L 156.78018 103.528002 
L 158.563996 109.684069 
L 159.455904 109.788082 
L 162.131628 107.006123 
L 163.023536 106.168984 
L 163.915445 107.422189 
L 164.807353 108.038838 
L 165.699261 109.181839 
L 166.591169 108.035742 
L 167.483077 107.402924 
L 168.374985 107.641476 
L 169.266893 106.368628 
L 170.158801 107.451827 
L 171.050709 107.690856 
L 171.942617 102.313047 
L 172.834525 99.43595 
L 173.726434 98.831749 
L 174.618342 99.477147 
L 175.51025 99.477937 
L 176.402158 96.458397 
L 177.294066 96.256892 
L 178.185974 96.569589 
L 179.077882 98.510079 
L 179.96979 98.757555 
L 180.861698 97.7172 
L 181.753606 96.170086 
L 182.645514 95.889202 
L 183.537423 95.958241 
L 184.429331 93.187083 
L 186.213147 90.67748 
L 187.105055 86.53007 
L 187.996963 83.294981 
L 188.888871 84.654437 
L 190.672687 88.562521 
L 191.564595 86.465624 
L 192.456503 86.233412 
L 193.348412 85.041409 
L 194.24032 89.938904 
L 195.132228 90.944286 
L 196.024136 83.1693 
L 196.916044 79.646262 
L 198.69986 80.406951 
L 199.591768 77.581802 
L 200.483676 78.540769 
L 201.375584 76.818907 
L 202.267493 76.110446 
L 204.051309 68.308687 
L 204.943217 69.337384 
L 205.835125 69.060122 
L 206.727033 70.610512 
L 207.618941 73.348344 
L 208.510849 73.534322 
L 210.294665 84.039534 
L 211.186573 83.043701 
L 212.078482 79.318598 
L 212.97039 79.515773 
L 213.862298 82.766126 
L 214.754206 88.838812 
L 215.646114 99.035839 
L 216.538022 106.971578 
L 217.42993 104.617721 
L 218.321838 101.180748 
L 219.213746 97.176226 
L 220.105654 95.55408 
L 220.997562 93.058257 
L 221.889471 88.888307 
L 222.781379 90.726201 
L 223.673287 85.534435 
L 224.565195 77.887665 
L 225.457103 75.097259 
L 226.349011 70.327553 
L 227.240919 70.547746 
L 228.132827 69.130183 
L 229.024735 65.309268 
L 229.916643 68.80359 
L 230.808551 56.313842 
L 231.70046 58.942063 
L 232.592368 62.130984 
L 233.484276 66.86878 
L 234.376184 65.687694 
L 235.268092 66.368097 
L 236.16 69.29003 
L 237.943816 78.187831 
L 238.835724 79.217912 
L 239.727632 71.512014 
L 240.61954 67.711121 
L 241.511449 67.630325 
L 242.403357 70.30055 
L 243.295265 71.721208 
L 244.187173 79.166474 
L 245.970989 73.07999 
L 246.862897 74.307525 
L 247.754805 78.181064 
L 249.538621 74.31034 
L 250.430529 73.474239 
L 251.322438 74.122716 
L 252.214346 70.211389 
L 253.106254 67.790781 
L 253.998162 72.165842 
L 254.89007 74.006338 
L 255.781978 74.386921 
L 256.673886 73.743285 
L 257.565794 72.211666 
L 258.457702 73.845865 
L 259.34961 78.148808 
L 260.241518 76.473148 
L 261.133427 82.381064 
L 262.025335 86.397391 
L 262.917243 86.399795 
L 264.701059 91.312669 
L 265.592967 95.158875 
L 267.376783 101.127301 
L 268.268691 100.313314 
L 269.160599 100.477013 
L 270.052507 96.465856 
L 270.944416 96.884458 
L 271.836324 95.694892 
L 272.728232 90.479943 
L 273.62014 87.492527 
L 274.512048 85.753904 
L 275.403956 84.537829 
L 276.295864 81.467921 
L 277.187772 79.769621 
L 278.07968 81.692428 
L 278.971588 80.191384 
L 279.863497 83.603445 
L 280.755405 79.422891 
L 281.647313 72.623352 
L 282.539221 70.09478 
L 283.431129 71.451899 
L 284.323037 78.654875 
L 285.214945 81.903087 
L 286.106853 81.290867 
L 286.998761 83.721206 
L 287.890669 76.04689 
L 288.782577 75.540609 
L 289.674486 73.167883 
L 290.566394 71.932065 
L 291.458302 77.961233 
L 292.35021 87.604345 
L 293.242118 92.658311 
L 294.134026 86.978936 
L 295.025934 79.352814 
L 295.917842 78.750358 
L 296.80975 83.725142 
L 297.701658 84.247904 
L 298.593566 80.58845 
L 299.485475 63.803367 
L 300.377383 65.2207 
L 301.269291 72.91815 
L 302.161199 76.516847 
L 303.053107 76.7731 
L 303.945015 70.65846 
L 304.836923 70.549557 
L 306.620739 76.167088 
L 307.512647 76.086637 
L 308.404555 75.455795 
L 309.296464 79.263225 
L 310.188372 84.895047 
L 311.08028 87.175913 
L 311.972188 88.135554 
L 312.864096 92.607828 
L 313.756004 96.192743 
L 314.647912 95.064264 
L 315.53982 94.573576 
L 316.431728 93.046913 
L 318.215544 100.548539 
L 319.107453 100.191617 
L 320.891269 96.971659 
L 321.783177 98.505716 
L 322.675085 98.185627 
L 323.566993 98.936947 
L 324.458901 96.481185 
L 325.350809 94.920751 
L 327.134625 94.248054 
L 328.026533 91.436802 
L 328.918442 91.787188 
L 329.81035 88.225308 
L 330.702258 88.093287 
L 331.594166 82.333083 
L 332.486074 83.505459 
L 333.377982 86.829314 
L 334.26989 88.372937 
L 335.161798 93.625675 
L 336.053706 93.406832 
L 336.945614 93.851795 
L 337.837522 94.046549 
L 338.729431 94.409267 
L 339.621339 99.443343 
L 340.513247 103.619106 
L 341.405155 103.513776 
L 342.297063 102.99508 
L 343.188971 103.18226 
L 344.080879 101.305491 
L 345.864695 98.232702 
L 346.756603 95.233134 
L 347.648511 95.814086 
L 348.54042 99.156844 
L 349.432328 100.637782 
L 351.216144 96.37388 
L 352.108052 97.524817 
L 352.99996 98.132147 
L 353.891868 95.933889 
L 354.783776 95.690167 
L 355.675684 96.58528 
L 356.567592 100.004734 
L 357.4595 101.339838 
L 358.351409 99.315176 
L 359.243317 98.283135 
L 360.135225 96.872175 
L 361.027133 95.036767 
L 361.919041 92.88206 
L 362.810949 93.841504 
L 363.702857 91.768697 
L 364.594765 84.121416 
L 365.486673 85.476608 
L 366.378581 85.637575 
L 367.27049 83.896284 
L 368.162398 86.255574 
L 369.946214 77.672741 
L 370.838122 81.171097 
L 371.73003 83.925872 
L 372.621938 83.92388 
L 373.513846 81.97188 
L 374.405754 82.178193 
L 375.297662 82.725472 
L 376.18957 83.049694 
L 377.081479 83.924094 
L 377.973387 84.352592 
L 378.865295 77.659585 
L 379.757203 76.47896 
L 380.649111 78.519545 
L 381.541019 78.18271 
L 382.432927 80.640118 
L 383.324835 80.974878 
L 384.216743 81.834739 
L 385.108651 85.504484 
L 386.000559 83.088454 
L 386.892468 79.158998 
L 387.784376 80.951662 
L 388.676284 61.964534 
L 389.568192 57.12699 
L 390.4601 65.578857 
L 391.352008 61.003707 
L 392.243916 61.084586 
L 393.135824 54.894567 
L 394.027732 54.952262 
L 394.91964 55.129924 
L 395.811548 68.728886 
L 396.703457 75.518347 
L 398.487273 67.24034 
L 398.487273 67.24034 
" style="fill:none;stroke:#0000ff;stroke-linecap:square;stroke-width:1.5;"/>
   </g>
   <g id="patch_3">
    <path d="M 57.6 307.584 
L 57.6 41.472 
" style="fill:none;stroke:#000000;stroke-linecap:square;stroke-linejoin:miter;stroke-width:0.8;"/>
   </g>
   <g id="patch_4">
    <path d="M 414.72 307.584 
L 414.72 41.472 
" style="fill:none;stroke:#000000;stroke-linecap:square;stroke-linejoin:miter;stroke-width:0.8;"/>
   </g>
   <g id="patch_5">
    <path d="M 57.6 307.584 
L 414.72 307.584 
" style="fill:none;stroke:#000000;stroke-linecap:square;stroke-linejoin:miter;stroke-width:0.8;"/>
   </g>
   <g id="patch_6">
    <path d="M 57.6 41.472 
L 414.72 41.472 
" style="fill:none;stroke:#000000;stroke-linecap:square;stroke-linejoin:miter;stroke-width:0.8;"/>
   </g>
   <g id="text_18">
    <!-- PLX Prices -->
    <g transform="translate(205.419375 35.472)scale(0.12 -0.12)">
     <defs>
      <path d="M 628 4666 
L 1259 4666 
L 1259 531 
L 3531 531 
L 3531 0 
L 628 0 
L 628 4666 
z
" id="DejaVuSans-4c" transform="scale(0.015625)"/>
      <path d="M 403 4666 
L 1081 4666 
L 2241 2931 
L 3406 4666 
L 4084 4666 
L 2584 2425 
L 4184 0 
L 3506 0 
L 2194 1984 
L 872 0 
L 191 0 
L 1856 2491 
L 403 4666 
z
" id="DejaVuSans-58" transform="scale(0.015625)"/>
     </defs>
     <use xlink:href="#DejaVuSans-50"/>
     <use x="60.302734" xlink:href="#DejaVuSans-4c"/>
     <use x="116.015625" xlink:href="#DejaVuSans-58"/>
     <use x="184.521484" xlink:href="#DejaVuSans-20"/>
     <use x="216.308594" xlink:href="#DejaVuSans-50"/>
     <use x="274.861328" xlink:href="#DejaVuSans-72"/>
     <use x="315.974609" xlink:href="#DejaVuSans-69"/>
     <use x="343.757812" xlink:href="#DejaVuSans-63"/>
     <use x="398.738281" xlink:href="#DejaVuSans-65"/>
     <use x="460.261719" xlink:href="#DejaVuSans-73"/>
    </g>
   </g>
   <g id="legend_1">
    <g id="patch_7">
     <path d="M 64.6 302.584 
L 197.953125 302.584 
Q 199.953125 302.584 199.953125 300.584 
L 199.953125 272.22775 
Q 199.953125 270.22775 197.953125 270.22775 
L 64.6 270.22775 
Q 62.6 270.22775 62.6 272.22775 
L 62.6 300.584 
Q 62.6 302.584 64.6 302.584 
z
" style="fill:#ffffff;opacity:0.8;stroke:#cccccc;stroke-linejoin:miter;"/>
    </g>
    <g id="line2d_18">
     <path d="M 66.6 278.326187 
L 86.6 278.326187 
" style="fill:none;stroke:#ff0000;stroke-linecap:square;stroke-width:1.5;"/>
    </g>
    <g id="line2d_19"/>
    <g id="text_19">
     <!-- Real PLX Prices -->
     <g transform="translate(94.6 281.826187)scale(0.1 -0.1)">
      <defs>
       <path d="M 2841 2188 
Q 3044 2119 3236 1894 
Q 3428 1669 3622 1275 
L 4263 0 
L 3584 0 
L 2988 1197 
Q 2756 1666 2539 1819 
Q 2322 1972 1947 1972 
L 1259 1972 
L 1259 0 
L 628 0 
L 628 4666 
L 2053 4666 
Q 2853 4666 3247 4331 
Q 3641 3997 3641 3322 
Q 3641 2881 3436 2590 
Q 3231 2300 2841 2188 
z
M 1259 4147 
L 1259 2491 
L 2053 2491 
Q 2509 2491 2742 2702 
Q 2975 2913 2975 3322 
Q 2975 3731 2742 3939 
Q 2509 4147 2053 4147 
L 1259 4147 
z
" id="DejaVuSans-52" transform="scale(0.015625)"/>
       <path d="M 2194 1759 
Q 1497 1759 1228 1600 
Q 959 1441 959 1056 
Q 959 750 1161 570 
Q 1363 391 1709 391 
Q 2188 391 2477 730 
Q 2766 1069 2766 1631 
L 2766 1759 
L 2194 1759 
z
M 3341 1997 
L 3341 0 
L 2766 0 
L 2766 531 
Q 2569 213 2275 61 
Q 1981 -91 1556 -91 
Q 1019 -91 701 211 
Q 384 513 384 1019 
Q 384 1609 779 1909 
Q 1175 2209 1959 2209 
L 2766 2209 
L 2766 2266 
Q 2766 2663 2505 2880 
Q 2244 3097 1772 3097 
Q 1472 3097 1187 3025 
Q 903 2953 641 2809 
L 641 3341 
Q 956 3463 1253 3523 
Q 1550 3584 1831 3584 
Q 2591 3584 2966 3190 
Q 3341 2797 3341 1997 
z
" id="DejaVuSans-61" transform="scale(0.015625)"/>
       <path d="M 603 4863 
L 1178 4863 
L 1178 0 
L 603 0 
L 603 4863 
z
" id="DejaVuSans-6c" transform="scale(0.015625)"/>
      </defs>
      <use xlink:href="#DejaVuSans-52"/>
      <use x="64.982422" xlink:href="#DejaVuSans-65"/>
      <use x="126.505859" xlink:href="#DejaVuSans-61"/>
      <use x="187.785156" xlink:href="#DejaVuSans-6c"/>
      <use x="215.568359" xlink:href="#DejaVuSans-20"/>
      <use x="247.355469" xlink:href="#DejaVuSans-50"/>
      <use x="307.658203" xlink:href="#DejaVuSans-4c"/>
      <use x="363.371094" xlink:href="#DejaVuSans-58"/>
      <use x="431.876953" xlink:href="#DejaVuSans-20"/>
      <use x="463.664062" xlink:href="#DejaVuSans-50"/>
      <use x="522.216797" xlink:href="#DejaVuSans-72"/>
      <use x="563.330078" xlink:href="#DejaVuSans-69"/>
      <use x="591.113281" xlink:href="#DejaVuSans-63"/>
      <use x="646.09375" xlink:href="#DejaVuSans-65"/>
      <use x="707.617188" xlink:href="#DejaVuSans-73"/>
     </g>
    </g>
    <g id="line2d_20">
     <path d="M 66.6 293.004312 
L 86.6 293.004312 
" style="fill:none;stroke:#0000ff;stroke-linecap:square;stroke-width:1.5;"/>
    </g>
    <g id="line2d_21"/>
    <g id="text_20">
     <!-- Predicted PLX Prices -->
     <g transform="translate(94.6 296.504312)scale(0.1 -0.1)">
      <defs>
       <path d="M 2906 2969 
L 2906 4863 
L 3481 4863 
L 3481 0 
L 2906 0 
L 2906 525 
Q 2725 213 2448 61 
Q 2172 -91 1784 -91 
Q 1150 -91 751 415 
Q 353 922 353 1747 
Q 353 2572 751 3078 
Q 1150 3584 1784 3584 
Q 2172 3584 2448 3432 
Q 2725 3281 2906 2969 
z
M 947 1747 
Q 947 1113 1208 752 
Q 1469 391 1925 391 
Q 2381 391 2643 752 
Q 2906 1113 2906 1747 
Q 2906 2381 2643 2742 
Q 2381 3103 1925 3103 
Q 1469 3103 1208 2742 
Q 947 2381 947 1747 
z
" id="DejaVuSans-64" transform="scale(0.015625)"/>
      </defs>
      <use xlink:href="#DejaVuSans-50"/>
      <use x="58.552734" xlink:href="#DejaVuSans-72"/>
      <use x="97.416016" xlink:href="#DejaVuSans-65"/>
      <use x="158.939453" xlink:href="#DejaVuSans-64"/>
      <use x="222.416016" xlink:href="#DejaVuSans-69"/>
      <use x="250.199219" xlink:href="#DejaVuSans-63"/>
      <use x="305.179688" xlink:href="#DejaVuSans-74"/>
      <use x="344.388672" xlink:href="#DejaVuSans-65"/>
      <use x="405.912109" xlink:href="#DejaVuSans-64"/>
      <use x="469.388672" xlink:href="#DejaVuSans-20"/>
      <use x="501.175781" xlink:href="#DejaVuSans-50"/>
      <use x="561.478516" xlink:href="#DejaVuSans-4c"/>
      <use x="617.191406" xlink:href="#DejaVuSans-58"/>
      <use x="685.697266" xlink:href="#DejaVuSans-20"/>
      <use x="717.484375" xlink:href="#DejaVuSans-50"/>
      <use x="776.037109" xlink:href="#DejaVuSans-72"/>
      <use x="817.150391" xlink:href="#DejaVuSans-69"/>
      <use x="844.933594" xlink:href="#DejaVuSans-63"/>
      <use x="899.914062" xlink:href="#DejaVuSans-65"/>
      <use x="961.4375" xlink:href="#DejaVuSans-73"/>
     </g>
    </g>
   </g>
  </g>
 </g>
 <defs>
  <clipPath id="p8392e995c7">
   <rect height="266.112" width="357.12" x="57.6" y="41.472"/>
  </clipPath>
 </defs>
</svg>
