<?xml version="1.0" encoding="utf-8" standalone="no"?>
<!DOCTYPE svg PUBLIC "-//W3C//DTD SVG 1.1//EN"
  "http://www.w3.org/Graphics/SVG/1.1/DTD/svg11.dtd">
<svg height="345.6pt" version="1.1" viewBox="0 0 460.8 345.6" width="460.8pt" xmlns="http://www.w3.org/2000/svg" xmlns:xlink="http://www.w3.org/1999/xlink">
 <metadata>
  <rdf:RDF xmlns:cc="http://creativecommons.org/ns#" xmlns:dc="http://purl.org/dc/elements/1.1/" xmlns:rdf="http://www.w3.org/1999/02/22-rdf-syntax-ns#">
   <cc:Work>
    <dc:type rdf:resource="http://purl.org/dc/dcmitype/StillImage"/>
    <dc:date>2021-11-27T21:57:40.693085</dc:date>
    <dc:format>image/svg+xml</dc:format>
    <dc:creator>
     <cc:Agent>
      <dc:title>Matplotlib v3.4.3, https://matplotlib.org/</dc:title>
     </cc:Agent>
    </dc:creator>
   </cc:Work>
  </rdf:RDF>
 </metadata>
 <defs>
  <style type="text/css">*{stroke-linecap:butt;stroke-linejoin:round;}</style>
 </defs>
 <g id="figure_1">
  <g id="patch_1">
   <path d="M 0 345.6 
L 460.8 345.6 
L 460.8 0 
L 0 0 
z
" style="fill:#ffffff;"/>
  </g>
  <g id="axes_1">
   <g id="patch_2">
    <path d="M 57.6 307.584 
L 414.72 307.584 
L 414.72 41.472 
L 57.6 41.472 
z
" style="fill:#ffffff;"/>
   </g>
   <g id="matplotlib.axis_1">
    <g id="xtick_1">
     <g id="line2d_1">
      <defs>
       <path d="M 0 0 
L 0 3.5 
" id="m3d35d16ef9" style="stroke:#000000;stroke-width:0.8;"/>
      </defs>
      <g>
       <use style="stroke:#000000;stroke-width:0.8;" x="73.832727" xlink:href="#m3d35d16ef9" y="307.584"/>
      </g>
     </g>
     <g id="text_1">
      <!-- 0 -->
      <g transform="translate(70.651477 322.182437)scale(0.1 -0.1)">
       <defs>
        <path d="M 2034 4250 
Q 1547 4250 1301 3770 
Q 1056 3291 1056 2328 
Q 1056 1369 1301 889 
Q 1547 409 2034 409 
Q 2525 409 2770 889 
Q 3016 1369 3016 2328 
Q 3016 3291 2770 3770 
Q 2525 4250 2034 4250 
z
M 2034 4750 
Q 2819 4750 3233 4129 
Q 3647 3509 3647 2328 
Q 3647 1150 3233 529 
Q 2819 -91 2034 -91 
Q 1250 -91 836 529 
Q 422 1150 422 2328 
Q 422 3509 836 4129 
Q 1250 4750 2034 4750 
z
" id="DejaVuSans-30" transform="scale(0.015625)"/>
       </defs>
       <use xlink:href="#DejaVuSans-30"/>
      </g>
     </g>
    </g>
    <g id="xtick_2">
     <g id="line2d_2">
      <g>
       <use style="stroke:#000000;stroke-width:0.8;" x="118.428132" xlink:href="#m3d35d16ef9" y="307.584"/>
      </g>
     </g>
     <g id="text_2">
      <!-- 50 -->
      <g transform="translate(112.065632 322.182437)scale(0.1 -0.1)">
       <defs>
        <path d="M 691 4666 
L 3169 4666 
L 3169 4134 
L 1269 4134 
L 1269 2991 
Q 1406 3038 1543 3061 
Q 1681 3084 1819 3084 
Q 2600 3084 3056 2656 
Q 3513 2228 3513 1497 
Q 3513 744 3044 326 
Q 2575 -91 1722 -91 
Q 1428 -91 1123 -41 
Q 819 9 494 109 
L 494 744 
Q 775 591 1075 516 
Q 1375 441 1709 441 
Q 2250 441 2565 725 
Q 2881 1009 2881 1497 
Q 2881 1984 2565 2268 
Q 2250 2553 1709 2553 
Q 1456 2553 1204 2497 
Q 953 2441 691 2322 
L 691 4666 
z
" id="DejaVuSans-35" transform="scale(0.015625)"/>
       </defs>
       <use xlink:href="#DejaVuSans-35"/>
       <use x="63.623047" xlink:href="#DejaVuSans-30"/>
      </g>
     </g>
    </g>
    <g id="xtick_3">
     <g id="line2d_3">
      <g>
       <use style="stroke:#000000;stroke-width:0.8;" x="163.023536" xlink:href="#m3d35d16ef9" y="307.584"/>
      </g>
     </g>
     <g id="text_3">
      <!-- 100 -->
      <g transform="translate(153.479786 322.182437)scale(0.1 -0.1)">
       <defs>
        <path d="M 794 531 
L 1825 531 
L 1825 4091 
L 703 3866 
L 703 4441 
L 1819 4666 
L 2450 4666 
L 2450 531 
L 3481 531 
L 3481 0 
L 794 0 
L 794 531 
z
" id="DejaVuSans-31" transform="scale(0.015625)"/>
       </defs>
       <use xlink:href="#DejaVuSans-31"/>
       <use x="63.623047" xlink:href="#DejaVuSans-30"/>
       <use x="127.246094" xlink:href="#DejaVuSans-30"/>
      </g>
     </g>
    </g>
    <g id="xtick_4">
     <g id="line2d_4">
      <g>
       <use style="stroke:#000000;stroke-width:0.8;" x="207.618941" xlink:href="#m3d35d16ef9" y="307.584"/>
      </g>
     </g>
     <g id="text_4">
      <!-- 150 -->
      <g transform="translate(198.075191 322.182437)scale(0.1 -0.1)">
       <use xlink:href="#DejaVuSans-31"/>
       <use x="63.623047" xlink:href="#DejaVuSans-35"/>
       <use x="127.246094" xlink:href="#DejaVuSans-30"/>
      </g>
     </g>
    </g>
    <g id="xtick_5">
     <g id="line2d_5">
      <g>
       <use style="stroke:#000000;stroke-width:0.8;" x="252.214346" xlink:href="#m3d35d16ef9" y="307.584"/>
      </g>
     </g>
     <g id="text_5">
      <!-- 200 -->
      <g transform="translate(242.670596 322.182437)scale(0.1 -0.1)">
       <defs>
        <path d="M 1228 531 
L 3431 531 
L 3431 0 
L 469 0 
L 469 531 
Q 828 903 1448 1529 
Q 2069 2156 2228 2338 
Q 2531 2678 2651 2914 
Q 2772 3150 2772 3378 
Q 2772 3750 2511 3984 
Q 2250 4219 1831 4219 
Q 1534 4219 1204 4116 
Q 875 4013 500 3803 
L 500 4441 
Q 881 4594 1212 4672 
Q 1544 4750 1819 4750 
Q 2544 4750 2975 4387 
Q 3406 4025 3406 3419 
Q 3406 3131 3298 2873 
Q 3191 2616 2906 2266 
Q 2828 2175 2409 1742 
Q 1991 1309 1228 531 
z
" id="DejaVuSans-32" transform="scale(0.015625)"/>
       </defs>
       <use xlink:href="#DejaVuSans-32"/>
       <use x="63.623047" xlink:href="#DejaVuSans-30"/>
       <use x="127.246094" xlink:href="#DejaVuSans-30"/>
      </g>
     </g>
    </g>
    <g id="xtick_6">
     <g id="line2d_6">
      <g>
       <use style="stroke:#000000;stroke-width:0.8;" x="296.80975" xlink:href="#m3d35d16ef9" y="307.584"/>
      </g>
     </g>
     <g id="text_6">
      <!-- 250 -->
      <g transform="translate(287.266 322.182437)scale(0.1 -0.1)">
       <use xlink:href="#DejaVuSans-32"/>
       <use x="63.623047" xlink:href="#DejaVuSans-35"/>
       <use x="127.246094" xlink:href="#DejaVuSans-30"/>
      </g>
     </g>
    </g>
    <g id="xtick_7">
     <g id="line2d_7">
      <g>
       <use style="stroke:#000000;stroke-width:0.8;" x="341.405155" xlink:href="#m3d35d16ef9" y="307.584"/>
      </g>
     </g>
     <g id="text_7">
      <!-- 300 -->
      <g transform="translate(331.861405 322.182437)scale(0.1 -0.1)">
       <defs>
        <path d="M 2597 2516 
Q 3050 2419 3304 2112 
Q 3559 1806 3559 1356 
Q 3559 666 3084 287 
Q 2609 -91 1734 -91 
Q 1441 -91 1130 -33 
Q 819 25 488 141 
L 488 750 
Q 750 597 1062 519 
Q 1375 441 1716 441 
Q 2309 441 2620 675 
Q 2931 909 2931 1356 
Q 2931 1769 2642 2001 
Q 2353 2234 1838 2234 
L 1294 2234 
L 1294 2753 
L 1863 2753 
Q 2328 2753 2575 2939 
Q 2822 3125 2822 3475 
Q 2822 3834 2567 4026 
Q 2313 4219 1838 4219 
Q 1578 4219 1281 4162 
Q 984 4106 628 3988 
L 628 4550 
Q 988 4650 1302 4700 
Q 1616 4750 1894 4750 
Q 2613 4750 3031 4423 
Q 3450 4097 3450 3541 
Q 3450 3153 3228 2886 
Q 3006 2619 2597 2516 
z
" id="DejaVuSans-33" transform="scale(0.015625)"/>
       </defs>
       <use xlink:href="#DejaVuSans-33"/>
       <use x="63.623047" xlink:href="#DejaVuSans-30"/>
       <use x="127.246094" xlink:href="#DejaVuSans-30"/>
      </g>
     </g>
    </g>
    <g id="xtick_8">
     <g id="line2d_8">
      <g>
       <use style="stroke:#000000;stroke-width:0.8;" x="386.000559" xlink:href="#m3d35d16ef9" y="307.584"/>
      </g>
     </g>
     <g id="text_8">
      <!-- 350 -->
      <g transform="translate(376.456809 322.182437)scale(0.1 -0.1)">
       <use xlink:href="#DejaVuSans-33"/>
       <use x="63.623047" xlink:href="#DejaVuSans-35"/>
       <use x="127.246094" xlink:href="#DejaVuSans-30"/>
      </g>
     </g>
    </g>
    <g id="text_9">
     <!-- Time -->
     <g transform="translate(223.926406 335.860562)scale(0.1 -0.1)">
      <defs>
       <path d="M -19 4666 
L 3928 4666 
L 3928 4134 
L 2272 4134 
L 2272 0 
L 1638 0 
L 1638 4134 
L -19 4134 
L -19 4666 
z
" id="DejaVuSans-54" transform="scale(0.015625)"/>
       <path d="M 603 3500 
L 1178 3500 
L 1178 0 
L 603 0 
L 603 3500 
z
M 603 4863 
L 1178 4863 
L 1178 4134 
L 603 4134 
L 603 4863 
z
" id="DejaVuSans-69" transform="scale(0.015625)"/>
       <path d="M 3328 2828 
Q 3544 3216 3844 3400 
Q 4144 3584 4550 3584 
Q 5097 3584 5394 3201 
Q 5691 2819 5691 2113 
L 5691 0 
L 5113 0 
L 5113 2094 
Q 5113 2597 4934 2840 
Q 4756 3084 4391 3084 
Q 3944 3084 3684 2787 
Q 3425 2491 3425 1978 
L 3425 0 
L 2847 0 
L 2847 2094 
Q 2847 2600 2669 2842 
Q 2491 3084 2119 3084 
Q 1678 3084 1418 2786 
Q 1159 2488 1159 1978 
L 1159 0 
L 581 0 
L 581 3500 
L 1159 3500 
L 1159 2956 
Q 1356 3278 1631 3431 
Q 1906 3584 2284 3584 
Q 2666 3584 2933 3390 
Q 3200 3197 3328 2828 
z
" id="DejaVuSans-6d" transform="scale(0.015625)"/>
       <path d="M 3597 1894 
L 3597 1613 
L 953 1613 
Q 991 1019 1311 708 
Q 1631 397 2203 397 
Q 2534 397 2845 478 
Q 3156 559 3463 722 
L 3463 178 
Q 3153 47 2828 -22 
Q 2503 -91 2169 -91 
Q 1331 -91 842 396 
Q 353 884 353 1716 
Q 353 2575 817 3079 
Q 1281 3584 2069 3584 
Q 2775 3584 3186 3129 
Q 3597 2675 3597 1894 
z
M 3022 2063 
Q 3016 2534 2758 2815 
Q 2500 3097 2075 3097 
Q 1594 3097 1305 2825 
Q 1016 2553 972 2059 
L 3022 2063 
z
" id="DejaVuSans-65" transform="scale(0.015625)"/>
      </defs>
      <use xlink:href="#DejaVuSans-54"/>
      <use x="57.958984" xlink:href="#DejaVuSans-69"/>
      <use x="85.742188" xlink:href="#DejaVuSans-6d"/>
      <use x="183.154297" xlink:href="#DejaVuSans-65"/>
     </g>
    </g>
   </g>
   <g id="matplotlib.axis_2">
    <g id="ytick_1">
     <g id="line2d_9">
      <defs>
       <path d="M 0 0 
L -3.5 0 
" id="m4b02f43193" style="stroke:#000000;stroke-width:0.8;"/>
      </defs>
      <g>
       <use style="stroke:#000000;stroke-width:0.8;" x="57.6" xlink:href="#m4b02f43193" y="307.584"/>
      </g>
     </g>
     <g id="text_10">
      <!-- 0 -->
      <g transform="translate(44.2375 311.383219)scale(0.1 -0.1)">
       <use xlink:href="#DejaVuSans-30"/>
      </g>
     </g>
    </g>
    <g id="ytick_2">
     <g id="line2d_10">
      <g>
       <use style="stroke:#000000;stroke-width:0.8;" x="57.6" xlink:href="#m4b02f43193" y="273.180169"/>
      </g>
     </g>
     <g id="text_11">
      <!-- 2500 -->
      <g transform="translate(25.15 276.979388)scale(0.1 -0.1)">
       <use xlink:href="#DejaVuSans-32"/>
       <use x="63.623047" xlink:href="#DejaVuSans-35"/>
       <use x="127.246094" xlink:href="#DejaVuSans-30"/>
       <use x="190.869141" xlink:href="#DejaVuSans-30"/>
      </g>
     </g>
    </g>
    <g id="ytick_3">
     <g id="line2d_11">
      <g>
       <use style="stroke:#000000;stroke-width:0.8;" x="57.6" xlink:href="#m4b02f43193" y="238.776338"/>
      </g>
     </g>
     <g id="text_12">
      <!-- 5000 -->
      <g transform="translate(25.15 242.575557)scale(0.1 -0.1)">
       <use xlink:href="#DejaVuSans-35"/>
       <use x="63.623047" xlink:href="#DejaVuSans-30"/>
       <use x="127.246094" xlink:href="#DejaVuSans-30"/>
       <use x="190.869141" xlink:href="#DejaVuSans-30"/>
      </g>
     </g>
    </g>
    <g id="ytick_4">
     <g id="line2d_12">
      <g>
       <use style="stroke:#000000;stroke-width:0.8;" x="57.6" xlink:href="#m4b02f43193" y="204.372508"/>
      </g>
     </g>
     <g id="text_13">
      <!-- 7500 -->
      <g transform="translate(25.15 208.171726)scale(0.1 -0.1)">
       <defs>
        <path d="M 525 4666 
L 3525 4666 
L 3525 4397 
L 1831 0 
L 1172 0 
L 2766 4134 
L 525 4134 
L 525 4666 
z
" id="DejaVuSans-37" transform="scale(0.015625)"/>
       </defs>
       <use xlink:href="#DejaVuSans-37"/>
       <use x="63.623047" xlink:href="#DejaVuSans-35"/>
       <use x="127.246094" xlink:href="#DejaVuSans-30"/>
       <use x="190.869141" xlink:href="#DejaVuSans-30"/>
      </g>
     </g>
    </g>
    <g id="ytick_5">
     <g id="line2d_13">
      <g>
       <use style="stroke:#000000;stroke-width:0.8;" x="57.6" xlink:href="#m4b02f43193" y="169.968677"/>
      </g>
     </g>
     <g id="text_14">
      <!-- 10000 -->
      <g transform="translate(18.7875 173.767895)scale(0.1 -0.1)">
       <use xlink:href="#DejaVuSans-31"/>
       <use x="63.623047" xlink:href="#DejaVuSans-30"/>
       <use x="127.246094" xlink:href="#DejaVuSans-30"/>
       <use x="190.869141" xlink:href="#DejaVuSans-30"/>
       <use x="254.492188" xlink:href="#DejaVuSans-30"/>
      </g>
     </g>
    </g>
    <g id="ytick_6">
     <g id="line2d_14">
      <g>
       <use style="stroke:#000000;stroke-width:0.8;" x="57.6" xlink:href="#m4b02f43193" y="135.564846"/>
      </g>
     </g>
     <g id="text_15">
      <!-- 12500 -->
      <g transform="translate(18.7875 139.364065)scale(0.1 -0.1)">
       <use xlink:href="#DejaVuSans-31"/>
       <use x="63.623047" xlink:href="#DejaVuSans-32"/>
       <use x="127.246094" xlink:href="#DejaVuSans-35"/>
       <use x="190.869141" xlink:href="#DejaVuSans-30"/>
       <use x="254.492188" xlink:href="#DejaVuSans-30"/>
      </g>
     </g>
    </g>
    <g id="ytick_7">
     <g id="line2d_15">
      <g>
       <use style="stroke:#000000;stroke-width:0.8;" x="57.6" xlink:href="#m4b02f43193" y="101.161015"/>
      </g>
     </g>
     <g id="text_16">
      <!-- 15000 -->
      <g transform="translate(18.7875 104.960234)scale(0.1 -0.1)">
       <use xlink:href="#DejaVuSans-31"/>
       <use x="63.623047" xlink:href="#DejaVuSans-35"/>
       <use x="127.246094" xlink:href="#DejaVuSans-30"/>
       <use x="190.869141" xlink:href="#DejaVuSans-30"/>
       <use x="254.492188" xlink:href="#DejaVuSans-30"/>
      </g>
     </g>
    </g>
    <g id="ytick_8">
     <g id="line2d_16">
      <g>
       <use style="stroke:#000000;stroke-width:0.8;" x="57.6" xlink:href="#m4b02f43193" y="66.757184"/>
      </g>
     </g>
     <g id="text_17">
      <!-- 17500 -->
      <g transform="translate(18.7875 70.556403)scale(0.1 -0.1)">
       <use xlink:href="#DejaVuSans-31"/>
       <use x="63.623047" xlink:href="#DejaVuSans-37"/>
       <use x="127.246094" xlink:href="#DejaVuSans-35"/>
       <use x="190.869141" xlink:href="#DejaVuSans-30"/>
       <use x="254.492188" xlink:href="#DejaVuSans-30"/>
      </g>
     </g>
    </g>
    <g id="text_18">
     <!-- Stock Prices -->
     <g transform="translate(12.707812 204.757688)rotate(-90)scale(0.1 -0.1)">
      <defs>
       <path d="M 3425 4513 
L 3425 3897 
Q 3066 4069 2747 4153 
Q 2428 4238 2131 4238 
Q 1616 4238 1336 4038 
Q 1056 3838 1056 3469 
Q 1056 3159 1242 3001 
Q 1428 2844 1947 2747 
L 2328 2669 
Q 3034 2534 3370 2195 
Q 3706 1856 3706 1288 
Q 3706 609 3251 259 
Q 2797 -91 1919 -91 
Q 1588 -91 1214 -16 
Q 841 59 441 206 
L 441 856 
Q 825 641 1194 531 
Q 1563 422 1919 422 
Q 2459 422 2753 634 
Q 3047 847 3047 1241 
Q 3047 1584 2836 1778 
Q 2625 1972 2144 2069 
L 1759 2144 
Q 1053 2284 737 2584 
Q 422 2884 422 3419 
Q 422 4038 858 4394 
Q 1294 4750 2059 4750 
Q 2388 4750 2728 4690 
Q 3069 4631 3425 4513 
z
" id="DejaVuSans-53" transform="scale(0.015625)"/>
       <path d="M 1172 4494 
L 1172 3500 
L 2356 3500 
L 2356 3053 
L 1172 3053 
L 1172 1153 
Q 1172 725 1289 603 
Q 1406 481 1766 481 
L 2356 481 
L 2356 0 
L 1766 0 
Q 1100 0 847 248 
Q 594 497 594 1153 
L 594 3053 
L 172 3053 
L 172 3500 
L 594 3500 
L 594 4494 
L 1172 4494 
z
" id="DejaVuSans-74" transform="scale(0.015625)"/>
       <path d="M 1959 3097 
Q 1497 3097 1228 2736 
Q 959 2375 959 1747 
Q 959 1119 1226 758 
Q 1494 397 1959 397 
Q 2419 397 2687 759 
Q 2956 1122 2956 1747 
Q 2956 2369 2687 2733 
Q 2419 3097 1959 3097 
z
M 1959 3584 
Q 2709 3584 3137 3096 
Q 3566 2609 3566 1747 
Q 3566 888 3137 398 
Q 2709 -91 1959 -91 
Q 1206 -91 779 398 
Q 353 888 353 1747 
Q 353 2609 779 3096 
Q 1206 3584 1959 3584 
z
" id="DejaVuSans-6f" transform="scale(0.015625)"/>
       <path d="M 3122 3366 
L 3122 2828 
Q 2878 2963 2633 3030 
Q 2388 3097 2138 3097 
Q 1578 3097 1268 2742 
Q 959 2388 959 1747 
Q 959 1106 1268 751 
Q 1578 397 2138 397 
Q 2388 397 2633 464 
Q 2878 531 3122 666 
L 3122 134 
Q 2881 22 2623 -34 
Q 2366 -91 2075 -91 
Q 1284 -91 818 406 
Q 353 903 353 1747 
Q 353 2603 823 3093 
Q 1294 3584 2113 3584 
Q 2378 3584 2631 3529 
Q 2884 3475 3122 3366 
z
" id="DejaVuSans-63" transform="scale(0.015625)"/>
       <path d="M 581 4863 
L 1159 4863 
L 1159 1991 
L 2875 3500 
L 3609 3500 
L 1753 1863 
L 3688 0 
L 2938 0 
L 1159 1709 
L 1159 0 
L 581 0 
L 581 4863 
z
" id="DejaVuSans-6b" transform="scale(0.015625)"/>
       <path id="DejaVuSans-20" transform="scale(0.015625)"/>
       <path d="M 1259 4147 
L 1259 2394 
L 2053 2394 
Q 2494 2394 2734 2622 
Q 2975 2850 2975 3272 
Q 2975 3691 2734 3919 
Q 2494 4147 2053 4147 
L 1259 4147 
z
M 628 4666 
L 2053 4666 
Q 2838 4666 3239 4311 
Q 3641 3956 3641 3272 
Q 3641 2581 3239 2228 
Q 2838 1875 2053 1875 
L 1259 1875 
L 1259 0 
L 628 0 
L 628 4666 
z
" id="DejaVuSans-50" transform="scale(0.015625)"/>
       <path d="M 2631 2963 
Q 2534 3019 2420 3045 
Q 2306 3072 2169 3072 
Q 1681 3072 1420 2755 
Q 1159 2438 1159 1844 
L 1159 0 
L 581 0 
L 581 3500 
L 1159 3500 
L 1159 2956 
Q 1341 3275 1631 3429 
Q 1922 3584 2338 3584 
Q 2397 3584 2469 3576 
Q 2541 3569 2628 3553 
L 2631 2963 
z
" id="DejaVuSans-72" transform="scale(0.015625)"/>
       <path d="M 2834 3397 
L 2834 2853 
Q 2591 2978 2328 3040 
Q 2066 3103 1784 3103 
Q 1356 3103 1142 2972 
Q 928 2841 928 2578 
Q 928 2378 1081 2264 
Q 1234 2150 1697 2047 
L 1894 2003 
Q 2506 1872 2764 1633 
Q 3022 1394 3022 966 
Q 3022 478 2636 193 
Q 2250 -91 1575 -91 
Q 1294 -91 989 -36 
Q 684 19 347 128 
L 347 722 
Q 666 556 975 473 
Q 1284 391 1588 391 
Q 1994 391 2212 530 
Q 2431 669 2431 922 
Q 2431 1156 2273 1281 
Q 2116 1406 1581 1522 
L 1381 1569 
Q 847 1681 609 1914 
Q 372 2147 372 2553 
Q 372 3047 722 3315 
Q 1072 3584 1716 3584 
Q 2034 3584 2315 3537 
Q 2597 3491 2834 3397 
z
" id="DejaVuSans-73" transform="scale(0.015625)"/>
      </defs>
      <use xlink:href="#DejaVuSans-53"/>
      <use x="63.476562" xlink:href="#DejaVuSans-74"/>
      <use x="102.685547" xlink:href="#DejaVuSans-6f"/>
      <use x="163.867188" xlink:href="#DejaVuSans-63"/>
      <use x="218.847656" xlink:href="#DejaVuSans-6b"/>
      <use x="276.757812" xlink:href="#DejaVuSans-20"/>
      <use x="308.544922" xlink:href="#DejaVuSans-50"/>
      <use x="367.097656" xlink:href="#DejaVuSans-72"/>
      <use x="408.210938" xlink:href="#DejaVuSans-69"/>
      <use x="435.994141" xlink:href="#DejaVuSans-63"/>
      <use x="490.974609" xlink:href="#DejaVuSans-65"/>
      <use x="552.498047" xlink:href="#DejaVuSans-73"/>
     </g>
    </g>
   </g>
   <g id="line2d_17">
    <path clip-path="url(#p42bf87dd3e)" d="M 73.832727 166.387926 
L 74.724635 164.164062 
L 76.508452 160.829643 
L 77.40036 162.496165 
L 78.292268 161.940199 
L 79.184176 165.275994 
L 80.076084 170.279687 
L 80.967992 173.614107 
L 81.8599 170.279687 
L 82.751808 171.946209 
L 83.643716 171.391619 
L 84.535624 169.723721 
L 85.427532 170.279687 
L 86.319441 170.279687 
L 87.211349 165.83196 
L 88.103257 168.61179 
L 88.995165 169.167755 
L 89.887073 169.167755 
L 90.778981 169.723721 
L 91.670889 169.167755 
L 92.562797 164.720028 
L 94.346613 165.83196 
L 95.238521 169.167755 
L 96.13043 168.61179 
L 97.022338 175.83797 
L 97.914246 184.732049 
L 98.806154 179.729732 
L 99.698062 185.288014 
L 100.58997 184.176083 
L 101.481878 186.399946 
L 102.373786 183.064151 
L 103.265694 180.841663 
L 104.157602 179.173766 
L 105.04951 179.729732 
L 105.941419 180.841663 
L 106.833327 179.173766 
L 107.725235 179.729732 
L 108.617143 174.170072 
L 109.509051 174.726038 
L 110.400959 171.391619 
L 111.292867 169.723721 
L 113.968591 173.058141 
L 115.752408 169.723721 
L 116.644316 171.391619 
L 117.536224 170.835653 
L 118.428132 166.387926 
L 119.32004 168.055824 
L 120.211948 168.055824 
L 121.103856 168.61179 
L 121.995764 168.61179 
L 125.563397 166.387926 
L 126.455305 167.499858 
L 127.347213 168.055824 
L 128.239121 164.582413 
L 129.131029 165.739758 
L 130.022937 166.319118 
L 130.914845 165.160397 
L 131.806753 165.739758 
L 132.698661 166.897103 
L 133.590569 166.897103 
L 134.482478 164.003052 
L 135.374386 164.003052 
L 136.266294 165.739758 
L 137.158202 165.160397 
L 138.05011 167.476463 
L 138.942018 166.897103 
L 139.833926 165.739758 
L 140.725834 166.897103 
L 141.617742 163.423692 
L 142.50965 162.266347 
L 143.401558 164.582413 
L 144.293467 166.319118 
L 145.185375 165.739758 
L 146.077283 166.897103 
L 146.969191 166.897103 
L 147.861099 165.739758 
L 148.753007 166.319118 
L 149.644915 165.160397 
L 150.536823 162.903506 
L 151.428731 163.51039 
L 152.320639 165.335169 
L 153.212547 165.335169 
L 154.104456 165.942052 
L 154.996364 167.158572 
L 155.888272 170.805378 
L 156.78018 176.276963 
L 158.563996 175.060444 
L 159.455904 173.8453 
L 160.347812 173.8453 
L 161.23972 171.413638 
L 162.131628 173.8453 
L 163.023536 173.8453 
L 163.915445 170.805378 
L 164.807353 171.413638 
L 165.699261 170.197118 
L 166.591169 170.197118 
L 168.374985 171.413638 
L 169.266893 168.373715 
L 170.158801 167.765455 
L 171.050709 158.04018 
L 172.834525 158.04018 
L 173.726434 160.471843 
L 174.618342 161.078727 
L 175.51025 159.255324 
L 176.402158 158.647064 
L 177.294066 153.176855 
L 178.185974 154.391998 
L 179.077882 150.745192 
L 179.96979 150.745192 
L 180.861698 151.960335 
L 181.753606 150.136932 
L 182.645514 150.745192 
L 183.537423 146.490126 
L 184.429331 151.352076 
L 186.213147 148.920413 
L 187.105055 145.881867 
L 187.996963 145.273607 
L 188.888871 147.09701 
L 189.780779 145.273607 
L 190.672687 134.331813 
L 191.564595 131.90015 
L 192.456503 136.155216 
L 193.348412 143.450204 
L 194.24032 137.370359 
L 195.132228 136.155216 
L 196.024136 137.370359 
L 196.916044 131.90015 
L 197.807952 132.507033 
L 198.69986 130.68363 
L 199.591768 131.29189 
L 200.483676 130.68363 
L 201.375584 122.781758 
L 202.267493 123.388642 
L 203.159401 115.48677 
L 204.051309 119.133576 
L 204.943217 120.350096 
L 205.835125 119.741836 
L 206.727033 117.918433 
L 207.618941 119.741836 
L 208.510849 132.507033 
L 209.402757 134.331813 
L 210.294665 128.860227 
L 211.186573 131.90015 
L 212.078482 128.860227 
L 212.97039 132.507033 
L 213.862298 138.586878 
L 214.754206 150.136932 
L 215.646114 148.313529 
L 216.538022 159.255324 
L 217.42993 155.608518 
L 218.321838 145.881867 
L 219.213746 145.881867 
L 220.105654 146.490126 
L 220.997562 151.352076 
L 221.889471 149.528673 
L 222.781379 141.626801 
L 223.673287 135.546956 
L 224.565195 133.723553 
L 225.457103 132.507033 
L 226.349011 134.331813 
L 227.240919 137.370359 
L 228.132827 133.723553 
L 229.024735 133.723553 
L 229.916643 127.036824 
L 230.808551 127.645084 
L 231.70046 127.645084 
L 232.592368 133.723553 
L 233.484276 130.076747 
L 234.376184 128.860227 
L 235.268092 128.860227 
L 236.16 116.701913 
L 237.051908 110.623445 
L 237.943816 111.231704 
L 238.835724 103.936716 
L 239.727632 100.896794 
L 240.61954 105.760119 
L 241.511449 104.5436 
L 243.295265 104.5436 
L 244.187173 108.800042 
L 245.079081 116.701913 
L 245.970989 114.270251 
L 246.862897 113.661991 
L 247.754805 110.015185 
L 248.646713 107.583522 
L 249.538621 105.760119 
L 250.430529 105.151859 
L 251.322438 105.151859 
L 252.214346 106.368379 
L 253.106254 108.191782 
L 253.998162 106.975262 
L 254.89007 103.328456 
L 255.781978 94.818325 
L 256.673886 94.818325 
L 257.565794 100.896794 
L 258.457702 90.561883 
L 259.34961 89.954999 
L 260.241518 90.561883 
L 261.133427 91.778402 
L 262.025335 94.818325 
L 262.917243 109.406925 
L 263.809151 103.936716 
L 264.701059 113.055107 
L 265.592967 104.5436 
L 266.484875 104.5436 
L 267.376783 107.583522 
L 268.268691 113.055107 
L 269.160599 109.406925 
L 270.944416 120.956979 
L 271.836324 116.701913 
L 272.728232 116.701913 
L 273.62014 115.48677 
L 274.512048 119.133576 
L 275.403956 118.525316 
L 276.295864 121.565239 
L 277.187772 123.388642 
L 278.07968 123.996902 
L 278.971588 127.036824 
L 279.863497 121.565239 
L 280.755405 117.918433 
L 281.647313 116.093654 
L 282.539221 119.133576 
L 283.431129 123.388642 
L 284.323037 120.956979 
L 286.106853 123.388642 
L 286.998761 122.781758 
L 287.890669 110.015185 
L 288.782577 109.406925 
L 289.674486 113.055107 
L 290.566394 119.741836 
L 291.458302 119.133576 
L 292.35021 116.701913 
L 293.242118 111.838588 
L 294.134026 111.231704 
L 295.025934 97.856871 
L 295.917842 89.954999 
L 296.80975 74.756763 
L 297.701658 71.109957 
L 298.593566 65.638372 
L 299.485475 70.501697 
L 300.377383 76.580166 
L 301.269291 75.973282 
L 302.161199 82.660011 
L 303.053107 67.461775 
L 303.945015 58.343383 
L 304.836923 70.501697 
L 305.728831 71.109957 
L 306.620739 80.835232 
L 307.512647 82.051751 
L 308.404555 97.248611 
L 309.296464 97.248611 
L 311.08028 111.838588 
L 311.972188 120.350096 
L 312.864096 114.270251 
L 313.756004 118.525316 
L 314.647912 113.661991 
L 315.53982 116.093654 
L 316.431728 127.645084 
L 317.323636 119.741836 
L 318.215544 119.741836 
L 319.107453 113.661991 
L 319.999361 118.525316 
L 320.891269 119.741836 
L 321.783177 113.055107 
L 322.675085 109.406925 
L 323.566993 111.231704 
L 324.458901 111.231704 
L 325.350809 110.015185 
L 326.242717 110.015185 
L 327.134625 110.623445 
L 328.026533 107.583522 
L 328.918442 100.288534 
L 329.81035 97.856871 
L 330.702258 96.641728 
L 331.594166 100.896794 
L 332.486074 97.856871 
L 333.377982 96.641728 
L 334.26989 88.73848 
L 335.161798 92.386662 
L 336.053706 92.993546 
L 336.945614 85.698557 
L 337.837522 96.033468 
L 338.729431 103.328456 
L 339.621339 103.328456 
L 340.513247 99.680274 
L 341.405155 99.073391 
L 342.297063 90.561883 
L 343.188971 92.386662 
L 344.080879 91.778402 
L 344.972787 84.647176 
L 345.864695 78.454487 
L 346.756603 87.399483 
L 347.648511 88.775636 
L 348.54042 85.335253 
L 349.432328 83.271023 
L 351.216144 90.151789 
L 352.108052 86.023329 
L 352.99996 87.399483 
L 353.891868 79.83064 
L 354.783776 84.647176 
L 355.675684 86.711406 
L 356.567592 80.518717 
L 357.4595 79.142563 
L 358.351409 83.271023 
L 359.243317 93.592172 
L 360.135225 90.839866 
L 361.027133 91.527942 
L 361.919041 91.527942 
L 362.810949 93.592172 
L 363.702857 91.527942 
L 364.594765 87.399483 
L 365.486673 86.023329 
L 366.378581 79.83064 
L 367.27049 84.647176 
L 368.162398 84.647176 
L 369.054306 83.9591 
L 369.946214 83.9591 
L 370.838122 79.83064 
L 372.621938 85.335253 
L 373.513846 86.023329 
L 375.297662 88.775636 
L 376.18957 85.335253 
L 377.081479 85.335253 
L 377.973387 84.647176 
L 378.865295 72.261797 
L 379.757203 75.014104 
L 380.649111 70.885644 
L 381.541019 66.069108 
L 382.432927 66.757184 
L 383.324835 77.76641 
L 384.216743 79.142563 
L 385.108651 73.63795 
L 386.000559 70.197567 
L 386.892468 72.261797 
L 387.784376 57.812188 
L 388.676284 59.876418 
L 389.568192 55.747958 
L 390.4601 54.371805 
L 391.352008 62.628724 
L 392.243916 61.252571 
L 393.135824 51.619499 
L 394.027732 66.757184 
L 394.91964 79.142563 
L 395.811548 72.261797 
L 396.703457 73.63795 
L 397.595365 72.261797 
L 398.487273 75.014104 
L 398.487273 75.014104 
" style="fill:none;stroke:#ff0000;stroke-linecap:square;stroke-width:1.5;"/>
   </g>
   <g id="line2d_18">
    <path clip-path="url(#p42bf87dd3e)" d="M 73.832727 171.190107 
L 74.724635 170.525105 
L 75.616543 168.93636 
L 77.40036 163.044368 
L 78.292268 161.669666 
L 80.076084 166.103353 
L 82.751808 173.799207 
L 83.643716 174.694325 
L 84.535624 174.466238 
L 85.427532 173.637966 
L 86.319441 172.356558 
L 87.211349 172.094645 
L 88.995165 170.33032 
L 89.887073 170.098255 
L 90.778981 170.935156 
L 91.670889 171.519712 
L 92.562797 171.466157 
L 93.454705 167.778429 
L 94.346613 165.919211 
L 95.238521 166.581055 
L 96.13043 167.469803 
L 97.914246 171.163672 
L 99.698062 180.514848 
L 100.58997 183.664035 
L 101.481878 185.856366 
L 102.373786 187.427882 
L 103.265694 187.646333 
L 104.157602 185.976645 
L 105.04951 183.389396 
L 105.941419 181.783476 
L 107.725235 181.814144 
L 108.617143 182.156247 
L 109.509051 179.061945 
L 110.400959 176.444445 
L 111.292867 171.90955 
L 112.184775 170.78523 
L 113.076683 172.322114 
L 113.968591 173.514919 
L 114.8605 173.647508 
L 115.752408 173.98656 
L 116.644316 172.869229 
L 117.536224 172.570265 
L 118.428132 173.109115 
L 119.32004 171.757891 
L 121.103856 170.899945 
L 122.887672 172.688313 
L 123.77958 173.082277 
L 124.671489 171.420989 
L 125.563397 170.27987 
L 127.347213 170.444874 
L 128.239121 169.986336 
L 129.131029 169.087777 
L 130.022937 168.635716 
L 130.914845 168.484057 
L 131.806753 167.891814 
L 132.698661 168.363509 
L 133.590569 168.129752 
L 134.482478 168.940808 
L 135.374386 168.317481 
L 136.266294 166.614505 
L 137.158202 166.882021 
L 138.05011 167.814191 
L 138.942018 167.568364 
L 139.833926 168.929358 
L 140.725834 169.670331 
L 141.617742 169.009576 
L 142.50965 166.284725 
L 143.401558 164.097959 
L 144.293467 164.827857 
L 146.077283 168.09981 
L 146.969191 168.864771 
L 147.861099 169.331453 
L 148.753007 169.199684 
L 150.536823 168.075176 
L 151.428731 166.491847 
L 152.320639 165.774554 
L 153.212547 165.850041 
L 154.996364 167.929873 
L 156.78018 168.666989 
L 157.672088 170.874425 
L 158.563996 174.171239 
L 159.455904 176.691535 
L 160.347812 177.822225 
L 161.23972 177.51556 
L 162.131628 175.802021 
L 163.023536 174.527171 
L 163.915445 174.628716 
L 164.807353 173.899959 
L 165.699261 172.642929 
L 166.591169 172.001688 
L 167.483077 172.037624 
L 168.374985 172.344718 
L 169.266893 172.259475 
L 170.158801 171.588197 
L 171.050709 170.518197 
L 171.942617 164.468378 
L 172.834525 156.877508 
L 173.726434 155.887377 
L 174.618342 157.680945 
L 175.51025 160.394144 
L 176.402158 161.620103 
L 177.294066 161.590779 
L 178.185974 156.941693 
L 179.077882 155.389381 
L 179.96979 153.526011 
L 180.861698 153.425904 
L 181.753606 152.076239 
L 182.645514 151.326155 
L 183.537423 151.964292 
L 184.429331 150.181811 
L 185.321239 149.60009 
L 186.213147 151.566955 
L 187.105055 151.526718 
L 187.996963 149.700654 
L 188.888871 147.585316 
L 189.780779 146.198089 
L 190.672687 147.154327 
L 191.564595 142.43181 
L 192.456503 136.908006 
L 193.348412 134.862295 
L 194.24032 136.365608 
L 195.132228 139.710655 
L 196.024136 139.490404 
L 196.916044 137.856383 
L 197.807952 134.920553 
L 198.69986 133.877432 
L 199.591768 131.13249 
L 200.483676 131.578141 
L 201.375584 130.59528 
L 203.159401 125.242057 
L 204.051309 120.734537 
L 204.943217 118.044077 
L 205.835125 117.51798 
L 206.727033 117.905185 
L 207.618941 117.807403 
L 208.510849 118.027359 
L 209.402757 119.814423 
L 210.294665 127.535449 
L 211.186573 132.016171 
L 212.078482 132.228722 
L 212.97039 130.297243 
L 213.862298 130.355501 
L 214.754206 132.231894 
L 215.646114 138.761822 
L 216.538022 147.555804 
L 218.321838 156.908942 
L 219.213746 156.74285 
L 220.997562 148.850584 
L 221.889471 148.229729 
L 222.781379 150.218378 
L 223.673287 149.807346 
L 224.565195 144.585315 
L 225.457103 138.246624 
L 226.349011 132.73083 
L 227.240919 132.350077 
L 229.024735 137.13784 
L 229.916643 138.410822 
L 231.70046 129.795323 
L 232.592368 128.27028 
L 233.484276 128.714532 
L 234.376184 131.050727 
L 236.16 131.429855 
L 237.051908 122.316213 
L 237.943816 111.673132 
L 238.835724 110.176015 
L 239.727632 104.979545 
L 240.61954 101.35545 
L 241.511449 100.626277 
L 242.403357 100.390275 
L 243.295265 101.8485 
L 245.079081 103.449676 
L 245.970989 107.364657 
L 246.862897 112.584068 
L 247.754805 115.353576 
L 248.646713 113.393324 
L 249.538621 109.612289 
L 250.430529 107.796493 
L 251.322438 106.819048 
L 252.214346 104.724365 
L 253.106254 104.752331 
L 253.998162 106.815742 
L 254.89007 108.489985 
L 255.781978 104.26627 
L 256.673886 96.735244 
L 257.565794 94.64927 
L 258.457702 93.757888 
L 260.241518 90.417357 
L 261.133427 92.227254 
L 262.025335 90.41647 
L 262.917243 90.825379 
L 263.809151 95.743272 
L 264.701059 101.33458 
L 265.592967 105.77008 
L 266.484875 103.642364 
L 267.376783 102.068819 
L 268.268691 104.353032 
L 269.160599 108.841455 
L 270.052507 108.985669 
L 270.944416 110.075881 
L 271.836324 113.144595 
L 272.728232 116.865759 
L 273.62014 118.941802 
L 274.512048 118.364691 
L 275.403956 116.841246 
L 276.295864 116.667803 
L 277.187772 118.47348 
L 278.07968 121.528594 
L 278.971588 123.068178 
L 279.863497 124.933807 
L 280.755405 124.638834 
L 281.647313 120.246124 
L 282.539221 118.246562 
L 283.431129 118.872725 
L 284.323037 120.759507 
L 285.214945 121.96137 
L 286.106853 124.010467 
L 286.998761 123.89512 
L 287.890669 124.067905 
L 288.782577 115.598784 
L 289.674486 109.968732 
L 290.566394 111.133946 
L 291.458302 112.629035 
L 292.35021 116.522581 
L 293.242118 119.057323 
L 294.134026 116.156529 
L 295.025934 112.009269 
L 295.917842 95.615265 
L 296.80975 89.288589 
L 297.701658 75.869173 
L 298.593566 71.384123 
L 299.485475 69.997702 
L 300.377383 63.064497 
L 301.269291 65.209334 
L 302.161199 68.472511 
L 303.053107 70.319325 
L 303.945015 68.480332 
L 304.836923 59.136386 
L 306.620739 68.679068 
L 307.512647 66.048519 
L 308.404555 75.542498 
L 309.296464 78.52566 
L 312.864096 101.390661 
L 313.756004 110.548503 
L 314.647912 115.262796 
L 315.53982 115.939772 
L 316.431728 115.012293 
L 317.323636 117.531554 
L 318.215544 123.126383 
L 319.107453 124.10837 
L 319.999361 121.461399 
L 320.891269 119.501294 
L 321.783177 122.693902 
L 322.675085 117.358406 
L 323.566993 115.036819 
L 324.458901 114.664613 
L 325.350809 114.424458 
L 326.242717 109.948627 
L 327.134625 110.629823 
L 328.026533 111.848337 
L 328.918442 111.535584 
L 329.81035 100.379833 
L 330.702258 99.971207 
L 331.594166 98.582408 
L 332.486074 94.827794 
L 333.377982 96.665711 
L 334.26989 98.219555 
L 335.161798 89.312 
L 336.053706 89.26835 
L 336.945614 91.466459 
L 337.837522 85.85764 
L 338.729431 81.527098 
L 339.621339 91.782638 
L 340.513247 99.853266 
L 341.405155 102.432116 
L 342.297063 99.927853 
L 343.188971 92.620869 
L 344.080879 88.565799 
L 344.972787 86.158795 
L 345.864695 84.979563 
L 346.756603 80.397147 
L 347.648511 79.014758 
L 348.54042 84.629598 
L 349.432328 86.74456 
L 350.324236 83.046404 
L 351.216144 81.963274 
L 352.108052 82.667625 
L 352.99996 85.104908 
L 353.891868 85.455075 
L 354.783776 77.828337 
L 355.675684 79.983629 
L 356.567592 83.387633 
L 357.4595 82.158892 
L 358.351409 74.240662 
L 359.243317 78.505689 
L 360.135225 79.347132 
L 361.027133 85.653905 
L 361.919041 90.525864 
L 362.810949 90.618445 
L 363.702857 88.41531 
L 364.594765 89.689138 
L 365.486673 87.234815 
L 366.378581 85.162306 
L 367.27049 79.643515 
L 368.162398 82.667437 
L 369.054306 83.429751 
L 369.946214 82.044392 
L 370.838122 82.258327 
L 371.73003 75.575854 
L 372.621938 77.947326 
L 373.513846 80.766908 
L 374.405754 82.588255 
L 375.297662 82.969438 
L 376.18957 84.673221 
L 377.081479 84.93516 
L 377.973387 82.198053 
L 378.865295 83.539749 
L 379.757203 69.177117 
L 380.649111 72.896817 
L 381.541019 71.636024 
L 382.432927 63.691319 
L 383.324835 64.619846 
L 384.216743 61.596448 
L 385.108651 71.046966 
L 386.000559 72.207181 
L 386.892468 67.73393 
L 387.784376 64.934587 
L 388.676284 57.528948 
L 389.568192 58.918298 
L 390.4601 57.085568 
L 391.352008 50.728869 
L 392.243916 52.054089 
L 393.135824 56.215017 
L 394.027732 51.949722 
L 394.91964 48.432683 
L 396.703457 67.32982 
L 397.595365 66.407501 
L 398.487273 66.899234 
L 398.487273 66.899234 
" style="fill:none;stroke:#0000ff;stroke-linecap:square;stroke-width:1.5;"/>
   </g>
   <g id="patch_3">
    <path d="M 57.6 307.584 
L 57.6 41.472 
" style="fill:none;stroke:#000000;stroke-linecap:square;stroke-linejoin:miter;stroke-width:0.8;"/>
   </g>
   <g id="patch_4">
    <path d="M 414.72 307.584 
L 414.72 41.472 
" style="fill:none;stroke:#000000;stroke-linecap:square;stroke-linejoin:miter;stroke-width:0.8;"/>
   </g>
   <g id="patch_5">
    <path d="M 57.6 307.584 
L 414.72 307.584 
" style="fill:none;stroke:#000000;stroke-linecap:square;stroke-linejoin:miter;stroke-width:0.8;"/>
   </g>
   <g id="patch_6">
    <path d="M 57.6 41.472 
L 414.72 41.472 
" style="fill:none;stroke:#000000;stroke-linecap:square;stroke-linejoin:miter;stroke-width:0.8;"/>
   </g>
   <g id="text_19">
    <!-- AAA Prices -->
    <g transform="translate(203.847187 35.472)scale(0.12 -0.12)">
     <defs>
      <path d="M 2188 4044 
L 1331 1722 
L 3047 1722 
L 2188 4044 
z
M 1831 4666 
L 2547 4666 
L 4325 0 
L 3669 0 
L 3244 1197 
L 1141 1197 
L 716 0 
L 50 0 
L 1831 4666 
z
" id="DejaVuSans-41" transform="scale(0.015625)"/>
     </defs>
     <use xlink:href="#DejaVuSans-41"/>
     <use x="71.158203" xlink:href="#DejaVuSans-41"/>
     <use x="142.316406" xlink:href="#DejaVuSans-41"/>
     <use x="210.724609" xlink:href="#DejaVuSans-20"/>
     <use x="242.511719" xlink:href="#DejaVuSans-50"/>
     <use x="301.064453" xlink:href="#DejaVuSans-72"/>
     <use x="342.177734" xlink:href="#DejaVuSans-69"/>
     <use x="369.960938" xlink:href="#DejaVuSans-63"/>
     <use x="424.941406" xlink:href="#DejaVuSans-65"/>
     <use x="486.464844" xlink:href="#DejaVuSans-73"/>
    </g>
   </g>
   <g id="legend_1">
    <g id="patch_7">
     <path d="M 64.6 78.82825 
L 200.573437 78.82825 
Q 202.573437 78.82825 202.573437 76.82825 
L 202.573437 48.472 
Q 202.573437 46.472 200.573437 46.472 
L 64.6 46.472 
Q 62.6 46.472 62.6 48.472 
L 62.6 76.82825 
Q 62.6 78.82825 64.6 78.82825 
z
" style="fill:#ffffff;opacity:0.8;stroke:#cccccc;stroke-linejoin:miter;"/>
    </g>
    <g id="line2d_19">
     <path d="M 66.6 54.570437 
L 86.6 54.570437 
" style="fill:none;stroke:#ff0000;stroke-linecap:square;stroke-width:1.5;"/>
    </g>
    <g id="line2d_20"/>
    <g id="text_20">
     <!-- Real AAA Prices -->
     <g transform="translate(94.6 58.070437)scale(0.1 -0.1)">
      <defs>
       <path d="M 2841 2188 
Q 3044 2119 3236 1894 
Q 3428 1669 3622 1275 
L 4263 0 
L 3584 0 
L 2988 1197 
Q 2756 1666 2539 1819 
Q 2322 1972 1947 1972 
L 1259 1972 
L 1259 0 
L 628 0 
L 628 4666 
L 2053 4666 
Q 2853 4666 3247 4331 
Q 3641 3997 3641 3322 
Q 3641 2881 3436 2590 
Q 3231 2300 2841 2188 
z
M 1259 4147 
L 1259 2491 
L 2053 2491 
Q 2509 2491 2742 2702 
Q 2975 2913 2975 3322 
Q 2975 3731 2742 3939 
Q 2509 4147 2053 4147 
L 1259 4147 
z
" id="DejaVuSans-52" transform="scale(0.015625)"/>
       <path d="M 2194 1759 
Q 1497 1759 1228 1600 
Q 959 1441 959 1056 
Q 959 750 1161 570 
Q 1363 391 1709 391 
Q 2188 391 2477 730 
Q 2766 1069 2766 1631 
L 2766 1759 
L 2194 1759 
z
M 3341 1997 
L 3341 0 
L 2766 0 
L 2766 531 
Q 2569 213 2275 61 
Q 1981 -91 1556 -91 
Q 1019 -91 701 211 
Q 384 513 384 1019 
Q 384 1609 779 1909 
Q 1175 2209 1959 2209 
L 2766 2209 
L 2766 2266 
Q 2766 2663 2505 2880 
Q 2244 3097 1772 3097 
Q 1472 3097 1187 3025 
Q 903 2953 641 2809 
L 641 3341 
Q 956 3463 1253 3523 
Q 1550 3584 1831 3584 
Q 2591 3584 2966 3190 
Q 3341 2797 3341 1997 
z
" id="DejaVuSans-61" transform="scale(0.015625)"/>
       <path d="M 603 4863 
L 1178 4863 
L 1178 0 
L 603 0 
L 603 4863 
z
" id="DejaVuSans-6c" transform="scale(0.015625)"/>
      </defs>
      <use xlink:href="#DejaVuSans-52"/>
      <use x="64.982422" xlink:href="#DejaVuSans-65"/>
      <use x="126.505859" xlink:href="#DejaVuSans-61"/>
      <use x="187.785156" xlink:href="#DejaVuSans-6c"/>
      <use x="215.568359" xlink:href="#DejaVuSans-20"/>
      <use x="247.355469" xlink:href="#DejaVuSans-41"/>
      <use x="318.513672" xlink:href="#DejaVuSans-41"/>
      <use x="389.671875" xlink:href="#DejaVuSans-41"/>
      <use x="458.080078" xlink:href="#DejaVuSans-20"/>
      <use x="489.867188" xlink:href="#DejaVuSans-50"/>
      <use x="548.419922" xlink:href="#DejaVuSans-72"/>
      <use x="589.533203" xlink:href="#DejaVuSans-69"/>
      <use x="617.316406" xlink:href="#DejaVuSans-63"/>
      <use x="672.296875" xlink:href="#DejaVuSans-65"/>
      <use x="733.820312" xlink:href="#DejaVuSans-73"/>
     </g>
    </g>
    <g id="line2d_21">
     <path d="M 66.6 69.248562 
L 86.6 69.248562 
" style="fill:none;stroke:#0000ff;stroke-linecap:square;stroke-width:1.5;"/>
    </g>
    <g id="line2d_22"/>
    <g id="text_21">
     <!-- Predicted AAA Prices -->
     <g transform="translate(94.6 72.748562)scale(0.1 -0.1)">
      <defs>
       <path d="M 2906 2969 
L 2906 4863 
L 3481 4863 
L 3481 0 
L 2906 0 
L 2906 525 
Q 2725 213 2448 61 
Q 2172 -91 1784 -91 
Q 1150 -91 751 415 
Q 353 922 353 1747 
Q 353 2572 751 3078 
Q 1150 3584 1784 3584 
Q 2172 3584 2448 3432 
Q 2725 3281 2906 2969 
z
M 947 1747 
Q 947 1113 1208 752 
Q 1469 391 1925 391 
Q 2381 391 2643 752 
Q 2906 1113 2906 1747 
Q 2906 2381 2643 2742 
Q 2381 3103 1925 3103 
Q 1469 3103 1208 2742 
Q 947 2381 947 1747 
z
" id="DejaVuSans-64" transform="scale(0.015625)"/>
      </defs>
      <use xlink:href="#DejaVuSans-50"/>
      <use x="58.552734" xlink:href="#DejaVuSans-72"/>
      <use x="97.416016" xlink:href="#DejaVuSans-65"/>
      <use x="158.939453" xlink:href="#DejaVuSans-64"/>
      <use x="222.416016" xlink:href="#DejaVuSans-69"/>
      <use x="250.199219" xlink:href="#DejaVuSans-63"/>
      <use x="305.179688" xlink:href="#DejaVuSans-74"/>
      <use x="344.388672" xlink:href="#DejaVuSans-65"/>
      <use x="405.912109" xlink:href="#DejaVuSans-64"/>
      <use x="469.388672" xlink:href="#DejaVuSans-20"/>
      <use x="501.175781" xlink:href="#DejaVuSans-41"/>
      <use x="572.333984" xlink:href="#DejaVuSans-41"/>
      <use x="643.492188" xlink:href="#DejaVuSans-41"/>
      <use x="711.900391" xlink:href="#DejaVuSans-20"/>
      <use x="743.6875" xlink:href="#DejaVuSans-50"/>
      <use x="802.240234" xlink:href="#DejaVuSans-72"/>
      <use x="843.353516" xlink:href="#DejaVuSans-69"/>
      <use x="871.136719" xlink:href="#DejaVuSans-63"/>
      <use x="926.117188" xlink:href="#DejaVuSans-65"/>
      <use x="987.640625" xlink:href="#DejaVuSans-73"/>
     </g>
    </g>
   </g>
  </g>
 </g>
 <defs>
  <clipPath id="p42bf87dd3e">
   <rect height="266.112" width="357.12" x="57.6" y="41.472"/>
  </clipPath>
 </defs>
</svg>
