<?xml version="1.0" encoding="utf-8" standalone="no"?>
<!DOCTYPE svg PUBLIC "-//W3C//DTD SVG 1.1//EN"
  "http://www.w3.org/Graphics/SVG/1.1/DTD/svg11.dtd">
<svg height="345.6pt" version="1.1" viewBox="0 0 460.8 345.6" width="460.8pt" xmlns="http://www.w3.org/2000/svg" xmlns:xlink="http://www.w3.org/1999/xlink">
 <metadata>
  <rdf:RDF xmlns:cc="http://creativecommons.org/ns#" xmlns:dc="http://purl.org/dc/elements/1.1/" xmlns:rdf="http://www.w3.org/1999/02/22-rdf-syntax-ns#">
   <cc:Work>
    <dc:type rdf:resource="http://purl.org/dc/dcmitype/StillImage"/>
    <dc:date>2021-11-27T22:03:53.070727</dc:date>
    <dc:format>image/svg+xml</dc:format>
    <dc:creator>
     <cc:Agent>
      <dc:title>Matplotlib v3.4.3, https://matplotlib.org/</dc:title>
     </cc:Agent>
    </dc:creator>
   </cc:Work>
  </rdf:RDF>
 </metadata>
 <defs>
  <style type="text/css">*{stroke-linecap:butt;stroke-linejoin:round;}</style>
 </defs>
 <g id="figure_1">
  <g id="patch_1">
   <path d="M 0 345.6 
L 460.8 345.6 
L 460.8 0 
L 0 0 
z
" style="fill:#ffffff;"/>
  </g>
  <g id="axes_1">
   <g id="patch_2">
    <path d="M 57.6 307.584 
L 414.72 307.584 
L 414.72 41.472 
L 57.6 41.472 
z
" style="fill:#ffffff;"/>
   </g>
   <g id="matplotlib.axis_1">
    <g id="xtick_1">
     <g id="line2d_1">
      <defs>
       <path d="M 0 0 
L 0 3.5 
" id="m6f4a5cb889" style="stroke:#000000;stroke-width:0.8;"/>
      </defs>
      <g>
       <use style="stroke:#000000;stroke-width:0.8;" x="73.832727" xlink:href="#m6f4a5cb889" y="307.584"/>
      </g>
     </g>
     <g id="text_1">
      <!-- 0 -->
      <g transform="translate(70.651477 322.182437)scale(0.1 -0.1)">
       <defs>
        <path d="M 2034 4250 
Q 1547 4250 1301 3770 
Q 1056 3291 1056 2328 
Q 1056 1369 1301 889 
Q 1547 409 2034 409 
Q 2525 409 2770 889 
Q 3016 1369 3016 2328 
Q 3016 3291 2770 3770 
Q 2525 4250 2034 4250 
z
M 2034 4750 
Q 2819 4750 3233 4129 
Q 3647 3509 3647 2328 
Q 3647 1150 3233 529 
Q 2819 -91 2034 -91 
Q 1250 -91 836 529 
Q 422 1150 422 2328 
Q 422 3509 836 4129 
Q 1250 4750 2034 4750 
z
" id="DejaVuSans-30" transform="scale(0.015625)"/>
       </defs>
       <use xlink:href="#DejaVuSans-30"/>
      </g>
     </g>
    </g>
    <g id="xtick_2">
     <g id="line2d_2">
      <g>
       <use style="stroke:#000000;stroke-width:0.8;" x="118.428132" xlink:href="#m6f4a5cb889" y="307.584"/>
      </g>
     </g>
     <g id="text_2">
      <!-- 50 -->
      <g transform="translate(112.065632 322.182437)scale(0.1 -0.1)">
       <defs>
        <path d="M 691 4666 
L 3169 4666 
L 3169 4134 
L 1269 4134 
L 1269 2991 
Q 1406 3038 1543 3061 
Q 1681 3084 1819 3084 
Q 2600 3084 3056 2656 
Q 3513 2228 3513 1497 
Q 3513 744 3044 326 
Q 2575 -91 1722 -91 
Q 1428 -91 1123 -41 
Q 819 9 494 109 
L 494 744 
Q 775 591 1075 516 
Q 1375 441 1709 441 
Q 2250 441 2565 725 
Q 2881 1009 2881 1497 
Q 2881 1984 2565 2268 
Q 2250 2553 1709 2553 
Q 1456 2553 1204 2497 
Q 953 2441 691 2322 
L 691 4666 
z
" id="DejaVuSans-35" transform="scale(0.015625)"/>
       </defs>
       <use xlink:href="#DejaVuSans-35"/>
       <use x="63.623047" xlink:href="#DejaVuSans-30"/>
      </g>
     </g>
    </g>
    <g id="xtick_3">
     <g id="line2d_3">
      <g>
       <use style="stroke:#000000;stroke-width:0.8;" x="163.023536" xlink:href="#m6f4a5cb889" y="307.584"/>
      </g>
     </g>
     <g id="text_3">
      <!-- 100 -->
      <g transform="translate(153.479786 322.182437)scale(0.1 -0.1)">
       <defs>
        <path d="M 794 531 
L 1825 531 
L 1825 4091 
L 703 3866 
L 703 4441 
L 1819 4666 
L 2450 4666 
L 2450 531 
L 3481 531 
L 3481 0 
L 794 0 
L 794 531 
z
" id="DejaVuSans-31" transform="scale(0.015625)"/>
       </defs>
       <use xlink:href="#DejaVuSans-31"/>
       <use x="63.623047" xlink:href="#DejaVuSans-30"/>
       <use x="127.246094" xlink:href="#DejaVuSans-30"/>
      </g>
     </g>
    </g>
    <g id="xtick_4">
     <g id="line2d_4">
      <g>
       <use style="stroke:#000000;stroke-width:0.8;" x="207.618941" xlink:href="#m6f4a5cb889" y="307.584"/>
      </g>
     </g>
     <g id="text_4">
      <!-- 150 -->
      <g transform="translate(198.075191 322.182437)scale(0.1 -0.1)">
       <use xlink:href="#DejaVuSans-31"/>
       <use x="63.623047" xlink:href="#DejaVuSans-35"/>
       <use x="127.246094" xlink:href="#DejaVuSans-30"/>
      </g>
     </g>
    </g>
    <g id="xtick_5">
     <g id="line2d_5">
      <g>
       <use style="stroke:#000000;stroke-width:0.8;" x="252.214346" xlink:href="#m6f4a5cb889" y="307.584"/>
      </g>
     </g>
     <g id="text_5">
      <!-- 200 -->
      <g transform="translate(242.670596 322.182437)scale(0.1 -0.1)">
       <defs>
        <path d="M 1228 531 
L 3431 531 
L 3431 0 
L 469 0 
L 469 531 
Q 828 903 1448 1529 
Q 2069 2156 2228 2338 
Q 2531 2678 2651 2914 
Q 2772 3150 2772 3378 
Q 2772 3750 2511 3984 
Q 2250 4219 1831 4219 
Q 1534 4219 1204 4116 
Q 875 4013 500 3803 
L 500 4441 
Q 881 4594 1212 4672 
Q 1544 4750 1819 4750 
Q 2544 4750 2975 4387 
Q 3406 4025 3406 3419 
Q 3406 3131 3298 2873 
Q 3191 2616 2906 2266 
Q 2828 2175 2409 1742 
Q 1991 1309 1228 531 
z
" id="DejaVuSans-32" transform="scale(0.015625)"/>
       </defs>
       <use xlink:href="#DejaVuSans-32"/>
       <use x="63.623047" xlink:href="#DejaVuSans-30"/>
       <use x="127.246094" xlink:href="#DejaVuSans-30"/>
      </g>
     </g>
    </g>
    <g id="xtick_6">
     <g id="line2d_6">
      <g>
       <use style="stroke:#000000;stroke-width:0.8;" x="296.80975" xlink:href="#m6f4a5cb889" y="307.584"/>
      </g>
     </g>
     <g id="text_6">
      <!-- 250 -->
      <g transform="translate(287.266 322.182437)scale(0.1 -0.1)">
       <use xlink:href="#DejaVuSans-32"/>
       <use x="63.623047" xlink:href="#DejaVuSans-35"/>
       <use x="127.246094" xlink:href="#DejaVuSans-30"/>
      </g>
     </g>
    </g>
    <g id="xtick_7">
     <g id="line2d_7">
      <g>
       <use style="stroke:#000000;stroke-width:0.8;" x="341.405155" xlink:href="#m6f4a5cb889" y="307.584"/>
      </g>
     </g>
     <g id="text_7">
      <!-- 300 -->
      <g transform="translate(331.861405 322.182437)scale(0.1 -0.1)">
       <defs>
        <path d="M 2597 2516 
Q 3050 2419 3304 2112 
Q 3559 1806 3559 1356 
Q 3559 666 3084 287 
Q 2609 -91 1734 -91 
Q 1441 -91 1130 -33 
Q 819 25 488 141 
L 488 750 
Q 750 597 1062 519 
Q 1375 441 1716 441 
Q 2309 441 2620 675 
Q 2931 909 2931 1356 
Q 2931 1769 2642 2001 
Q 2353 2234 1838 2234 
L 1294 2234 
L 1294 2753 
L 1863 2753 
Q 2328 2753 2575 2939 
Q 2822 3125 2822 3475 
Q 2822 3834 2567 4026 
Q 2313 4219 1838 4219 
Q 1578 4219 1281 4162 
Q 984 4106 628 3988 
L 628 4550 
Q 988 4650 1302 4700 
Q 1616 4750 1894 4750 
Q 2613 4750 3031 4423 
Q 3450 4097 3450 3541 
Q 3450 3153 3228 2886 
Q 3006 2619 2597 2516 
z
" id="DejaVuSans-33" transform="scale(0.015625)"/>
       </defs>
       <use xlink:href="#DejaVuSans-33"/>
       <use x="63.623047" xlink:href="#DejaVuSans-30"/>
       <use x="127.246094" xlink:href="#DejaVuSans-30"/>
      </g>
     </g>
    </g>
    <g id="xtick_8">
     <g id="line2d_8">
      <g>
       <use style="stroke:#000000;stroke-width:0.8;" x="386.000559" xlink:href="#m6f4a5cb889" y="307.584"/>
      </g>
     </g>
     <g id="text_8">
      <!-- 350 -->
      <g transform="translate(376.456809 322.182437)scale(0.1 -0.1)">
       <use xlink:href="#DejaVuSans-33"/>
       <use x="63.623047" xlink:href="#DejaVuSans-35"/>
       <use x="127.246094" xlink:href="#DejaVuSans-30"/>
      </g>
     </g>
    </g>
    <g id="text_9">
     <!-- Time -->
     <g transform="translate(223.926406 335.860562)scale(0.1 -0.1)">
      <defs>
       <path d="M -19 4666 
L 3928 4666 
L 3928 4134 
L 2272 4134 
L 2272 0 
L 1638 0 
L 1638 4134 
L -19 4134 
L -19 4666 
z
" id="DejaVuSans-54" transform="scale(0.015625)"/>
       <path d="M 603 3500 
L 1178 3500 
L 1178 0 
L 603 0 
L 603 3500 
z
M 603 4863 
L 1178 4863 
L 1178 4134 
L 603 4134 
L 603 4863 
z
" id="DejaVuSans-69" transform="scale(0.015625)"/>
       <path d="M 3328 2828 
Q 3544 3216 3844 3400 
Q 4144 3584 4550 3584 
Q 5097 3584 5394 3201 
Q 5691 2819 5691 2113 
L 5691 0 
L 5113 0 
L 5113 2094 
Q 5113 2597 4934 2840 
Q 4756 3084 4391 3084 
Q 3944 3084 3684 2787 
Q 3425 2491 3425 1978 
L 3425 0 
L 2847 0 
L 2847 2094 
Q 2847 2600 2669 2842 
Q 2491 3084 2119 3084 
Q 1678 3084 1418 2786 
Q 1159 2488 1159 1978 
L 1159 0 
L 581 0 
L 581 3500 
L 1159 3500 
L 1159 2956 
Q 1356 3278 1631 3431 
Q 1906 3584 2284 3584 
Q 2666 3584 2933 3390 
Q 3200 3197 3328 2828 
z
" id="DejaVuSans-6d" transform="scale(0.015625)"/>
       <path d="M 3597 1894 
L 3597 1613 
L 953 1613 
Q 991 1019 1311 708 
Q 1631 397 2203 397 
Q 2534 397 2845 478 
Q 3156 559 3463 722 
L 3463 178 
Q 3153 47 2828 -22 
Q 2503 -91 2169 -91 
Q 1331 -91 842 396 
Q 353 884 353 1716 
Q 353 2575 817 3079 
Q 1281 3584 2069 3584 
Q 2775 3584 3186 3129 
Q 3597 2675 3597 1894 
z
M 3022 2063 
Q 3016 2534 2758 2815 
Q 2500 3097 2075 3097 
Q 1594 3097 1305 2825 
Q 1016 2553 972 2059 
L 3022 2063 
z
" id="DejaVuSans-65" transform="scale(0.015625)"/>
      </defs>
      <use xlink:href="#DejaVuSans-54"/>
      <use x="57.958984" xlink:href="#DejaVuSans-69"/>
      <use x="85.742188" xlink:href="#DejaVuSans-6d"/>
      <use x="183.154297" xlink:href="#DejaVuSans-65"/>
     </g>
    </g>
   </g>
   <g id="matplotlib.axis_2">
    <g id="ytick_1">
     <g id="line2d_9">
      <defs>
       <path d="M 0 0 
L -3.5 0 
" id="m6755e144eb" style="stroke:#000000;stroke-width:0.8;"/>
      </defs>
      <g>
       <use style="stroke:#000000;stroke-width:0.8;" x="57.6" xlink:href="#m6755e144eb" y="307.584"/>
      </g>
     </g>
     <g id="text_10">
      <!-- 0 -->
      <g transform="translate(44.2375 311.383219)scale(0.1 -0.1)">
       <use xlink:href="#DejaVuSans-30"/>
      </g>
     </g>
    </g>
    <g id="ytick_2">
     <g id="line2d_10">
      <g>
       <use style="stroke:#000000;stroke-width:0.8;" x="57.6" xlink:href="#m6755e144eb" y="273.560894"/>
      </g>
     </g>
     <g id="text_11">
      <!-- 50 -->
      <g transform="translate(37.875 277.360113)scale(0.1 -0.1)">
       <use xlink:href="#DejaVuSans-35"/>
       <use x="63.623047" xlink:href="#DejaVuSans-30"/>
      </g>
     </g>
    </g>
    <g id="ytick_3">
     <g id="line2d_11">
      <g>
       <use style="stroke:#000000;stroke-width:0.8;" x="57.6" xlink:href="#m6755e144eb" y="239.537788"/>
      </g>
     </g>
     <g id="text_12">
      <!-- 100 -->
      <g transform="translate(31.5125 243.337006)scale(0.1 -0.1)">
       <use xlink:href="#DejaVuSans-31"/>
       <use x="63.623047" xlink:href="#DejaVuSans-30"/>
       <use x="127.246094" xlink:href="#DejaVuSans-30"/>
      </g>
     </g>
    </g>
    <g id="ytick_4">
     <g id="line2d_12">
      <g>
       <use style="stroke:#000000;stroke-width:0.8;" x="57.6" xlink:href="#m6755e144eb" y="205.514682"/>
      </g>
     </g>
     <g id="text_13">
      <!-- 150 -->
      <g transform="translate(31.5125 209.3139)scale(0.1 -0.1)">
       <use xlink:href="#DejaVuSans-31"/>
       <use x="63.623047" xlink:href="#DejaVuSans-35"/>
       <use x="127.246094" xlink:href="#DejaVuSans-30"/>
      </g>
     </g>
    </g>
    <g id="ytick_5">
     <g id="line2d_13">
      <g>
       <use style="stroke:#000000;stroke-width:0.8;" x="57.6" xlink:href="#m6755e144eb" y="171.491575"/>
      </g>
     </g>
     <g id="text_14">
      <!-- 200 -->
      <g transform="translate(31.5125 175.290794)scale(0.1 -0.1)">
       <use xlink:href="#DejaVuSans-32"/>
       <use x="63.623047" xlink:href="#DejaVuSans-30"/>
       <use x="127.246094" xlink:href="#DejaVuSans-30"/>
      </g>
     </g>
    </g>
    <g id="ytick_6">
     <g id="line2d_14">
      <g>
       <use style="stroke:#000000;stroke-width:0.8;" x="57.6" xlink:href="#m6755e144eb" y="137.468469"/>
      </g>
     </g>
     <g id="text_15">
      <!-- 250 -->
      <g transform="translate(31.5125 141.267688)scale(0.1 -0.1)">
       <use xlink:href="#DejaVuSans-32"/>
       <use x="63.623047" xlink:href="#DejaVuSans-35"/>
       <use x="127.246094" xlink:href="#DejaVuSans-30"/>
      </g>
     </g>
    </g>
    <g id="ytick_7">
     <g id="line2d_15">
      <g>
       <use style="stroke:#000000;stroke-width:0.8;" x="57.6" xlink:href="#m6755e144eb" y="103.445363"/>
      </g>
     </g>
     <g id="text_16">
      <!-- 300 -->
      <g transform="translate(31.5125 107.244582)scale(0.1 -0.1)">
       <use xlink:href="#DejaVuSans-33"/>
       <use x="63.623047" xlink:href="#DejaVuSans-30"/>
       <use x="127.246094" xlink:href="#DejaVuSans-30"/>
      </g>
     </g>
    </g>
    <g id="ytick_8">
     <g id="line2d_16">
      <g>
       <use style="stroke:#000000;stroke-width:0.8;" x="57.6" xlink:href="#m6755e144eb" y="69.422257"/>
      </g>
     </g>
     <g id="text_17">
      <!-- 350 -->
      <g transform="translate(31.5125 73.221476)scale(0.1 -0.1)">
       <use xlink:href="#DejaVuSans-33"/>
       <use x="63.623047" xlink:href="#DejaVuSans-35"/>
       <use x="127.246094" xlink:href="#DejaVuSans-30"/>
      </g>
     </g>
    </g>
    <g id="text_18">
     <!-- Stock Prices -->
     <g transform="translate(25.432812 204.757688)rotate(-90)scale(0.1 -0.1)">
      <defs>
       <path d="M 3425 4513 
L 3425 3897 
Q 3066 4069 2747 4153 
Q 2428 4238 2131 4238 
Q 1616 4238 1336 4038 
Q 1056 3838 1056 3469 
Q 1056 3159 1242 3001 
Q 1428 2844 1947 2747 
L 2328 2669 
Q 3034 2534 3370 2195 
Q 3706 1856 3706 1288 
Q 3706 609 3251 259 
Q 2797 -91 1919 -91 
Q 1588 -91 1214 -16 
Q 841 59 441 206 
L 441 856 
Q 825 641 1194 531 
Q 1563 422 1919 422 
Q 2459 422 2753 634 
Q 3047 847 3047 1241 
Q 3047 1584 2836 1778 
Q 2625 1972 2144 2069 
L 1759 2144 
Q 1053 2284 737 2584 
Q 422 2884 422 3419 
Q 422 4038 858 4394 
Q 1294 4750 2059 4750 
Q 2388 4750 2728 4690 
Q 3069 4631 3425 4513 
z
" id="DejaVuSans-53" transform="scale(0.015625)"/>
       <path d="M 1172 4494 
L 1172 3500 
L 2356 3500 
L 2356 3053 
L 1172 3053 
L 1172 1153 
Q 1172 725 1289 603 
Q 1406 481 1766 481 
L 2356 481 
L 2356 0 
L 1766 0 
Q 1100 0 847 248 
Q 594 497 594 1153 
L 594 3053 
L 172 3053 
L 172 3500 
L 594 3500 
L 594 4494 
L 1172 4494 
z
" id="DejaVuSans-74" transform="scale(0.015625)"/>
       <path d="M 1959 3097 
Q 1497 3097 1228 2736 
Q 959 2375 959 1747 
Q 959 1119 1226 758 
Q 1494 397 1959 397 
Q 2419 397 2687 759 
Q 2956 1122 2956 1747 
Q 2956 2369 2687 2733 
Q 2419 3097 1959 3097 
z
M 1959 3584 
Q 2709 3584 3137 3096 
Q 3566 2609 3566 1747 
Q 3566 888 3137 398 
Q 2709 -91 1959 -91 
Q 1206 -91 779 398 
Q 353 888 353 1747 
Q 353 2609 779 3096 
Q 1206 3584 1959 3584 
z
" id="DejaVuSans-6f" transform="scale(0.015625)"/>
       <path d="M 3122 3366 
L 3122 2828 
Q 2878 2963 2633 3030 
Q 2388 3097 2138 3097 
Q 1578 3097 1268 2742 
Q 959 2388 959 1747 
Q 959 1106 1268 751 
Q 1578 397 2138 397 
Q 2388 397 2633 464 
Q 2878 531 3122 666 
L 3122 134 
Q 2881 22 2623 -34 
Q 2366 -91 2075 -91 
Q 1284 -91 818 406 
Q 353 903 353 1747 
Q 353 2603 823 3093 
Q 1294 3584 2113 3584 
Q 2378 3584 2631 3529 
Q 2884 3475 3122 3366 
z
" id="DejaVuSans-63" transform="scale(0.015625)"/>
       <path d="M 581 4863 
L 1159 4863 
L 1159 1991 
L 2875 3500 
L 3609 3500 
L 1753 1863 
L 3688 0 
L 2938 0 
L 1159 1709 
L 1159 0 
L 581 0 
L 581 4863 
z
" id="DejaVuSans-6b" transform="scale(0.015625)"/>
       <path id="DejaVuSans-20" transform="scale(0.015625)"/>
       <path d="M 1259 4147 
L 1259 2394 
L 2053 2394 
Q 2494 2394 2734 2622 
Q 2975 2850 2975 3272 
Q 2975 3691 2734 3919 
Q 2494 4147 2053 4147 
L 1259 4147 
z
M 628 4666 
L 2053 4666 
Q 2838 4666 3239 4311 
Q 3641 3956 3641 3272 
Q 3641 2581 3239 2228 
Q 2838 1875 2053 1875 
L 1259 1875 
L 1259 0 
L 628 0 
L 628 4666 
z
" id="DejaVuSans-50" transform="scale(0.015625)"/>
       <path d="M 2631 2963 
Q 2534 3019 2420 3045 
Q 2306 3072 2169 3072 
Q 1681 3072 1420 2755 
Q 1159 2438 1159 1844 
L 1159 0 
L 581 0 
L 581 3500 
L 1159 3500 
L 1159 2956 
Q 1341 3275 1631 3429 
Q 1922 3584 2338 3584 
Q 2397 3584 2469 3576 
Q 2541 3569 2628 3553 
L 2631 2963 
z
" id="DejaVuSans-72" transform="scale(0.015625)"/>
       <path d="M 2834 3397 
L 2834 2853 
Q 2591 2978 2328 3040 
Q 2066 3103 1784 3103 
Q 1356 3103 1142 2972 
Q 928 2841 928 2578 
Q 928 2378 1081 2264 
Q 1234 2150 1697 2047 
L 1894 2003 
Q 2506 1872 2764 1633 
Q 3022 1394 3022 966 
Q 3022 478 2636 193 
Q 2250 -91 1575 -91 
Q 1294 -91 989 -36 
Q 684 19 347 128 
L 347 722 
Q 666 556 975 473 
Q 1284 391 1588 391 
Q 1994 391 2212 530 
Q 2431 669 2431 922 
Q 2431 1156 2273 1281 
Q 2116 1406 1581 1522 
L 1381 1569 
Q 847 1681 609 1914 
Q 372 2147 372 2553 
Q 372 3047 722 3315 
Q 1072 3584 1716 3584 
Q 2034 3584 2315 3537 
Q 2597 3491 2834 3397 
z
" id="DejaVuSans-73" transform="scale(0.015625)"/>
      </defs>
      <use xlink:href="#DejaVuSans-53"/>
      <use x="63.476562" xlink:href="#DejaVuSans-74"/>
      <use x="102.685547" xlink:href="#DejaVuSans-6f"/>
      <use x="163.867188" xlink:href="#DejaVuSans-63"/>
      <use x="218.847656" xlink:href="#DejaVuSans-6b"/>
      <use x="276.757812" xlink:href="#DejaVuSans-20"/>
      <use x="308.544922" xlink:href="#DejaVuSans-50"/>
      <use x="367.097656" xlink:href="#DejaVuSans-72"/>
      <use x="408.210938" xlink:href="#DejaVuSans-69"/>
      <use x="435.994141" xlink:href="#DejaVuSans-63"/>
      <use x="490.974609" xlink:href="#DejaVuSans-65"/>
      <use x="552.498047" xlink:href="#DejaVuSans-73"/>
     </g>
    </g>
   </g>
   <g id="line2d_17">
    <path clip-path="url(#p7163c3642b)" d="M 73.832727 147.035767 
L 74.724635 145.09645 
L 75.616543 144.803851 
L 76.508452 142.748855 
L 77.40036 148.342254 
L 78.292268 147.212687 
L 79.184176 160.549744 
L 80.076084 157.446837 
L 80.967992 153.071466 
L 81.8599 145.940223 
L 82.751808 148.750531 
L 83.643716 144.082561 
L 84.535624 143.687893 
L 85.427532 141.837036 
L 86.319441 141.211011 
L 87.211349 140.823147 
L 88.103257 144.953553 
L 89.887073 144.082561 
L 90.778981 143.640261 
L 91.670889 142.891752 
L 92.562797 140.584986 
L 93.454705 143.082282 
L 94.346613 144.361551 
L 95.238521 149.30851 
L 96.13043 150.594584 
L 97.022338 148.696094 
L 97.914246 150.996056 
L 98.806154 148.838991 
L 99.698062 148.015632 
L 100.58997 134.971173 
L 101.481878 136.134763 
L 102.373786 137.584148 
L 103.265694 138.067276 
L 104.157602 127.071008 
L 105.04951 124.920748 
L 105.941419 128.622462 
L 106.833327 133.297236 
L 107.725235 130.738699 
L 108.617143 129.779247 
L 110.400959 129.874512 
L 111.292867 129.071567 
L 112.184775 128.901451 
L 113.076683 124.532884 
L 113.968591 125.893808 
L 114.8605 122.913384 
L 115.752408 116.496627 
L 116.644316 100.784756 
L 117.536224 108.058896 
L 118.428132 107.759493 
L 119.32004 108.072505 
L 120.211948 106.54827 
L 121.103856 101.744208 
L 121.995764 109.487867 
L 122.887672 115.196944 
L 123.77958 123.069891 
L 124.671489 121.327908 
L 125.563397 125.158909 
L 126.455305 126.165993 
L 127.347213 126.479006 
L 128.239121 122.212508 
L 130.022937 134.188642 
L 130.914845 135.7469 
L 131.806753 138.727324 
L 132.698661 134.236274 
L 133.590569 138.135322 
L 134.482478 137.788286 
L 135.374386 134.188642 
L 136.266294 132.827718 
L 137.158202 129.445821 
L 138.05011 129.37097 
L 138.942018 126.152384 
L 139.833926 130.704676 
L 140.725834 127.499699 
L 141.617742 131.575667 
L 142.50965 131.943117 
L 143.401558 128.10531 
L 144.293467 127.635792 
L 145.185375 119.94657 
L 146.077283 119.681189 
L 146.969191 122.620786 
L 147.861099 126.091143 
L 148.753007 126.628708 
L 149.644915 129.711201 
L 150.536823 125.519554 
L 151.428731 117.918792 
L 152.320639 118.333874 
L 153.212547 113.795192 
L 154.104456 119.021141 
L 154.996364 114.815885 
L 155.888272 125.444703 
L 156.78018 116.489822 
L 157.672088 128.547611 
L 158.563996 129.738419 
L 159.455904 127.057399 
L 160.347812 112.032795 
L 161.23972 107.065422 
L 162.131628 107.929608 
L 163.023536 117.891574 
L 163.915445 122.205704 
L 164.807353 119.449832 
L 165.699261 120.402479 
L 167.483077 117.762286 
L 168.374985 120.456916 
L 169.266893 122.518716 
L 170.158801 121.858668 
L 171.050709 124.063365 
L 171.942617 124.927552 
L 172.834525 119.150429 
L 173.726434 120.055443 
L 174.618342 118.544818 
L 175.51025 119.116406 
L 176.402158 112.597579 
L 177.294066 111.93753 
L 178.185974 115.795751 
L 179.077882 117.258744 
L 179.96979 113.257627 
L 180.861698 114.741034 
L 181.753606 118.469967 
L 182.645514 119.014336 
L 183.537423 121.443586 
L 184.429331 121.00809 
L 185.321239 120.082662 
L 186.213147 120.001007 
L 187.105055 120.810756 
L 187.996963 119.504269 
L 188.888871 121.960737 
L 189.780779 125.839372 
L 190.672687 125.1453 
L 191.564595 125.628428 
L 192.456503 119.095992 
L 193.348412 119.245694 
L 194.24032 122.586763 
L 195.132228 121.708966 
L 196.024136 124.580517 
L 196.916044 123.199178 
L 197.807952 128.411518 
L 198.69986 124.716609 
L 199.591768 125.51275 
L 200.483676 132.814108 
L 201.375584 136.726765 
L 202.267493 136.352511 
L 203.159401 140.435284 
L 204.051309 136.543041 
L 204.943217 129.91534 
L 205.835125 125.573991 
L 206.727033 121.9063 
L 207.618941 120.797147 
L 208.510849 118.408725 
L 209.402757 115.659658 
L 210.294665 122.403038 
L 212.078482 131.80022 
L 212.97039 129.296119 
L 213.862298 125.846176 
L 214.754206 126.138775 
L 215.646114 126.247649 
L 216.538022 125.152105 
L 217.42993 126.186407 
L 218.321838 124.233481 
L 219.213746 122.586763 
L 220.105654 123.593847 
L 220.997562 123.518996 
L 221.889471 121.157792 
L 222.781379 121.429977 
L 223.673287 124.274309 
L 224.565195 129.602327 
L 225.457103 130.439295 
L 226.349011 126.67634 
L 227.240919 127.731056 
L 228.132827 134.277102 
L 229.024735 132.283348 
L 229.916643 127.322779 
L 230.808551 131.34431 
L 231.70046 133.787169 
L 232.592368 132.269739 
L 233.484276 127.75147 
L 234.376184 133.855215 
L 235.268092 126.757995 
L 236.16 127.329584 
L 237.051908 121.219034 
L 237.943816 124.947966 
L 240.61954 114.325952 
L 241.511449 117.993643 
L 242.403357 110.175133 
L 243.295265 107.841148 
L 244.187173 109.821293 
L 245.079081 115.598417 
L 245.970989 117.911988 
L 246.862897 114.99961 
L 247.754805 109.692005 
L 248.646713 111.610909 
L 249.538621 107.167491 
L 250.430529 104.357182 
L 251.322438 97.382446 
L 252.214346 99.18567 
L 253.106254 94.538114 
L 253.998162 94.585746 
L 254.89007 94.966805 
L 255.781978 95.59283 
L 256.673886 96.804053 
L 257.565794 101.52646 
L 258.457702 98.124149 
L 259.34961 99.240107 
L 260.241518 101.921128 
L 261.133427 101.642138 
L 262.025335 102.445084 
L 262.917243 105.813371 
L 263.809151 102.676441 
L 264.701059 101.376758 
L 265.592967 101.016113 
L 266.484875 98.614082 
L 267.376783 83.364926 
L 268.268691 86.379373 
L 269.160599 88.080528 
L 270.052507 90.952078 
L 270.944416 93.224822 
L 271.836324 89.822511 
L 272.728232 90.462146 
L 273.62014 99.383004 
L 274.512048 99.001945 
L 275.403956 101.710185 
L 276.295864 99.866132 
L 277.187772 92.598797 
L 278.07968 92.925419 
L 278.971588 96.66796 
L 279.863497 94.197883 
L 280.755405 90.781963 
L 281.647313 92.401463 
L 282.539221 86.685581 
L 283.431129 84.535321 
L 284.323037 84.623781 
L 285.214945 81.160229 
L 286.106853 83.895686 
L 286.998761 83.623501 
L 287.890669 83.609892 
L 288.782577 85.726129 
L 289.674486 82.793338 
L 290.566394 78.554059 
L 291.458302 80.527399 
L 292.35021 82.861384 
L 293.242118 81.357563 
L 294.134026 82.174117 
L 295.025934 78.424771 
L 295.917842 78.43838 
L 296.80975 82.2966 
L 297.701658 78.601691 
L 298.593566 83.262856 
L 299.485475 81.473241 
L 300.377383 76.886926 
L 301.269291 75.825405 
L 302.161199 74.063009 
L 303.053107 75.294645 
L 303.945015 65.584451 
L 305.728831 70.980515 
L 306.620739 66.435028 
L 307.512647 66.224085 
L 308.404555 67.530572 
L 309.296464 69.08883 
L 310.188372 72.382267 
L 311.08028 69.136463 
L 311.972188 67.271997 
L 312.864096 68.000091 
L 313.756004 71.034952 
L 315.53982 75.437542 
L 316.431728 78.302288 
L 319.107453 68.612507 
L 319.999361 55.955911 
L 320.891269 54.139078 
L 321.783177 57.303226 
L 322.675085 53.581099 
L 323.566993 63.760812 
L 324.458901 65.135346 
L 325.350809 68.095356 
L 326.242717 68.578484 
L 327.134625 63.352535 
L 328.026533 60.596663 
L 328.918442 60.229214 
L 329.81035 61.522092 
L 330.702258 61.848713 
L 331.594166 62.644854 
L 332.486074 60.814411 
L 333.377982 60.453766 
L 334.26989 58.153804 
L 335.161798 63.672352 
L 336.053706 65.713738 
L 336.945614 65.938291 
L 338.729431 60.338088 
L 339.621339 58.868289 
L 340.513247 56.908558 
L 341.405155 59.637212 
L 343.188971 48.559288 
L 344.080879 49.43028 
L 344.972787 47.613446 
L 345.864695 52.220174 
L 346.756603 51.553322 
L 347.648511 47.524986 
L 348.54042 50.661916 
L 349.432328 50.369317 
L 350.324236 49.899799 
L 351.216144 51.383206 
L 352.108052 51.369597 
L 352.99996 53.145603 
L 353.891868 53.7308 
L 355.675684 65.543623 
L 356.567592 64.3324 
L 357.4595 74.042595 
L 358.351409 72.171324 
L 359.243317 67.408089 
L 360.135225 66.986202 
L 361.027133 75.784578 
L 361.919041 76.492258 
L 362.810949 76.64196 
L 363.702857 74.178687 
L 364.594765 85.596842 
L 365.486673 81.017331 
L 366.378581 80.554617 
L 367.27049 83.56226 
L 368.162398 82.997476 
L 369.054306 86.127602 
L 369.946214 87.270778 
L 370.838122 86.746823 
L 371.73003 84.031779 
L 372.621938 86.597121 
L 373.513846 79.397832 
L 374.405754 76.233683 
L 375.297662 75.696118 
L 376.18957 74.947609 
L 377.081479 86.69919 
L 377.973387 83.922905 
L 378.865295 92.687257 
L 379.757203 95.130116 
L 380.649111 91.931944 
L 382.432927 83.045109 
L 383.324835 84.337987 
L 384.216743 81.929151 
L 385.108651 79.050796 
L 386.000559 75.457956 
L 386.892468 77.165916 
L 387.784376 79.377418 
L 388.676284 84.63739 
L 389.568192 84.569344 
L 390.4601 75.621267 
L 391.352008 71.082584 
L 392.243916 74.21271 
L 394.027732 77.118284 
L 394.91964 72.620429 
L 396.703457 78.098149 
L 397.595365 75.505588 
L 398.487273 80.908458 
L 398.487273 80.908458 
" style="fill:none;stroke:#ff0000;stroke-linecap:square;stroke-width:1.5;"/>
   </g>
   <g id="line2d_18">
    <path clip-path="url(#p7163c3642b)" d="M 73.832727 154.716454 
L 74.724635 154.417672 
L 75.616543 154.509936 
L 76.508452 154.354907 
L 77.40036 153.79087 
L 78.292268 154.225212 
L 79.184176 155.614264 
L 80.076084 160.504702 
L 80.967992 166.314847 
L 81.8599 168.584701 
L 82.751808 166.223102 
L 83.643716 161.072477 
L 84.535624 156.983516 
L 85.427532 154.209191 
L 86.319441 153.505554 
L 87.211349 153.428606 
L 88.103257 153.837396 
L 88.995165 153.876602 
L 89.887073 155.198974 
L 90.778981 155.267409 
L 91.670889 154.812279 
L 94.346613 151.281043 
L 95.238521 150.796321 
L 96.13043 151.916826 
L 97.022338 154.423435 
L 97.914246 156.061357 
L 98.806154 156.807741 
L 99.698062 157.207322 
L 100.58997 157.829774 
L 101.481878 155.544096 
L 102.373786 151.401901 
L 103.265694 149.448916 
L 104.157602 149.904346 
L 105.04951 151.033895 
L 105.941419 149.638396 
L 106.833327 145.891462 
L 107.725235 144.62792 
L 108.617143 144.534057 
L 109.509051 143.764852 
L 110.400959 142.798524 
L 113.076683 138.614766 
L 113.968591 136.979148 
L 115.752408 132.825989 
L 116.644316 131.845997 
L 117.536224 128.55437 
L 118.428132 122.967512 
L 119.32004 120.940142 
L 121.103856 123.442431 
L 121.995764 124.352628 
L 122.887672 127.15019 
L 124.671489 136.021044 
L 125.563397 137.684145 
L 126.455305 138.082272 
L 127.347213 139.089758 
L 129.131029 140.126774 
L 130.022937 142.638168 
L 131.806753 153.315856 
L 132.698661 158.231421 
L 133.590569 161.628945 
L 135.374386 164.083493 
L 136.266294 165.130309 
L 137.158202 164.961295 
L 138.05011 164.0181 
L 138.942018 162.702269 
L 139.833926 161.124984 
L 140.725834 160.746958 
L 143.401558 160.636452 
L 144.293467 158.97254 
L 145.185375 156.010449 
L 146.077283 151.323021 
L 146.969191 145.876998 
L 147.861099 142.527527 
L 148.753007 143.478176 
L 150.536823 145.904254 
L 151.428731 146.064516 
L 152.320639 142.526831 
L 153.212547 138.289819 
L 154.104456 135.744585 
L 154.996364 135.864437 
L 155.888272 136.984703 
L 156.78018 140.064164 
L 157.672088 141.705596 
L 158.563996 144.945963 
L 159.455904 147.712853 
L 160.347812 148.552123 
L 161.23972 144.798326 
L 162.131628 137.367816 
L 163.023536 132.615463 
L 163.915445 134.389496 
L 164.807353 141.846463 
L 165.699261 146.058597 
L 166.591169 146.71602 
L 167.483077 145.816112 
L 168.374985 144.693292 
L 169.266893 144.249365 
L 170.158801 144.344889 
L 171.050709 145.609397 
L 171.942617 147.086227 
L 172.834525 149.006215 
L 173.726434 149.644542 
L 174.618342 148.587571 
L 175.51025 147.248731 
L 176.402158 147.821231 
L 177.294066 147.265355 
L 178.185974 145.729424 
L 179.077882 145.11504 
L 180.861698 147.134798 
L 181.753606 147.231651 
L 182.645514 148.435231 
L 183.537423 150.014344 
L 184.429331 151.144724 
L 185.321239 150.767529 
L 186.213147 150.528294 
L 187.105055 149.185509 
L 187.996963 147.278655 
L 188.888871 147.215931 
L 189.780779 148.570491 
L 190.672687 150.642466 
L 191.564595 151.884483 
L 192.456503 152.562059 
L 193.348412 152.819039 
L 194.24032 151.112557 
L 195.132228 149.968763 
L 196.024136 150.397644 
L 196.916044 152.303771 
L 197.807952 153.742038 
L 198.69986 155.991438 
L 199.591768 156.420081 
L 200.483676 156.028277 
L 201.375584 156.970402 
L 203.159401 160.611823 
L 204.051309 162.163878 
L 204.943217 162.778616 
L 205.835125 161.434658 
L 208.510849 149.993983 
L 209.402757 148.389255 
L 210.294665 147.094211 
L 211.186573 148.198425 
L 212.078482 149.741821 
L 212.97039 152.895344 
L 213.862298 155.223032 
L 214.754206 153.975552 
L 216.538022 147.227187 
L 217.42993 144.798087 
L 218.321838 143.601828 
L 220.105654 142.094264 
L 220.997562 141.874933 
L 223.673287 143.409036 
L 224.565195 145.181585 
L 225.457103 147.977412 
L 226.349011 151.340911 
L 227.240919 153.776416 
L 228.132827 154.393459 
L 229.024735 154.645351 
L 229.916643 155.069571 
L 230.808551 154.793039 
L 231.70046 154.079071 
L 232.592368 154.482649 
L 233.484276 155.668879 
L 234.376184 156.307591 
L 235.268092 156.213074 
L 236.16 155.290355 
L 237.051908 153.779552 
L 237.943816 151.201249 
L 238.835724 150.40647 
L 239.727632 149.352219 
L 240.61954 147.019028 
L 241.511449 144.304208 
L 242.403357 141.974091 
L 243.295265 140.101408 
L 245.079081 133.074517 
L 245.970989 132.96562 
L 246.862897 135.047126 
L 247.754805 136.427114 
L 248.646713 134.622575 
L 249.538621 131.590346 
L 250.430529 129.073043 
L 252.214346 123.24424 
L 253.106254 121.135468 
L 253.998162 120.875228 
L 254.89007 120.798393 
L 255.781978 121.118585 
L 256.673886 122.317679 
L 257.565794 123.177539 
L 258.457702 125.85445 
L 259.34961 127.191763 
L 260.241518 127.373342 
L 261.133427 128.238913 
L 263.809151 134.163302 
L 264.701059 135.637505 
L 265.592967 135.854739 
L 266.484875 136.340997 
L 267.376783 137.169272 
L 268.268691 134.623343 
L 269.160599 130.839134 
L 270.052507 129.851916 
L 271.836324 136.894682 
L 272.728232 138.926361 
L 273.62014 138.096144 
L 274.512048 139.236917 
L 275.403956 141.720205 
L 276.295864 143.682172 
L 277.187772 142.900246 
L 278.971588 135.93202 
L 279.863497 134.821088 
L 280.755405 136.739684 
L 281.647313 137.259905 
L 282.539221 136.657347 
L 283.431129 135.546778 
L 284.323037 133.769422 
L 285.214945 132.446718 
L 286.998761 132.248111 
L 287.890669 132.742738 
L 288.782577 133.098834 
L 289.674486 134.105157 
L 290.566394 133.898037 
L 291.458302 132.073656 
L 292.35021 129.288927 
L 293.242118 127.903105 
L 295.025934 128.143513 
L 295.917842 127.344955 
L 296.80975 125.299976 
L 297.701658 124.970626 
L 298.593566 125.240834 
L 299.485475 125.982411 
L 300.377383 126.45216 
L 301.269291 125.589579 
L 303.053107 121.624861 
L 303.945015 121.662676 
L 304.836923 121.308802 
L 305.728831 119.347801 
L 306.620739 118.645535 
L 307.512647 119.027132 
L 308.404555 117.464154 
L 309.296464 116.133049 
L 310.188372 115.385181 
L 311.08028 116.785394 
L 311.972188 116.36916 
L 313.756004 110.532901 
L 314.647912 109.61257 
L 315.53982 111.349672 
L 316.431728 112.712361 
L 317.323636 114.79314 
L 318.215544 114.898237 
L 319.107453 112.539712 
L 319.999361 109.774795 
L 320.891269 104.808758 
L 321.783177 99.152043 
L 322.675085 99.253091 
L 323.566993 100.848194 
L 324.458901 105.558309 
L 325.350809 107.369608 
L 327.134625 106.978396 
L 328.026533 104.499199 
L 328.918442 100.159675 
L 329.81035 96.701213 
L 330.702258 95.685836 
L 332.486074 97.170588 
L 333.377982 97.047694 
L 334.26989 95.13539 
L 335.161798 94.242657 
L 336.053706 94.499159 
L 336.945614 94.953022 
L 337.837522 96.33357 
L 338.729431 95.4268 
L 339.621339 92.556204 
L 340.513247 90.161566 
L 341.405155 88.673118 
L 343.188971 89.890133 
L 344.080879 87.813756 
L 344.972787 84.764074 
L 345.864695 83.711255 
L 346.756603 85.447256 
L 347.648511 86.04428 
L 348.54042 84.192218 
L 351.216144 77.518008 
L 352.108052 77.423231 
L 352.99996 76.960688 
L 353.891868 79.003154 
L 354.783776 78.295842 
L 355.675684 80.705223 
L 356.567592 84.143605 
L 357.4595 82.89326 
L 358.351409 89.247029 
L 359.243317 88.719135 
L 361.027133 85.905065 
L 361.919041 89.778266 
L 363.702857 96.276277 
L 364.594765 98.147776 
L 365.486673 105.904043 
L 366.378581 110.152508 
L 367.27049 112.087282 
L 368.162398 112.782488 
L 369.054306 114.455526 
L 369.946214 118.160689 
L 370.838122 124.553 
L 371.73003 127.723935 
L 372.621938 128.362595 
L 373.513846 130.041946 
L 374.405754 130.912895 
L 375.297662 129.519161 
L 376.18957 127.912802 
L 377.081479 128.306506 
L 377.973387 134.057032 
L 378.865295 138.825635 
L 379.757203 142.573814 
L 380.649111 143.457898 
L 381.541019 142.998875 
L 382.432927 140.196371 
L 383.324835 135.737639 
L 384.216743 132.977768 
L 385.108651 133.089448 
L 386.000559 132.558501 
L 387.784376 127.958363 
L 388.676284 128.130929 
L 389.568192 130.983541 
L 390.4601 132.213702 
L 391.352008 130.703843 
L 392.243916 124.780222 
L 393.135824 120.672322 
L 394.027732 119.474848 
L 394.91964 121.207568 
L 395.811548 121.19436 
L 396.703457 119.590847 
L 398.487273 121.427542 
L 398.487273 121.427542 
" style="fill:none;stroke:#0000ff;stroke-linecap:square;stroke-width:1.5;"/>
   </g>
   <g id="patch_3">
    <path d="M 57.6 307.584 
L 57.6 41.472 
" style="fill:none;stroke:#000000;stroke-linecap:square;stroke-linejoin:miter;stroke-width:0.8;"/>
   </g>
   <g id="patch_4">
    <path d="M 414.72 307.584 
L 414.72 41.472 
" style="fill:none;stroke:#000000;stroke-linecap:square;stroke-linejoin:miter;stroke-width:0.8;"/>
   </g>
   <g id="patch_5">
    <path d="M 57.6 307.584 
L 414.72 307.584 
" style="fill:none;stroke:#000000;stroke-linecap:square;stroke-linejoin:miter;stroke-width:0.8;"/>
   </g>
   <g id="patch_6">
    <path d="M 57.6 41.472 
L 414.72 41.472 
" style="fill:none;stroke:#000000;stroke-linecap:square;stroke-linejoin:miter;stroke-width:0.8;"/>
   </g>
   <g id="text_19">
    <!-- FB Prices -->
    <g transform="translate(208.922812 35.472)scale(0.12 -0.12)">
     <defs>
      <path d="M 628 4666 
L 3309 4666 
L 3309 4134 
L 1259 4134 
L 1259 2759 
L 3109 2759 
L 3109 2228 
L 1259 2228 
L 1259 0 
L 628 0 
L 628 4666 
z
" id="DejaVuSans-46" transform="scale(0.015625)"/>
      <path d="M 1259 2228 
L 1259 519 
L 2272 519 
Q 2781 519 3026 730 
Q 3272 941 3272 1375 
Q 3272 1813 3026 2020 
Q 2781 2228 2272 2228 
L 1259 2228 
z
M 1259 4147 
L 1259 2741 
L 2194 2741 
Q 2656 2741 2882 2914 
Q 3109 3088 3109 3444 
Q 3109 3797 2882 3972 
Q 2656 4147 2194 4147 
L 1259 4147 
z
M 628 4666 
L 2241 4666 
Q 2963 4666 3353 4366 
Q 3744 4066 3744 3513 
Q 3744 3084 3544 2831 
Q 3344 2578 2956 2516 
Q 3422 2416 3680 2098 
Q 3938 1781 3938 1306 
Q 3938 681 3513 340 
Q 3088 0 2303 0 
L 628 0 
L 628 4666 
z
" id="DejaVuSans-42" transform="scale(0.015625)"/>
     </defs>
     <use xlink:href="#DejaVuSans-46"/>
     <use x="57.519531" xlink:href="#DejaVuSans-42"/>
     <use x="126.123047" xlink:href="#DejaVuSans-20"/>
     <use x="157.910156" xlink:href="#DejaVuSans-50"/>
     <use x="216.462891" xlink:href="#DejaVuSans-72"/>
     <use x="257.576172" xlink:href="#DejaVuSans-69"/>
     <use x="285.359375" xlink:href="#DejaVuSans-63"/>
     <use x="340.339844" xlink:href="#DejaVuSans-65"/>
     <use x="401.863281" xlink:href="#DejaVuSans-73"/>
    </g>
   </g>
   <g id="legend_1">
    <g id="patch_7">
     <path d="M 64.6 78.82825 
L 192.114063 78.82825 
Q 194.114063 78.82825 194.114063 76.82825 
L 194.114063 48.472 
Q 194.114063 46.472 192.114063 46.472 
L 64.6 46.472 
Q 62.6 46.472 62.6 48.472 
L 62.6 76.82825 
Q 62.6 78.82825 64.6 78.82825 
z
" style="fill:#ffffff;opacity:0.8;stroke:#cccccc;stroke-linejoin:miter;"/>
    </g>
    <g id="line2d_19">
     <path d="M 66.6 54.570437 
L 86.6 54.570437 
" style="fill:none;stroke:#ff0000;stroke-linecap:square;stroke-width:1.5;"/>
    </g>
    <g id="line2d_20"/>
    <g id="text_20">
     <!-- Real FB Prices -->
     <g transform="translate(94.6 58.070437)scale(0.1 -0.1)">
      <defs>
       <path d="M 2841 2188 
Q 3044 2119 3236 1894 
Q 3428 1669 3622 1275 
L 4263 0 
L 3584 0 
L 2988 1197 
Q 2756 1666 2539 1819 
Q 2322 1972 1947 1972 
L 1259 1972 
L 1259 0 
L 628 0 
L 628 4666 
L 2053 4666 
Q 2853 4666 3247 4331 
Q 3641 3997 3641 3322 
Q 3641 2881 3436 2590 
Q 3231 2300 2841 2188 
z
M 1259 4147 
L 1259 2491 
L 2053 2491 
Q 2509 2491 2742 2702 
Q 2975 2913 2975 3322 
Q 2975 3731 2742 3939 
Q 2509 4147 2053 4147 
L 1259 4147 
z
" id="DejaVuSans-52" transform="scale(0.015625)"/>
       <path d="M 2194 1759 
Q 1497 1759 1228 1600 
Q 959 1441 959 1056 
Q 959 750 1161 570 
Q 1363 391 1709 391 
Q 2188 391 2477 730 
Q 2766 1069 2766 1631 
L 2766 1759 
L 2194 1759 
z
M 3341 1997 
L 3341 0 
L 2766 0 
L 2766 531 
Q 2569 213 2275 61 
Q 1981 -91 1556 -91 
Q 1019 -91 701 211 
Q 384 513 384 1019 
Q 384 1609 779 1909 
Q 1175 2209 1959 2209 
L 2766 2209 
L 2766 2266 
Q 2766 2663 2505 2880 
Q 2244 3097 1772 3097 
Q 1472 3097 1187 3025 
Q 903 2953 641 2809 
L 641 3341 
Q 956 3463 1253 3523 
Q 1550 3584 1831 3584 
Q 2591 3584 2966 3190 
Q 3341 2797 3341 1997 
z
" id="DejaVuSans-61" transform="scale(0.015625)"/>
       <path d="M 603 4863 
L 1178 4863 
L 1178 0 
L 603 0 
L 603 4863 
z
" id="DejaVuSans-6c" transform="scale(0.015625)"/>
      </defs>
      <use xlink:href="#DejaVuSans-52"/>
      <use x="64.982422" xlink:href="#DejaVuSans-65"/>
      <use x="126.505859" xlink:href="#DejaVuSans-61"/>
      <use x="187.785156" xlink:href="#DejaVuSans-6c"/>
      <use x="215.568359" xlink:href="#DejaVuSans-20"/>
      <use x="247.355469" xlink:href="#DejaVuSans-46"/>
      <use x="304.875" xlink:href="#DejaVuSans-42"/>
      <use x="373.478516" xlink:href="#DejaVuSans-20"/>
      <use x="405.265625" xlink:href="#DejaVuSans-50"/>
      <use x="463.818359" xlink:href="#DejaVuSans-72"/>
      <use x="504.931641" xlink:href="#DejaVuSans-69"/>
      <use x="532.714844" xlink:href="#DejaVuSans-63"/>
      <use x="587.695312" xlink:href="#DejaVuSans-65"/>
      <use x="649.21875" xlink:href="#DejaVuSans-73"/>
     </g>
    </g>
    <g id="line2d_21">
     <path d="M 66.6 69.248562 
L 86.6 69.248562 
" style="fill:none;stroke:#0000ff;stroke-linecap:square;stroke-width:1.5;"/>
    </g>
    <g id="line2d_22"/>
    <g id="text_21">
     <!-- Predicted FB Prices -->
     <g transform="translate(94.6 72.748562)scale(0.1 -0.1)">
      <defs>
       <path d="M 2906 2969 
L 2906 4863 
L 3481 4863 
L 3481 0 
L 2906 0 
L 2906 525 
Q 2725 213 2448 61 
Q 2172 -91 1784 -91 
Q 1150 -91 751 415 
Q 353 922 353 1747 
Q 353 2572 751 3078 
Q 1150 3584 1784 3584 
Q 2172 3584 2448 3432 
Q 2725 3281 2906 2969 
z
M 947 1747 
Q 947 1113 1208 752 
Q 1469 391 1925 391 
Q 2381 391 2643 752 
Q 2906 1113 2906 1747 
Q 2906 2381 2643 2742 
Q 2381 3103 1925 3103 
Q 1469 3103 1208 2742 
Q 947 2381 947 1747 
z
" id="DejaVuSans-64" transform="scale(0.015625)"/>
      </defs>
      <use xlink:href="#DejaVuSans-50"/>
      <use x="58.552734" xlink:href="#DejaVuSans-72"/>
      <use x="97.416016" xlink:href="#DejaVuSans-65"/>
      <use x="158.939453" xlink:href="#DejaVuSans-64"/>
      <use x="222.416016" xlink:href="#DejaVuSans-69"/>
      <use x="250.199219" xlink:href="#DejaVuSans-63"/>
      <use x="305.179688" xlink:href="#DejaVuSans-74"/>
      <use x="344.388672" xlink:href="#DejaVuSans-65"/>
      <use x="405.912109" xlink:href="#DejaVuSans-64"/>
      <use x="469.388672" xlink:href="#DejaVuSans-20"/>
      <use x="501.175781" xlink:href="#DejaVuSans-46"/>
      <use x="558.695312" xlink:href="#DejaVuSans-42"/>
      <use x="627.298828" xlink:href="#DejaVuSans-20"/>
      <use x="659.085938" xlink:href="#DejaVuSans-50"/>
      <use x="717.638672" xlink:href="#DejaVuSans-72"/>
      <use x="758.751953" xlink:href="#DejaVuSans-69"/>
      <use x="786.535156" xlink:href="#DejaVuSans-63"/>
      <use x="841.515625" xlink:href="#DejaVuSans-65"/>
      <use x="903.039062" xlink:href="#DejaVuSans-73"/>
     </g>
    </g>
   </g>
  </g>
 </g>
 <defs>
  <clipPath id="p7163c3642b">
   <rect height="266.112" width="357.12" x="57.6" y="41.472"/>
  </clipPath>
 </defs>
</svg>
