<?xml version="1.0" encoding="utf-8" standalone="no"?>
<!DOCTYPE svg PUBLIC "-//W3C//DTD SVG 1.1//EN"
  "http://www.w3.org/Graphics/SVG/1.1/DTD/svg11.dtd">
<svg xmlns:xlink="http://www.w3.org/1999/xlink" width="460.8pt" height="345.6pt" viewBox="0 0 460.8 345.6" xmlns="http://www.w3.org/2000/svg" version="1.1">
 <metadata>
  <rdf:RDF xmlns:dc="http://purl.org/dc/elements/1.1/" xmlns:cc="http://creativecommons.org/ns#" xmlns:rdf="http://www.w3.org/1999/02/22-rdf-syntax-ns#">
   <cc:Work>
    <dc:type rdf:resource="http://purl.org/dc/dcmitype/StillImage"/>
    <dc:date>2021-11-21T18:38:53.196984</dc:date>
    <dc:format>image/svg+xml</dc:format>
    <dc:creator>
     <cc:Agent>
      <dc:title>Matplotlib v3.5.0, https://matplotlib.org/</dc:title>
     </cc:Agent>
    </dc:creator>
   </cc:Work>
  </rdf:RDF>
 </metadata>
 <defs>
  <style type="text/css">*{stroke-linejoin: round; stroke-linecap: butt}</style>
 </defs>
 <g id="figure_1">
  <g id="patch_1">
   <path d="M 0 345.6 
L 460.8 345.6 
L 460.8 0 
L 0 0 
z
" style="fill: #ffffff"/>
  </g>
  <g id="axes_1">
   <g id="patch_2">
    <path d="M 57.6 307.584 
L 414.72 307.584 
L 414.72 41.472 
L 57.6 41.472 
z
" style="fill: #ffffff"/>
   </g>
   <g id="matplotlib.axis_1">
    <g id="xtick_1">
     <g id="line2d_1">
      <defs>
       <path id="m3df50310d0" d="M 0 0 
L 0 3.5 
" style="stroke: #000000; stroke-width: 0.8"/>
      </defs>
      <g>
       <use xlink:href="#m3df50310d0" x="73.832727" y="307.584" style="stroke: #000000; stroke-width: 0.8"/>
      </g>
     </g>
     <g id="text_1">
      <!-- 0 -->
      <g transform="translate(70.651477 322.182437)scale(0.1 -0.1)">
       <defs>
        <path id="DejaVuSans-30" d="M 2034 4250 
Q 1547 4250 1301 3770 
Q 1056 3291 1056 2328 
Q 1056 1369 1301 889 
Q 1547 409 2034 409 
Q 2525 409 2770 889 
Q 3016 1369 3016 2328 
Q 3016 3291 2770 3770 
Q 2525 4250 2034 4250 
z
M 2034 4750 
Q 2819 4750 3233 4129 
Q 3647 3509 3647 2328 
Q 3647 1150 3233 529 
Q 2819 -91 2034 -91 
Q 1250 -91 836 529 
Q 422 1150 422 2328 
Q 422 3509 836 4129 
Q 1250 4750 2034 4750 
z
" transform="scale(0.015625)"/>
       </defs>
       <use xlink:href="#DejaVuSans-30"/>
      </g>
     </g>
    </g>
    <g id="xtick_2">
     <g id="line2d_2">
      <g>
       <use xlink:href="#m3df50310d0" x="118.428132" y="307.584" style="stroke: #000000; stroke-width: 0.8"/>
      </g>
     </g>
     <g id="text_2">
      <!-- 50 -->
      <g transform="translate(112.065632 322.182437)scale(0.1 -0.1)">
       <defs>
        <path id="DejaVuSans-35" d="M 691 4666 
L 3169 4666 
L 3169 4134 
L 1269 4134 
L 1269 2991 
Q 1406 3038 1543 3061 
Q 1681 3084 1819 3084 
Q 2600 3084 3056 2656 
Q 3513 2228 3513 1497 
Q 3513 744 3044 326 
Q 2575 -91 1722 -91 
Q 1428 -91 1123 -41 
Q 819 9 494 109 
L 494 744 
Q 775 591 1075 516 
Q 1375 441 1709 441 
Q 2250 441 2565 725 
Q 2881 1009 2881 1497 
Q 2881 1984 2565 2268 
Q 2250 2553 1709 2553 
Q 1456 2553 1204 2497 
Q 953 2441 691 2322 
L 691 4666 
z
" transform="scale(0.015625)"/>
       </defs>
       <use xlink:href="#DejaVuSans-35"/>
       <use xlink:href="#DejaVuSans-30" x="63.623047"/>
      </g>
     </g>
    </g>
    <g id="xtick_3">
     <g id="line2d_3">
      <g>
       <use xlink:href="#m3df50310d0" x="163.023536" y="307.584" style="stroke: #000000; stroke-width: 0.8"/>
      </g>
     </g>
     <g id="text_3">
      <!-- 100 -->
      <g transform="translate(153.479786 322.182437)scale(0.1 -0.1)">
       <defs>
        <path id="DejaVuSans-31" d="M 794 531 
L 1825 531 
L 1825 4091 
L 703 3866 
L 703 4441 
L 1819 4666 
L 2450 4666 
L 2450 531 
L 3481 531 
L 3481 0 
L 794 0 
L 794 531 
z
" transform="scale(0.015625)"/>
       </defs>
       <use xlink:href="#DejaVuSans-31"/>
       <use xlink:href="#DejaVuSans-30" x="63.623047"/>
       <use xlink:href="#DejaVuSans-30" x="127.246094"/>
      </g>
     </g>
    </g>
    <g id="xtick_4">
     <g id="line2d_4">
      <g>
       <use xlink:href="#m3df50310d0" x="207.618941" y="307.584" style="stroke: #000000; stroke-width: 0.8"/>
      </g>
     </g>
     <g id="text_4">
      <!-- 150 -->
      <g transform="translate(198.075191 322.182437)scale(0.1 -0.1)">
       <use xlink:href="#DejaVuSans-31"/>
       <use xlink:href="#DejaVuSans-35" x="63.623047"/>
       <use xlink:href="#DejaVuSans-30" x="127.246094"/>
      </g>
     </g>
    </g>
    <g id="xtick_5">
     <g id="line2d_5">
      <g>
       <use xlink:href="#m3df50310d0" x="252.214346" y="307.584" style="stroke: #000000; stroke-width: 0.8"/>
      </g>
     </g>
     <g id="text_5">
      <!-- 200 -->
      <g transform="translate(242.670596 322.182437)scale(0.1 -0.1)">
       <defs>
        <path id="DejaVuSans-32" d="M 1228 531 
L 3431 531 
L 3431 0 
L 469 0 
L 469 531 
Q 828 903 1448 1529 
Q 2069 2156 2228 2338 
Q 2531 2678 2651 2914 
Q 2772 3150 2772 3378 
Q 2772 3750 2511 3984 
Q 2250 4219 1831 4219 
Q 1534 4219 1204 4116 
Q 875 4013 500 3803 
L 500 4441 
Q 881 4594 1212 4672 
Q 1544 4750 1819 4750 
Q 2544 4750 2975 4387 
Q 3406 4025 3406 3419 
Q 3406 3131 3298 2873 
Q 3191 2616 2906 2266 
Q 2828 2175 2409 1742 
Q 1991 1309 1228 531 
z
" transform="scale(0.015625)"/>
       </defs>
       <use xlink:href="#DejaVuSans-32"/>
       <use xlink:href="#DejaVuSans-30" x="63.623047"/>
       <use xlink:href="#DejaVuSans-30" x="127.246094"/>
      </g>
     </g>
    </g>
    <g id="xtick_6">
     <g id="line2d_6">
      <g>
       <use xlink:href="#m3df50310d0" x="296.80975" y="307.584" style="stroke: #000000; stroke-width: 0.8"/>
      </g>
     </g>
     <g id="text_6">
      <!-- 250 -->
      <g transform="translate(287.266 322.182437)scale(0.1 -0.1)">
       <use xlink:href="#DejaVuSans-32"/>
       <use xlink:href="#DejaVuSans-35" x="63.623047"/>
       <use xlink:href="#DejaVuSans-30" x="127.246094"/>
      </g>
     </g>
    </g>
    <g id="xtick_7">
     <g id="line2d_7">
      <g>
       <use xlink:href="#m3df50310d0" x="341.405155" y="307.584" style="stroke: #000000; stroke-width: 0.8"/>
      </g>
     </g>
     <g id="text_7">
      <!-- 300 -->
      <g transform="translate(331.861405 322.182437)scale(0.1 -0.1)">
       <defs>
        <path id="DejaVuSans-33" d="M 2597 2516 
Q 3050 2419 3304 2112 
Q 3559 1806 3559 1356 
Q 3559 666 3084 287 
Q 2609 -91 1734 -91 
Q 1441 -91 1130 -33 
Q 819 25 488 141 
L 488 750 
Q 750 597 1062 519 
Q 1375 441 1716 441 
Q 2309 441 2620 675 
Q 2931 909 2931 1356 
Q 2931 1769 2642 2001 
Q 2353 2234 1838 2234 
L 1294 2234 
L 1294 2753 
L 1863 2753 
Q 2328 2753 2575 2939 
Q 2822 3125 2822 3475 
Q 2822 3834 2567 4026 
Q 2313 4219 1838 4219 
Q 1578 4219 1281 4162 
Q 984 4106 628 3988 
L 628 4550 
Q 988 4650 1302 4700 
Q 1616 4750 1894 4750 
Q 2613 4750 3031 4423 
Q 3450 4097 3450 3541 
Q 3450 3153 3228 2886 
Q 3006 2619 2597 2516 
z
" transform="scale(0.015625)"/>
       </defs>
       <use xlink:href="#DejaVuSans-33"/>
       <use xlink:href="#DejaVuSans-30" x="63.623047"/>
       <use xlink:href="#DejaVuSans-30" x="127.246094"/>
      </g>
     </g>
    </g>
    <g id="xtick_8">
     <g id="line2d_8">
      <g>
       <use xlink:href="#m3df50310d0" x="386.000559" y="307.584" style="stroke: #000000; stroke-width: 0.8"/>
      </g>
     </g>
     <g id="text_8">
      <!-- 350 -->
      <g transform="translate(376.456809 322.182437)scale(0.1 -0.1)">
       <use xlink:href="#DejaVuSans-33"/>
       <use xlink:href="#DejaVuSans-35" x="63.623047"/>
       <use xlink:href="#DejaVuSans-30" x="127.246094"/>
      </g>
     </g>
    </g>
    <g id="text_9">
     <!-- Time -->
     <g transform="translate(223.926406 335.860562)scale(0.1 -0.1)">
      <defs>
       <path id="DejaVuSans-54" d="M -19 4666 
L 3928 4666 
L 3928 4134 
L 2272 4134 
L 2272 0 
L 1638 0 
L 1638 4134 
L -19 4134 
L -19 4666 
z
" transform="scale(0.015625)"/>
       <path id="DejaVuSans-69" d="M 603 3500 
L 1178 3500 
L 1178 0 
L 603 0 
L 603 3500 
z
M 603 4863 
L 1178 4863 
L 1178 4134 
L 603 4134 
L 603 4863 
z
" transform="scale(0.015625)"/>
       <path id="DejaVuSans-6d" d="M 3328 2828 
Q 3544 3216 3844 3400 
Q 4144 3584 4550 3584 
Q 5097 3584 5394 3201 
Q 5691 2819 5691 2113 
L 5691 0 
L 5113 0 
L 5113 2094 
Q 5113 2597 4934 2840 
Q 4756 3084 4391 3084 
Q 3944 3084 3684 2787 
Q 3425 2491 3425 1978 
L 3425 0 
L 2847 0 
L 2847 2094 
Q 2847 2600 2669 2842 
Q 2491 3084 2119 3084 
Q 1678 3084 1418 2786 
Q 1159 2488 1159 1978 
L 1159 0 
L 581 0 
L 581 3500 
L 1159 3500 
L 1159 2956 
Q 1356 3278 1631 3431 
Q 1906 3584 2284 3584 
Q 2666 3584 2933 3390 
Q 3200 3197 3328 2828 
z
" transform="scale(0.015625)"/>
       <path id="DejaVuSans-65" d="M 3597 1894 
L 3597 1613 
L 953 1613 
Q 991 1019 1311 708 
Q 1631 397 2203 397 
Q 2534 397 2845 478 
Q 3156 559 3463 722 
L 3463 178 
Q 3153 47 2828 -22 
Q 2503 -91 2169 -91 
Q 1331 -91 842 396 
Q 353 884 353 1716 
Q 353 2575 817 3079 
Q 1281 3584 2069 3584 
Q 2775 3584 3186 3129 
Q 3597 2675 3597 1894 
z
M 3022 2063 
Q 3016 2534 2758 2815 
Q 2500 3097 2075 3097 
Q 1594 3097 1305 2825 
Q 1016 2553 972 2059 
L 3022 2063 
z
" transform="scale(0.015625)"/>
      </defs>
      <use xlink:href="#DejaVuSans-54"/>
      <use xlink:href="#DejaVuSans-69" x="57.958984"/>
      <use xlink:href="#DejaVuSans-6d" x="85.742188"/>
      <use xlink:href="#DejaVuSans-65" x="183.154297"/>
     </g>
    </g>
   </g>
   <g id="matplotlib.axis_2">
    <g id="ytick_1">
     <g id="line2d_9">
      <defs>
       <path id="ma0953ed564" d="M 0 0 
L -3.5 0 
" style="stroke: #000000; stroke-width: 0.8"/>
      </defs>
      <g>
       <use xlink:href="#ma0953ed564" x="57.6" y="307.584" style="stroke: #000000; stroke-width: 0.8"/>
      </g>
     </g>
     <g id="text_10">
      <!-- 0 -->
      <g transform="translate(44.2375 311.383219)scale(0.1 -0.1)">
       <use xlink:href="#DejaVuSans-30"/>
      </g>
     </g>
    </g>
    <g id="ytick_2">
     <g id="line2d_10">
      <g>
       <use xlink:href="#ma0953ed564" x="57.6" y="265.429313" style="stroke: #000000; stroke-width: 0.8"/>
      </g>
     </g>
     <g id="text_11">
      <!-- 10000 -->
      <g transform="translate(18.7875 269.228532)scale(0.1 -0.1)">
       <use xlink:href="#DejaVuSans-31"/>
       <use xlink:href="#DejaVuSans-30" x="63.623047"/>
       <use xlink:href="#DejaVuSans-30" x="127.246094"/>
       <use xlink:href="#DejaVuSans-30" x="190.869141"/>
       <use xlink:href="#DejaVuSans-30" x="254.492188"/>
      </g>
     </g>
    </g>
    <g id="ytick_3">
     <g id="line2d_11">
      <g>
       <use xlink:href="#ma0953ed564" x="57.6" y="223.274626" style="stroke: #000000; stroke-width: 0.8"/>
      </g>
     </g>
     <g id="text_12">
      <!-- 20000 -->
      <g transform="translate(18.7875 227.073845)scale(0.1 -0.1)">
       <use xlink:href="#DejaVuSans-32"/>
       <use xlink:href="#DejaVuSans-30" x="63.623047"/>
       <use xlink:href="#DejaVuSans-30" x="127.246094"/>
       <use xlink:href="#DejaVuSans-30" x="190.869141"/>
       <use xlink:href="#DejaVuSans-30" x="254.492188"/>
      </g>
     </g>
    </g>
    <g id="ytick_4">
     <g id="line2d_12">
      <g>
       <use xlink:href="#ma0953ed564" x="57.6" y="181.119939" style="stroke: #000000; stroke-width: 0.8"/>
      </g>
     </g>
     <g id="text_13">
      <!-- 30000 -->
      <g transform="translate(18.7875 184.919158)scale(0.1 -0.1)">
       <use xlink:href="#DejaVuSans-33"/>
       <use xlink:href="#DejaVuSans-30" x="63.623047"/>
       <use xlink:href="#DejaVuSans-30" x="127.246094"/>
       <use xlink:href="#DejaVuSans-30" x="190.869141"/>
       <use xlink:href="#DejaVuSans-30" x="254.492188"/>
      </g>
     </g>
    </g>
    <g id="ytick_5">
     <g id="line2d_13">
      <g>
       <use xlink:href="#ma0953ed564" x="57.6" y="138.965252" style="stroke: #000000; stroke-width: 0.8"/>
      </g>
     </g>
     <g id="text_14">
      <!-- 40000 -->
      <g transform="translate(18.7875 142.764471)scale(0.1 -0.1)">
       <defs>
        <path id="DejaVuSans-34" d="M 2419 4116 
L 825 1625 
L 2419 1625 
L 2419 4116 
z
M 2253 4666 
L 3047 4666 
L 3047 1625 
L 3713 1625 
L 3713 1100 
L 3047 1100 
L 3047 0 
L 2419 0 
L 2419 1100 
L 313 1100 
L 313 1709 
L 2253 4666 
z
" transform="scale(0.015625)"/>
       </defs>
       <use xlink:href="#DejaVuSans-34"/>
       <use xlink:href="#DejaVuSans-30" x="63.623047"/>
       <use xlink:href="#DejaVuSans-30" x="127.246094"/>
       <use xlink:href="#DejaVuSans-30" x="190.869141"/>
       <use xlink:href="#DejaVuSans-30" x="254.492188"/>
      </g>
     </g>
    </g>
    <g id="ytick_6">
     <g id="line2d_14">
      <g>
       <use xlink:href="#ma0953ed564" x="57.6" y="96.810565" style="stroke: #000000; stroke-width: 0.8"/>
      </g>
     </g>
     <g id="text_15">
      <!-- 50000 -->
      <g transform="translate(18.7875 100.609784)scale(0.1 -0.1)">
       <use xlink:href="#DejaVuSans-35"/>
       <use xlink:href="#DejaVuSans-30" x="63.623047"/>
       <use xlink:href="#DejaVuSans-30" x="127.246094"/>
       <use xlink:href="#DejaVuSans-30" x="190.869141"/>
       <use xlink:href="#DejaVuSans-30" x="254.492188"/>
      </g>
     </g>
    </g>
    <g id="ytick_7">
     <g id="line2d_15">
      <g>
       <use xlink:href="#ma0953ed564" x="57.6" y="54.655878" style="stroke: #000000; stroke-width: 0.8"/>
      </g>
     </g>
     <g id="text_16">
      <!-- 60000 -->
      <g transform="translate(18.7875 58.455097)scale(0.1 -0.1)">
       <defs>
        <path id="DejaVuSans-36" d="M 2113 2584 
Q 1688 2584 1439 2293 
Q 1191 2003 1191 1497 
Q 1191 994 1439 701 
Q 1688 409 2113 409 
Q 2538 409 2786 701 
Q 3034 994 3034 1497 
Q 3034 2003 2786 2293 
Q 2538 2584 2113 2584 
z
M 3366 4563 
L 3366 3988 
Q 3128 4100 2886 4159 
Q 2644 4219 2406 4219 
Q 1781 4219 1451 3797 
Q 1122 3375 1075 2522 
Q 1259 2794 1537 2939 
Q 1816 3084 2150 3084 
Q 2853 3084 3261 2657 
Q 3669 2231 3669 1497 
Q 3669 778 3244 343 
Q 2819 -91 2113 -91 
Q 1303 -91 875 529 
Q 447 1150 447 2328 
Q 447 3434 972 4092 
Q 1497 4750 2381 4750 
Q 2619 4750 2861 4703 
Q 3103 4656 3366 4563 
z
" transform="scale(0.015625)"/>
       </defs>
       <use xlink:href="#DejaVuSans-36"/>
       <use xlink:href="#DejaVuSans-30" x="63.623047"/>
       <use xlink:href="#DejaVuSans-30" x="127.246094"/>
       <use xlink:href="#DejaVuSans-30" x="190.869141"/>
       <use xlink:href="#DejaVuSans-30" x="254.492188"/>
      </g>
     </g>
    </g>
    <g id="text_17">
     <!-- Stock Prices -->
     <g transform="translate(12.707812 204.757688)rotate(-90)scale(0.1 -0.1)">
      <defs>
       <path id="DejaVuSans-53" d="M 3425 4513 
L 3425 3897 
Q 3066 4069 2747 4153 
Q 2428 4238 2131 4238 
Q 1616 4238 1336 4038 
Q 1056 3838 1056 3469 
Q 1056 3159 1242 3001 
Q 1428 2844 1947 2747 
L 2328 2669 
Q 3034 2534 3370 2195 
Q 3706 1856 3706 1288 
Q 3706 609 3251 259 
Q 2797 -91 1919 -91 
Q 1588 -91 1214 -16 
Q 841 59 441 206 
L 441 856 
Q 825 641 1194 531 
Q 1563 422 1919 422 
Q 2459 422 2753 634 
Q 3047 847 3047 1241 
Q 3047 1584 2836 1778 
Q 2625 1972 2144 2069 
L 1759 2144 
Q 1053 2284 737 2584 
Q 422 2884 422 3419 
Q 422 4038 858 4394 
Q 1294 4750 2059 4750 
Q 2388 4750 2728 4690 
Q 3069 4631 3425 4513 
z
" transform="scale(0.015625)"/>
       <path id="DejaVuSans-74" d="M 1172 4494 
L 1172 3500 
L 2356 3500 
L 2356 3053 
L 1172 3053 
L 1172 1153 
Q 1172 725 1289 603 
Q 1406 481 1766 481 
L 2356 481 
L 2356 0 
L 1766 0 
Q 1100 0 847 248 
Q 594 497 594 1153 
L 594 3053 
L 172 3053 
L 172 3500 
L 594 3500 
L 594 4494 
L 1172 4494 
z
" transform="scale(0.015625)"/>
       <path id="DejaVuSans-6f" d="M 1959 3097 
Q 1497 3097 1228 2736 
Q 959 2375 959 1747 
Q 959 1119 1226 758 
Q 1494 397 1959 397 
Q 2419 397 2687 759 
Q 2956 1122 2956 1747 
Q 2956 2369 2687 2733 
Q 2419 3097 1959 3097 
z
M 1959 3584 
Q 2709 3584 3137 3096 
Q 3566 2609 3566 1747 
Q 3566 888 3137 398 
Q 2709 -91 1959 -91 
Q 1206 -91 779 398 
Q 353 888 353 1747 
Q 353 2609 779 3096 
Q 1206 3584 1959 3584 
z
" transform="scale(0.015625)"/>
       <path id="DejaVuSans-63" d="M 3122 3366 
L 3122 2828 
Q 2878 2963 2633 3030 
Q 2388 3097 2138 3097 
Q 1578 3097 1268 2742 
Q 959 2388 959 1747 
Q 959 1106 1268 751 
Q 1578 397 2138 397 
Q 2388 397 2633 464 
Q 2878 531 3122 666 
L 3122 134 
Q 2881 22 2623 -34 
Q 2366 -91 2075 -91 
Q 1284 -91 818 406 
Q 353 903 353 1747 
Q 353 2603 823 3093 
Q 1294 3584 2113 3584 
Q 2378 3584 2631 3529 
Q 2884 3475 3122 3366 
z
" transform="scale(0.015625)"/>
       <path id="DejaVuSans-6b" d="M 581 4863 
L 1159 4863 
L 1159 1991 
L 2875 3500 
L 3609 3500 
L 1753 1863 
L 3688 0 
L 2938 0 
L 1159 1709 
L 1159 0 
L 581 0 
L 581 4863 
z
" transform="scale(0.015625)"/>
       <path id="DejaVuSans-20" transform="scale(0.015625)"/>
       <path id="DejaVuSans-50" d="M 1259 4147 
L 1259 2394 
L 2053 2394 
Q 2494 2394 2734 2622 
Q 2975 2850 2975 3272 
Q 2975 3691 2734 3919 
Q 2494 4147 2053 4147 
L 1259 4147 
z
M 628 4666 
L 2053 4666 
Q 2838 4666 3239 4311 
Q 3641 3956 3641 3272 
Q 3641 2581 3239 2228 
Q 2838 1875 2053 1875 
L 1259 1875 
L 1259 0 
L 628 0 
L 628 4666 
z
" transform="scale(0.015625)"/>
       <path id="DejaVuSans-72" d="M 2631 2963 
Q 2534 3019 2420 3045 
Q 2306 3072 2169 3072 
Q 1681 3072 1420 2755 
Q 1159 2438 1159 1844 
L 1159 0 
L 581 0 
L 581 3500 
L 1159 3500 
L 1159 2956 
Q 1341 3275 1631 3429 
Q 1922 3584 2338 3584 
Q 2397 3584 2469 3576 
Q 2541 3569 2628 3553 
L 2631 2963 
z
" transform="scale(0.015625)"/>
       <path id="DejaVuSans-73" d="M 2834 3397 
L 2834 2853 
Q 2591 2978 2328 3040 
Q 2066 3103 1784 3103 
Q 1356 3103 1142 2972 
Q 928 2841 928 2578 
Q 928 2378 1081 2264 
Q 1234 2150 1697 2047 
L 1894 2003 
Q 2506 1872 2764 1633 
Q 3022 1394 3022 966 
Q 3022 478 2636 193 
Q 2250 -91 1575 -91 
Q 1294 -91 989 -36 
Q 684 19 347 128 
L 347 722 
Q 666 556 975 473 
Q 1284 391 1588 391 
Q 1994 391 2212 530 
Q 2431 669 2431 922 
Q 2431 1156 2273 1281 
Q 2116 1406 1581 1522 
L 1381 1569 
Q 847 1681 609 1914 
Q 372 2147 372 2553 
Q 372 3047 722 3315 
Q 1072 3584 1716 3584 
Q 2034 3584 2315 3537 
Q 2597 3491 2834 3397 
z
" transform="scale(0.015625)"/>
      </defs>
      <use xlink:href="#DejaVuSans-53"/>
      <use xlink:href="#DejaVuSans-74" x="63.476562"/>
      <use xlink:href="#DejaVuSans-6f" x="102.685547"/>
      <use xlink:href="#DejaVuSans-63" x="163.867188"/>
      <use xlink:href="#DejaVuSans-6b" x="218.847656"/>
      <use xlink:href="#DejaVuSans-20" x="276.757812"/>
      <use xlink:href="#DejaVuSans-50" x="308.544922"/>
      <use xlink:href="#DejaVuSans-72" x="367.097656"/>
      <use xlink:href="#DejaVuSans-69" x="408.210938"/>
      <use xlink:href="#DejaVuSans-63" x="435.994141"/>
      <use xlink:href="#DejaVuSans-65" x="490.974609"/>
      <use xlink:href="#DejaVuSans-73" x="552.498047"/>
     </g>
    </g>
   </g>
   <g id="line2d_16">
    <path d="M 73.832727 120.41719 
L 74.724635 117.044815 
L 75.616543 122.103377 
L 76.508452 120.838737 
L 77.40036 114.726307 
L 78.292268 110.721612 
L 79.184176 113.67244 
L 80.076084 113.67244 
L 80.967992 112.618573 
L 81.8599 114.093987 
L 83.643716 114.515534 
L 84.535624 119.995643 
L 85.427532 119.995643 
L 86.319441 117.466362 
L 88.103257 113.883213 
L 88.995165 111.986253 
L 89.887073 111.564706 
L 90.778981 111.564706 
L 91.670889 111.353932 
L 92.562797 112.197026 
L 93.454705 111.986253 
L 94.346613 111.986253 
L 95.238521 111.775479 
L 96.13043 110.089292 
L 97.022338 107.349237 
L 97.914246 111.986253 
L 98.806154 114.093987 
L 99.698062 116.623268 
L 100.58997 113.67244 
L 101.481878 116.201721 
L 102.373786 129.480448 
L 103.265694 123.789565 
L 104.157602 132.431276 
L 105.04951 129.691221 
L 105.941419 129.691221 
L 106.833327 123.157245 
L 107.725235 119.995643 
L 108.617143 120.206417 
L 109.509051 119.574096 
L 110.400959 119.574096 
L 111.292867 117.044815 
L 112.184775 114.937081 
L 113.076683 111.564706 
L 113.968591 111.143159 
L 114.8605 111.143159 
L 115.752408 112.829346 
L 116.644316 113.461667 
L 117.536224 109.456971 
L 118.428132 112.197026 
L 119.32004 111.353932 
L 121.103856 95.124378 
L 121.995764 90.908909 
L 122.887672 85.007253 
L 123.77958 87.114987 
L 124.671489 86.271894 
L 125.563397 84.585706 
L 126.455305 87.958081 
L 128.239121 92.17355 
L 129.131029 91.752003 
L 130.022937 93.016643 
L 130.914845 96.389018 
L 131.806753 98.075206 
L 132.698661 97.653659 
L 133.590569 98.9183 
L 134.482478 93.43819 
L 135.374386 96.810565 
L 136.266294 95.124378 
L 137.158202 93.859737 
L 138.05011 95.124378 
L 138.942018 90.065815 
L 139.833926 89.644269 
L 140.725834 90.065815 
L 141.617742 91.330456 
L 142.50965 94.281284 
L 143.401558 95.545925 
L 144.293467 93.43819 
L 145.185375 94.281284 
L 146.077283 95.967472 
L 146.969191 95.967472 
L 147.861099 97.232112 
L 148.753007 97.653659 
L 149.644915 97.864432 
L 150.536823 99.55062 
L 151.428731 99.55062 
L 152.320639 98.9183 
L 153.212547 97.653659 
L 154.104456 97.021339 
L 154.996364 99.55062 
L 155.888272 100.604487 
L 156.78018 101.447581 
L 157.672088 99.339847 
L 158.563996 98.9183 
L 159.455904 96.810565 
L 160.347812 99.339847 
L 161.23972 107.349237 
L 162.131628 104.398409 
L 163.023536 101.026034 
L 163.915445 103.766089 
L 164.807353 103.976862 
L 165.699261 101.869128 
L 166.591169 102.290675 
L 167.483077 103.976862 
L 168.374985 103.133768 
L 169.266893 101.658354 
L 170.158801 101.658354 
L 171.050709 102.712221 
L 171.942617 101.869128 
L 172.834525 104.609182 
L 173.726434 103.555315 
L 174.618342 103.555315 
L 175.51025 93.859737 
L 176.402158 94.281284 
L 177.294066 93.859737 
L 178.185974 95.967472 
L 179.077882 95.124378 
L 179.96979 90.908909 
L 180.861698 91.330456 
L 181.753606 93.43819 
L 182.645514 94.281284 
L 183.537423 93.016643 
L 184.429331 94.281284 
L 185.321239 93.43819 
L 186.213147 91.330456 
L 187.105055 93.859737 
L 187.996963 87.114987 
L 188.888871 90.065815 
L 190.672687 77.840956 
L 191.564595 80.370237 
L 192.456503 81.213331 
L 193.348412 87.114987 
L 194.24032 80.791784 
L 195.132228 79.948691 
L 196.024136 83.321065 
L 196.916044 83.742612 
L 197.807952 85.4288 
L 198.69986 83.742612 
L 199.591768 76.576316 
L 200.483676 76.997862 
L 201.375584 76.154769 
L 202.267493 77.419409 
L 203.159401 76.154769 
L 204.943217 74.468581 
L 205.835125 73.203941 
L 206.727033 70.674659 
L 207.618941 66.037644 
L 208.510849 66.037644 
L 209.402757 67.302284 
L 210.294665 70.674659 
L 211.186573 71.517753 
L 212.078482 71.096206 
L 212.97039 84.164159 
L 213.862298 82.899519 
L 214.754206 76.154769 
L 215.646114 78.68405 
L 216.538022 80.370237 
L 217.42993 85.850347 
L 218.321838 93.859737 
L 219.213746 108.613878 
L 220.105654 101.026034 
L 220.997562 103.133768 
L 221.889471 98.075206 
L 224.565195 87.536534 
L 225.457103 88.379628 
L 226.349011 84.164159 
L 227.240919 72.782394 
L 228.132827 71.096206 
L 229.024735 70.674659 
L 229.916643 66.459191 
L 230.808551 68.145378 
L 231.70046 66.037644 
L 232.592368 61.400628 
L 233.484276 62.243722 
L 234.376184 58.871347 
L 235.268092 60.557535 
L 236.16 60.979081 
L 237.051908 63.929909 
L 237.943816 63.086816 
L 238.835724 61.400628 
L 239.727632 68.988472 
L 240.61954 72.360847 
L 241.511449 73.203941 
L 242.403357 73.203941 
L 243.295265 66.880738 
L 244.187173 63.929909 
L 245.079081 63.929909 
L 245.970989 64.351456 
L 246.862897 70.253113 
L 247.754805 71.517753 
L 248.646713 66.459191 
L 249.538621 70.253113 
L 250.430529 70.674659 
L 252.214346 73.203941 
L 253.106254 73.625487 
L 253.998162 75.311675 
L 254.89007 70.253113 
L 255.781978 69.410019 
L 256.673886 71.9393 
L 257.565794 72.360847 
L 258.457702 72.360847 
L 259.34961 71.9393 
L 261.133427 71.9393 
L 262.025335 76.154769 
L 262.917243 74.890128 
L 263.809151 78.262503 
L 264.701059 85.007253 
L 265.592967 86.271894 
L 266.484875 84.585706 
L 267.376783 92.595097 
L 268.268691 92.595097 
L 269.160599 97.021339 
L 270.052507 102.712221 
L 270.944416 96.810565 
L 271.836324 95.545925 
L 272.728232 98.285979 
L 273.62014 93.016643 
L 275.403956 93.859737 
L 276.295864 82.899519 
L 277.187772 84.164159 
L 278.07968 82.899519 
L 278.971588 79.948691 
L 279.863497 76.576316 
L 280.755405 79.948691 
L 281.647313 79.948691 
L 283.431129 78.262503 
L 284.323037 65.616097 
L 285.214945 70.253113 
L 286.106853 70.674659 
L 286.998761 74.468581 
L 287.890669 80.370237 
L 288.782577 76.576316 
L 289.674486 77.419409 
L 290.566394 76.997862 
L 291.458302 74.890128 
L 292.35021 74.047034 
L 293.242118 66.459191 
L 294.134026 68.988472 
L 295.025934 76.997862 
L 295.917842 80.791784 
L 296.80975 86.271894 
L 297.701658 79.948691 
L 298.593566 75.733222 
L 299.485475 76.576316 
L 300.377383 71.517753 
L 301.269291 68.566925 
L 302.161199 69.410019 
L 303.053107 60.557535 
L 303.945015 60.557535 
L 304.836923 69.410019 
L 305.728831 71.517753 
L 306.620739 69.410019 
L 307.512647 66.880738 
L 308.404555 70.674659 
L 309.296464 76.576316 
L 310.188372 73.625487 
L 311.08028 74.047034 
L 311.972188 77.840956 
L 312.864096 89.644269 
L 313.756004 83.321065 
L 314.647912 87.114987 
L 315.53982 93.43819 
L 316.431728 98.285979 
L 317.323636 92.595097 
L 318.215544 93.016643 
L 319.107453 93.016643 
L 319.999361 92.17355 
L 320.891269 101.026034 
L 321.783177 99.55062 
L 322.675085 96.810565 
L 323.566993 93.016643 
L 324.458901 95.967472 
L 325.350809 97.232112 
L 326.242717 95.545925 
L 327.134625 94.702831 
L 328.026533 92.595097 
L 328.918442 91.330456 
L 329.81035 90.487362 
L 330.702258 91.752003 
L 331.594166 87.114987 
L 332.486074 86.69344 
L 333.377982 84.585706 
L 334.26989 84.585706 
L 335.161798 80.791784 
L 336.945614 84.164159 
L 337.837522 84.585706 
L 338.729431 87.958081 
L 339.621339 90.065815 
L 340.513247 90.065815 
L 341.405155 90.487362 
L 342.297063 98.496753 
L 343.188971 103.133768 
L 344.080879 101.869128 
L 344.972787 98.707526 
L 345.864695 102.290675 
L 346.756603 98.9183 
L 347.648511 98.707526 
L 348.54042 98.075206 
L 349.432328 93.43819 
L 350.324236 92.17355 
L 351.216144 95.124378 
L 352.108052 99.761393 
L 352.99996 94.281284 
L 353.891868 94.702831 
L 355.675684 96.389018 
L 356.567592 93.016643 
L 357.4595 92.595097 
L 358.351409 93.859737 
L 359.243317 96.810565 
L 360.135225 98.496753 
L 361.027133 96.389018 
L 361.919041 95.967472 
L 362.810949 96.810565 
L 363.702857 96.389018 
L 365.486673 88.379628 
L 366.378581 90.065815 
L 367.27049 88.801175 
L 368.162398 80.791784 
L 369.054306 80.370237 
L 369.946214 80.370237 
L 370.838122 79.948691 
L 371.73003 80.370237 
L 372.621938 76.154769 
L 373.513846 75.733222 
L 374.405754 80.791784 
L 375.297662 80.370237 
L 376.18957 81.634878 
L 377.081479 78.262503 
L 377.973387 76.576316 
L 378.865295 80.370237 
L 379.757203 82.056425 
L 380.649111 84.585706 
L 381.541019 79.527144 
L 382.432927 77.419409 
L 383.324835 74.468581 
L 384.216743 76.576316 
L 385.108651 79.527144 
L 386.000559 80.370237 
L 386.892468 78.68405 
L 387.784376 84.164159 
L 388.676284 85.4288 
L 389.568192 80.370237 
L 390.4601 76.997862 
L 391.352008 77.840956 
L 392.243916 61.822175 
L 393.135824 55.498972 
L 394.027732 54.655878 
L 394.91964 54.234331 
L 395.811548 59.714441 
L 396.703457 45.803394 
L 397.595365 50.44041 
L 398.487273 57.18516 
L 398.487273 57.18516 
" clip-path="url(#p0d847b6562)" style="fill: none; stroke: #ff0000; stroke-width: 1.5; stroke-linecap: square"/>
   </g>
   <g id="line2d_17">
    <path d="M 73.832727 107.550641 
L 74.724635 110.118257 
L 75.616543 115.810588 
L 76.508452 117.795498 
L 77.40036 117.253876 
L 79.184176 111.615736 
L 80.076084 109.397658 
L 80.967992 110.486698 
L 81.8599 111.352401 
L 82.751808 111.884027 
L 83.643716 113.351044 
L 84.535624 112.693233 
L 85.427532 113.318621 
L 86.319441 115.548258 
L 87.211349 116.573852 
L 88.103257 115.991705 
L 88.995165 115.000691 
L 89.887073 113.120197 
L 90.778981 111.869454 
L 91.670889 111.919365 
L 92.562797 111.44389 
L 93.454705 111.916187 
L 94.346613 111.74024 
L 95.238521 112.425419 
L 96.13043 111.992971 
L 97.022338 109.918252 
L 97.914246 106.962665 
L 98.806154 108.610238 
L 99.698062 111.754748 
L 100.58997 113.455459 
L 101.481878 114.531161 
L 102.373786 115.42377 
L 103.265694 119.497543 
L 104.157602 121.830854 
L 105.04951 124.98195 
L 105.941419 126.952517 
L 106.833327 128.199307 
L 107.725235 126.30126 
L 109.509051 121.394751 
L 110.400959 120.311441 
L 111.292867 120.292685 
L 112.184775 119.415061 
L 113.076683 117.525724 
L 113.968591 115.024008 
L 114.8605 113.022896 
L 115.752408 112.57352 
L 117.536224 114.259856 
L 119.32004 111.894237 
L 120.211948 111.47129 
L 121.103856 108.286619 
L 122.887672 95.560004 
L 123.77958 86.435226 
L 124.671489 82.506261 
L 125.563397 82.984388 
L 126.455305 86.375551 
L 127.347213 88.120064 
L 128.239121 87.933068 
L 129.131029 89.035067 
L 130.022937 90.656146 
L 130.914845 91.876738 
L 131.806753 92.685894 
L 132.698661 94.394937 
L 133.590569 95.641415 
L 135.374386 96.922061 
L 138.05011 94.228261 
L 138.942018 94.853155 
L 140.725834 92.072428 
L 142.50965 91.879636 
L 143.401558 92.404939 
L 144.293467 94.498282 
L 145.185375 94.622276 
L 147.861099 95.357101 
L 148.753007 95.98486 
L 149.644915 97.254046 
L 150.536823 97.732831 
L 152.320639 99.342399 
L 153.212547 99.318292 
L 154.104456 97.809187 
L 155.888272 98.401575 
L 156.78018 100.236539 
L 157.672088 101.539004 
L 158.563996 102.274883 
L 160.347812 100.114604 
L 161.23972 99.790474 
L 163.023536 105.612382 
L 163.915445 105.719662 
L 164.807353 104.893957 
L 165.699261 104.258426 
L 167.483077 102.651838 
L 168.374985 103.860904 
L 169.266893 104.239818 
L 170.158801 105.408047 
L 171.050709 103.525099 
L 171.942617 102.90498 
L 172.834525 103.385725 
L 173.726434 102.360164 
L 174.618342 103.351342 
L 175.51025 103.519895 
L 176.402158 97.787566 
L 177.294066 95.078205 
L 178.185974 94.816204 
L 179.077882 95.682977 
L 179.96979 95.542187 
L 180.861698 92.185603 
L 181.753606 91.993816 
L 182.645514 92.664882 
L 183.537423 94.836787 
L 184.429331 94.932311 
L 185.321239 94.127815 
L 186.213147 92.602424 
L 187.105055 92.399538 
L 187.996963 92.556268 
L 188.888871 89.353599 
L 189.780779 88.028805 
L 190.672687 87.071861 
L 191.564595 82.809199 
L 192.456503 79.793196 
L 193.348412 81.352013 
L 194.24032 83.586442 
L 195.132228 84.69707 
L 196.024136 82.877618 
L 196.916044 82.891763 
L 197.807952 81.823899 
L 198.69986 87.000099 
L 199.591768 87.472001 
L 200.483676 79.793278 
L 201.375584 76.443265 
L 202.267493 76.840425 
L 203.159401 77.567033 
L 204.051309 74.927853 
L 204.943217 75.649061 
L 205.835125 73.752561 
L 206.727033 73.22706 
L 208.510849 65.715918 
L 209.402757 66.748411 
L 210.294665 66.639106 
L 211.186573 68.167164 
L 212.078482 70.649268 
L 212.97039 70.323787 
L 213.862298 76.004971 
L 214.754206 80.820782 
L 215.646114 79.491345 
L 216.538022 76.06053 
L 217.42993 76.865042 
L 218.321838 80.099377 
L 219.213746 85.735854 
L 220.105654 95.323839 
L 220.997562 101.677307 
L 221.889471 100.206537 
L 222.781379 97.839914 
L 223.673287 94.391693 
L 224.565195 93.226001 
L 225.457103 90.604457 
L 226.349011 86.330054 
L 227.240919 87.171435 
L 228.132827 81.351865 
L 229.024735 74.288469 
L 229.916643 72.069074 
L 230.808551 67.058841 
L 231.70046 67.303882 
L 232.592368 65.928338 
L 233.484276 61.596219 
L 234.376184 64.556862 
L 235.268092 53.046343 
L 236.16 54.403148 
L 237.051908 56.432517 
L 237.943816 60.338676 
L 238.835724 58.148658 
L 239.727632 58.177129 
L 240.61954 61.24375 
L 242.403357 68.897905 
L 243.295265 70.340616 
L 244.187173 63.425058 
L 245.079081 59.956254 
L 245.970989 59.343792 
L 246.862897 61.74409 
L 247.754805 63.771055 
L 248.646713 70.475133 
L 249.538621 68.191748 
L 250.430529 67.176644 
L 251.322438 69.049596 
L 252.214346 73.646515 
L 253.106254 71.462145 
L 253.998162 70.280678 
L 254.89007 69.800427 
L 255.781978 70.711923 
L 256.673886 67.490037 
L 257.565794 65.710056 
L 258.457702 69.474436 
L 259.34961 70.981648 
L 260.241518 71.159586 
L 261.133427 70.682119 
L 262.025335 69.547861 
L 262.917243 70.952518 
L 263.809151 74.528619 
L 264.701059 72.983073 
L 265.592967 78.629842 
L 266.484875 82.073468 
L 267.376783 81.884842 
L 269.160599 87.425565 
L 270.944416 93.994138 
L 271.836324 96.052028 
L 272.728232 95.403686 
L 273.62014 96.087563 
L 274.512048 91.900401 
L 275.403956 92.238066 
L 276.295864 91.728044 
L 277.187772 85.988551 
L 278.07968 82.933144 
L 279.863497 80.141581 
L 280.755405 77.066957 
L 281.647313 75.403592 
L 282.539221 77.074202 
L 283.431129 75.074884 
L 284.323037 78.266126 
L 285.214945 73.641378 
L 286.106853 68.087811 
L 286.998761 65.725633 
L 287.890669 66.163268 
L 288.782577 71.795678 
L 289.674486 73.788228 
L 290.566394 72.717416 
L 291.458302 74.88173 
L 292.35021 68.301285 
L 293.242118 67.7086 
L 294.134026 63.911055 
L 295.025934 61.59421 
L 295.917842 66.333632 
L 296.80975 75.231466 
L 297.701658 80.550696 
L 298.593566 75.513293 
L 299.485475 67.718117 
L 300.377383 66.150918 
L 301.269291 69.349323 
L 302.161199 70.422242 
L 303.053107 68.787299 
L 303.945015 53.878306 
L 304.836923 55.347281 
L 305.728831 63.121379 
L 306.620739 67.122715 
L 307.512647 68.074094 
L 308.404555 63.520449 
L 309.296464 64.441068 
L 311.08028 70.163995 
L 311.972188 70.266253 
L 312.864096 70.720601 
L 313.756004 74.838999 
L 314.647912 79.845691 
L 315.53982 81.732674 
L 316.431728 83.243178 
L 317.323636 87.999116 
L 318.215544 90.493735 
L 319.107453 89.654741 
L 319.999361 89.639724 
L 320.891269 88.68436 
L 321.783177 92.858777 
L 322.675085 96.25083 
L 323.566993 95.142936 
L 324.458901 93.535261 
L 325.350809 92.603215 
L 326.242717 94.572958 
L 327.134625 94.141317 
L 328.026533 94.705186 
L 328.918442 92.580869 
L 329.81035 90.795553 
L 330.702258 90.318101 
L 331.594166 90.261555 
L 332.486074 87.244448 
L 333.377982 87.309278 
L 334.26989 84.091788 
L 335.161798 84.102821 
L 336.053706 78.194035 
L 336.945614 78.343931 
L 337.837522 81.018119 
L 338.729431 82.83026 
L 339.621339 87.892692 
L 340.513247 87.872981 
L 341.405155 88.735374 
L 342.297063 89.340376 
L 343.188971 90.160861 
L 344.080879 94.741643 
L 344.972787 98.364361 
L 345.864695 98.163813 
L 346.756603 98.08637 
L 347.648511 98.720749 
L 348.54042 97.282764 
L 349.432328 96.153035 
L 350.324236 94.182863 
L 351.216144 91.068257 
L 352.108052 91.773459 
L 352.99996 95.061327 
L 353.891868 96.114338 
L 355.675684 92.659531 
L 356.567592 93.825322 
L 357.4595 94.187523 
L 358.351409 91.969989 
L 359.243317 91.885284 
L 360.135225 92.676574 
L 361.027133 95.890737 
L 361.919041 96.915705 
L 362.810949 95.241127 
L 363.702857 94.487315 
L 364.594765 93.212482 
L 365.486673 90.98044 
L 366.378581 88.321517 
L 367.27049 89.142167 
L 368.162398 87.343594 
L 369.054306 79.437269 
L 369.946214 80.269511 
L 370.838122 80.516511 
L 371.73003 79.180306 
L 372.621938 81.176298 
L 374.405754 73.309739 
L 375.297662 76.268109 
L 376.18957 78.817842 
L 377.081479 79.208497 
L 377.973387 77.231557 
L 378.865295 77.448572 
L 379.757203 78.641862 
L 380.649111 79.250718 
L 381.541019 80.250245 
L 382.432927 80.146044 
L 383.324835 73.90491 
L 384.216743 72.997877 
L 385.108651 74.738964 
L 386.000559 74.49641 
L 386.892468 76.454248 
L 387.784376 76.595367 
L 388.676284 77.688211 
L 389.568192 81.153936 
L 390.4601 78.345693 
L 391.352008 74.611726 
L 392.243916 76.728171 
L 393.135824 57.731672 
L 394.027732 50.637038 
L 394.91964 57.781385 
L 395.811548 53.310156 
L 396.703457 54.815737 
L 397.595365 48.434653 
L 398.487273 48.371718 
L 398.487273 48.371718 
" clip-path="url(#p0d847b6562)" style="fill: none; stroke: #0000ff; stroke-width: 1.5; stroke-linecap: square"/>
   </g>
   <g id="patch_3">
    <path d="M 57.6 307.584 
L 57.6 41.472 
" style="fill: none; stroke: #000000; stroke-width: 0.8; stroke-linejoin: miter; stroke-linecap: square"/>
   </g>
   <g id="patch_4">
    <path d="M 414.72 307.584 
L 414.72 41.472 
" style="fill: none; stroke: #000000; stroke-width: 0.8; stroke-linejoin: miter; stroke-linecap: square"/>
   </g>
   <g id="patch_5">
    <path d="M 57.6 307.584 
L 414.72 307.584 
" style="fill: none; stroke: #000000; stroke-width: 0.8; stroke-linejoin: miter; stroke-linecap: square"/>
   </g>
   <g id="patch_6">
    <path d="M 57.6 41.472 
L 414.72 41.472 
" style="fill: none; stroke: #000000; stroke-width: 0.8; stroke-linejoin: miter; stroke-linecap: square"/>
   </g>
   <g id="text_18">
    <!-- PLX Prices -->
    <g transform="translate(205.419375 35.472)scale(0.12 -0.12)">
     <defs>
      <path id="DejaVuSans-4c" d="M 628 4666 
L 1259 4666 
L 1259 531 
L 3531 531 
L 3531 0 
L 628 0 
L 628 4666 
z
" transform="scale(0.015625)"/>
      <path id="DejaVuSans-58" d="M 403 4666 
L 1081 4666 
L 2241 2931 
L 3406 4666 
L 4084 4666 
L 2584 2425 
L 4184 0 
L 3506 0 
L 2194 1984 
L 872 0 
L 191 0 
L 1856 2491 
L 403 4666 
z
" transform="scale(0.015625)"/>
     </defs>
     <use xlink:href="#DejaVuSans-50"/>
     <use xlink:href="#DejaVuSans-4c" x="60.302734"/>
     <use xlink:href="#DejaVuSans-58" x="116.015625"/>
     <use xlink:href="#DejaVuSans-20" x="184.521484"/>
     <use xlink:href="#DejaVuSans-50" x="216.308594"/>
     <use xlink:href="#DejaVuSans-72" x="274.861328"/>
     <use xlink:href="#DejaVuSans-69" x="315.974609"/>
     <use xlink:href="#DejaVuSans-63" x="343.757812"/>
     <use xlink:href="#DejaVuSans-65" x="398.738281"/>
     <use xlink:href="#DejaVuSans-73" x="460.261719"/>
    </g>
   </g>
   <g id="legend_1">
    <g id="patch_7">
     <path d="M 64.6 302.584 
L 197.953125 302.584 
Q 199.953125 302.584 199.953125 300.584 
L 199.953125 272.22775 
Q 199.953125 270.22775 197.953125 270.22775 
L 64.6 270.22775 
Q 62.6 270.22775 62.6 272.22775 
L 62.6 300.584 
Q 62.6 302.584 64.6 302.584 
z
" style="fill: #ffffff; opacity: 0.8; stroke: #cccccc; stroke-linejoin: miter"/>
    </g>
    <g id="line2d_18">
     <path d="M 66.6 278.326187 
L 76.6 278.326187 
L 86.6 278.326187 
" style="fill: none; stroke: #ff0000; stroke-width: 1.5; stroke-linecap: square"/>
    </g>
    <g id="text_19">
     <!-- Real PLX Prices -->
     <g transform="translate(94.6 281.826187)scale(0.1 -0.1)">
      <defs>
       <path id="DejaVuSans-52" d="M 2841 2188 
Q 3044 2119 3236 1894 
Q 3428 1669 3622 1275 
L 4263 0 
L 3584 0 
L 2988 1197 
Q 2756 1666 2539 1819 
Q 2322 1972 1947 1972 
L 1259 1972 
L 1259 0 
L 628 0 
L 628 4666 
L 2053 4666 
Q 2853 4666 3247 4331 
Q 3641 3997 3641 3322 
Q 3641 2881 3436 2590 
Q 3231 2300 2841 2188 
z
M 1259 4147 
L 1259 2491 
L 2053 2491 
Q 2509 2491 2742 2702 
Q 2975 2913 2975 3322 
Q 2975 3731 2742 3939 
Q 2509 4147 2053 4147 
L 1259 4147 
z
" transform="scale(0.015625)"/>
       <path id="DejaVuSans-61" d="M 2194 1759 
Q 1497 1759 1228 1600 
Q 959 1441 959 1056 
Q 959 750 1161 570 
Q 1363 391 1709 391 
Q 2188 391 2477 730 
Q 2766 1069 2766 1631 
L 2766 1759 
L 2194 1759 
z
M 3341 1997 
L 3341 0 
L 2766 0 
L 2766 531 
Q 2569 213 2275 61 
Q 1981 -91 1556 -91 
Q 1019 -91 701 211 
Q 384 513 384 1019 
Q 384 1609 779 1909 
Q 1175 2209 1959 2209 
L 2766 2209 
L 2766 2266 
Q 2766 2663 2505 2880 
Q 2244 3097 1772 3097 
Q 1472 3097 1187 3025 
Q 903 2953 641 2809 
L 641 3341 
Q 956 3463 1253 3523 
Q 1550 3584 1831 3584 
Q 2591 3584 2966 3190 
Q 3341 2797 3341 1997 
z
" transform="scale(0.015625)"/>
       <path id="DejaVuSans-6c" d="M 603 4863 
L 1178 4863 
L 1178 0 
L 603 0 
L 603 4863 
z
" transform="scale(0.015625)"/>
      </defs>
      <use xlink:href="#DejaVuSans-52"/>
      <use xlink:href="#DejaVuSans-65" x="64.982422"/>
      <use xlink:href="#DejaVuSans-61" x="126.505859"/>
      <use xlink:href="#DejaVuSans-6c" x="187.785156"/>
      <use xlink:href="#DejaVuSans-20" x="215.568359"/>
      <use xlink:href="#DejaVuSans-50" x="247.355469"/>
      <use xlink:href="#DejaVuSans-4c" x="307.658203"/>
      <use xlink:href="#DejaVuSans-58" x="363.371094"/>
      <use xlink:href="#DejaVuSans-20" x="431.876953"/>
      <use xlink:href="#DejaVuSans-50" x="463.664062"/>
      <use xlink:href="#DejaVuSans-72" x="522.216797"/>
      <use xlink:href="#DejaVuSans-69" x="563.330078"/>
      <use xlink:href="#DejaVuSans-63" x="591.113281"/>
      <use xlink:href="#DejaVuSans-65" x="646.09375"/>
      <use xlink:href="#DejaVuSans-73" x="707.617188"/>
     </g>
    </g>
    <g id="line2d_19">
     <path d="M 66.6 293.004312 
L 76.6 293.004312 
L 86.6 293.004312 
" style="fill: none; stroke: #0000ff; stroke-width: 1.5; stroke-linecap: square"/>
    </g>
    <g id="text_20">
     <!-- Predicted PLX Prices -->
     <g transform="translate(94.6 296.504312)scale(0.1 -0.1)">
      <defs>
       <path id="DejaVuSans-64" d="M 2906 2969 
L 2906 4863 
L 3481 4863 
L 3481 0 
L 2906 0 
L 2906 525 
Q 2725 213 2448 61 
Q 2172 -91 1784 -91 
Q 1150 -91 751 415 
Q 353 922 353 1747 
Q 353 2572 751 3078 
Q 1150 3584 1784 3584 
Q 2172 3584 2448 3432 
Q 2725 3281 2906 2969 
z
M 947 1747 
Q 947 1113 1208 752 
Q 1469 391 1925 391 
Q 2381 391 2643 752 
Q 2906 1113 2906 1747 
Q 2906 2381 2643 2742 
Q 2381 3103 1925 3103 
Q 1469 3103 1208 2742 
Q 947 2381 947 1747 
z
" transform="scale(0.015625)"/>
      </defs>
      <use xlink:href="#DejaVuSans-50"/>
      <use xlink:href="#DejaVuSans-72" x="58.552734"/>
      <use xlink:href="#DejaVuSans-65" x="97.416016"/>
      <use xlink:href="#DejaVuSans-64" x="158.939453"/>
      <use xlink:href="#DejaVuSans-69" x="222.416016"/>
      <use xlink:href="#DejaVuSans-63" x="250.199219"/>
      <use xlink:href="#DejaVuSans-74" x="305.179688"/>
      <use xlink:href="#DejaVuSans-65" x="344.388672"/>
      <use xlink:href="#DejaVuSans-64" x="405.912109"/>
      <use xlink:href="#DejaVuSans-20" x="469.388672"/>
      <use xlink:href="#DejaVuSans-50" x="501.175781"/>
      <use xlink:href="#DejaVuSans-4c" x="561.478516"/>
      <use xlink:href="#DejaVuSans-58" x="617.191406"/>
      <use xlink:href="#DejaVuSans-20" x="685.697266"/>
      <use xlink:href="#DejaVuSans-50" x="717.484375"/>
      <use xlink:href="#DejaVuSans-72" x="776.037109"/>
      <use xlink:href="#DejaVuSans-69" x="817.150391"/>
      <use xlink:href="#DejaVuSans-63" x="844.933594"/>
      <use xlink:href="#DejaVuSans-65" x="899.914062"/>
      <use xlink:href="#DejaVuSans-73" x="961.4375"/>
     </g>
    </g>
   </g>
  </g>
 </g>
 <defs>
  <clipPath id="p0d847b6562">
   <rect x="57.6" y="41.472" width="357.12" height="266.112"/>
  </clipPath>
 </defs>
</svg>
