<?xml version="1.0" encoding="utf-8" standalone="no"?>
<!DOCTYPE svg PUBLIC "-//W3C//DTD SVG 1.1//EN"
  "http://www.w3.org/Graphics/SVG/1.1/DTD/svg11.dtd">
<svg height="345.6pt" version="1.1" viewBox="0 0 460.8 345.6" width="460.8pt" xmlns="http://www.w3.org/2000/svg" xmlns:xlink="http://www.w3.org/1999/xlink">
 <metadata>
  <rdf:RDF xmlns:cc="http://creativecommons.org/ns#" xmlns:dc="http://purl.org/dc/elements/1.1/" xmlns:rdf="http://www.w3.org/1999/02/22-rdf-syntax-ns#">
   <cc:Work>
    <dc:type rdf:resource="http://purl.org/dc/dcmitype/StillImage"/>
    <dc:date>2021-11-27T16:42:54.784706</dc:date>
    <dc:format>image/svg+xml</dc:format>
    <dc:creator>
     <cc:Agent>
      <dc:title>Matplotlib v3.4.3, https://matplotlib.org/</dc:title>
     </cc:Agent>
    </dc:creator>
   </cc:Work>
  </rdf:RDF>
 </metadata>
 <defs>
  <style type="text/css">*{stroke-linecap:butt;stroke-linejoin:round;}</style>
 </defs>
 <g id="figure_1">
  <g id="patch_1">
   <path d="M 0 345.6 
L 460.8 345.6 
L 460.8 0 
L 0 0 
z
" style="fill:#ffffff;"/>
  </g>
  <g id="axes_1">
   <g id="patch_2">
    <path d="M 57.6 307.584 
L 414.72 307.584 
L 414.72 41.472 
L 57.6 41.472 
z
" style="fill:#ffffff;"/>
   </g>
   <g id="matplotlib.axis_1">
    <g id="xtick_1">
     <g id="line2d_1">
      <defs>
       <path d="M 0 0 
L 0 3.5 
" id="m0da14fee92" style="stroke:#000000;stroke-width:0.8;"/>
      </defs>
      <g>
       <use style="stroke:#000000;stroke-width:0.8;" x="73.832727" xlink:href="#m0da14fee92" y="307.584"/>
      </g>
     </g>
     <g id="text_1">
      <!-- 0 -->
      <g transform="translate(70.651477 322.182437)scale(0.1 -0.1)">
       <defs>
        <path d="M 2034 4250 
Q 1547 4250 1301 3770 
Q 1056 3291 1056 2328 
Q 1056 1369 1301 889 
Q 1547 409 2034 409 
Q 2525 409 2770 889 
Q 3016 1369 3016 2328 
Q 3016 3291 2770 3770 
Q 2525 4250 2034 4250 
z
M 2034 4750 
Q 2819 4750 3233 4129 
Q 3647 3509 3647 2328 
Q 3647 1150 3233 529 
Q 2819 -91 2034 -91 
Q 1250 -91 836 529 
Q 422 1150 422 2328 
Q 422 3509 836 4129 
Q 1250 4750 2034 4750 
z
" id="DejaVuSans-30" transform="scale(0.015625)"/>
       </defs>
       <use xlink:href="#DejaVuSans-30"/>
      </g>
     </g>
    </g>
    <g id="xtick_2">
     <g id="line2d_2">
      <g>
       <use style="stroke:#000000;stroke-width:0.8;" x="118.428132" xlink:href="#m0da14fee92" y="307.584"/>
      </g>
     </g>
     <g id="text_2">
      <!-- 50 -->
      <g transform="translate(112.065632 322.182437)scale(0.1 -0.1)">
       <defs>
        <path d="M 691 4666 
L 3169 4666 
L 3169 4134 
L 1269 4134 
L 1269 2991 
Q 1406 3038 1543 3061 
Q 1681 3084 1819 3084 
Q 2600 3084 3056 2656 
Q 3513 2228 3513 1497 
Q 3513 744 3044 326 
Q 2575 -91 1722 -91 
Q 1428 -91 1123 -41 
Q 819 9 494 109 
L 494 744 
Q 775 591 1075 516 
Q 1375 441 1709 441 
Q 2250 441 2565 725 
Q 2881 1009 2881 1497 
Q 2881 1984 2565 2268 
Q 2250 2553 1709 2553 
Q 1456 2553 1204 2497 
Q 953 2441 691 2322 
L 691 4666 
z
" id="DejaVuSans-35" transform="scale(0.015625)"/>
       </defs>
       <use xlink:href="#DejaVuSans-35"/>
       <use x="63.623047" xlink:href="#DejaVuSans-30"/>
      </g>
     </g>
    </g>
    <g id="xtick_3">
     <g id="line2d_3">
      <g>
       <use style="stroke:#000000;stroke-width:0.8;" x="163.023536" xlink:href="#m0da14fee92" y="307.584"/>
      </g>
     </g>
     <g id="text_3">
      <!-- 100 -->
      <g transform="translate(153.479786 322.182437)scale(0.1 -0.1)">
       <defs>
        <path d="M 794 531 
L 1825 531 
L 1825 4091 
L 703 3866 
L 703 4441 
L 1819 4666 
L 2450 4666 
L 2450 531 
L 3481 531 
L 3481 0 
L 794 0 
L 794 531 
z
" id="DejaVuSans-31" transform="scale(0.015625)"/>
       </defs>
       <use xlink:href="#DejaVuSans-31"/>
       <use x="63.623047" xlink:href="#DejaVuSans-30"/>
       <use x="127.246094" xlink:href="#DejaVuSans-30"/>
      </g>
     </g>
    </g>
    <g id="xtick_4">
     <g id="line2d_4">
      <g>
       <use style="stroke:#000000;stroke-width:0.8;" x="207.618941" xlink:href="#m0da14fee92" y="307.584"/>
      </g>
     </g>
     <g id="text_4">
      <!-- 150 -->
      <g transform="translate(198.075191 322.182437)scale(0.1 -0.1)">
       <use xlink:href="#DejaVuSans-31"/>
       <use x="63.623047" xlink:href="#DejaVuSans-35"/>
       <use x="127.246094" xlink:href="#DejaVuSans-30"/>
      </g>
     </g>
    </g>
    <g id="xtick_5">
     <g id="line2d_5">
      <g>
       <use style="stroke:#000000;stroke-width:0.8;" x="252.214346" xlink:href="#m0da14fee92" y="307.584"/>
      </g>
     </g>
     <g id="text_5">
      <!-- 200 -->
      <g transform="translate(242.670596 322.182437)scale(0.1 -0.1)">
       <defs>
        <path d="M 1228 531 
L 3431 531 
L 3431 0 
L 469 0 
L 469 531 
Q 828 903 1448 1529 
Q 2069 2156 2228 2338 
Q 2531 2678 2651 2914 
Q 2772 3150 2772 3378 
Q 2772 3750 2511 3984 
Q 2250 4219 1831 4219 
Q 1534 4219 1204 4116 
Q 875 4013 500 3803 
L 500 4441 
Q 881 4594 1212 4672 
Q 1544 4750 1819 4750 
Q 2544 4750 2975 4387 
Q 3406 4025 3406 3419 
Q 3406 3131 3298 2873 
Q 3191 2616 2906 2266 
Q 2828 2175 2409 1742 
Q 1991 1309 1228 531 
z
" id="DejaVuSans-32" transform="scale(0.015625)"/>
       </defs>
       <use xlink:href="#DejaVuSans-32"/>
       <use x="63.623047" xlink:href="#DejaVuSans-30"/>
       <use x="127.246094" xlink:href="#DejaVuSans-30"/>
      </g>
     </g>
    </g>
    <g id="xtick_6">
     <g id="line2d_6">
      <g>
       <use style="stroke:#000000;stroke-width:0.8;" x="296.80975" xlink:href="#m0da14fee92" y="307.584"/>
      </g>
     </g>
     <g id="text_6">
      <!-- 250 -->
      <g transform="translate(287.266 322.182437)scale(0.1 -0.1)">
       <use xlink:href="#DejaVuSans-32"/>
       <use x="63.623047" xlink:href="#DejaVuSans-35"/>
       <use x="127.246094" xlink:href="#DejaVuSans-30"/>
      </g>
     </g>
    </g>
    <g id="xtick_7">
     <g id="line2d_7">
      <g>
       <use style="stroke:#000000;stroke-width:0.8;" x="341.405155" xlink:href="#m0da14fee92" y="307.584"/>
      </g>
     </g>
     <g id="text_7">
      <!-- 300 -->
      <g transform="translate(331.861405 322.182437)scale(0.1 -0.1)">
       <defs>
        <path d="M 2597 2516 
Q 3050 2419 3304 2112 
Q 3559 1806 3559 1356 
Q 3559 666 3084 287 
Q 2609 -91 1734 -91 
Q 1441 -91 1130 -33 
Q 819 25 488 141 
L 488 750 
Q 750 597 1062 519 
Q 1375 441 1716 441 
Q 2309 441 2620 675 
Q 2931 909 2931 1356 
Q 2931 1769 2642 2001 
Q 2353 2234 1838 2234 
L 1294 2234 
L 1294 2753 
L 1863 2753 
Q 2328 2753 2575 2939 
Q 2822 3125 2822 3475 
Q 2822 3834 2567 4026 
Q 2313 4219 1838 4219 
Q 1578 4219 1281 4162 
Q 984 4106 628 3988 
L 628 4550 
Q 988 4650 1302 4700 
Q 1616 4750 1894 4750 
Q 2613 4750 3031 4423 
Q 3450 4097 3450 3541 
Q 3450 3153 3228 2886 
Q 3006 2619 2597 2516 
z
" id="DejaVuSans-33" transform="scale(0.015625)"/>
       </defs>
       <use xlink:href="#DejaVuSans-33"/>
       <use x="63.623047" xlink:href="#DejaVuSans-30"/>
       <use x="127.246094" xlink:href="#DejaVuSans-30"/>
      </g>
     </g>
    </g>
    <g id="xtick_8">
     <g id="line2d_8">
      <g>
       <use style="stroke:#000000;stroke-width:0.8;" x="386.000559" xlink:href="#m0da14fee92" y="307.584"/>
      </g>
     </g>
     <g id="text_8">
      <!-- 350 -->
      <g transform="translate(376.456809 322.182437)scale(0.1 -0.1)">
       <use xlink:href="#DejaVuSans-33"/>
       <use x="63.623047" xlink:href="#DejaVuSans-35"/>
       <use x="127.246094" xlink:href="#DejaVuSans-30"/>
      </g>
     </g>
    </g>
    <g id="text_9">
     <!-- Time -->
     <g transform="translate(223.926406 335.860562)scale(0.1 -0.1)">
      <defs>
       <path d="M -19 4666 
L 3928 4666 
L 3928 4134 
L 2272 4134 
L 2272 0 
L 1638 0 
L 1638 4134 
L -19 4134 
L -19 4666 
z
" id="DejaVuSans-54" transform="scale(0.015625)"/>
       <path d="M 603 3500 
L 1178 3500 
L 1178 0 
L 603 0 
L 603 3500 
z
M 603 4863 
L 1178 4863 
L 1178 4134 
L 603 4134 
L 603 4863 
z
" id="DejaVuSans-69" transform="scale(0.015625)"/>
       <path d="M 3328 2828 
Q 3544 3216 3844 3400 
Q 4144 3584 4550 3584 
Q 5097 3584 5394 3201 
Q 5691 2819 5691 2113 
L 5691 0 
L 5113 0 
L 5113 2094 
Q 5113 2597 4934 2840 
Q 4756 3084 4391 3084 
Q 3944 3084 3684 2787 
Q 3425 2491 3425 1978 
L 3425 0 
L 2847 0 
L 2847 2094 
Q 2847 2600 2669 2842 
Q 2491 3084 2119 3084 
Q 1678 3084 1418 2786 
Q 1159 2488 1159 1978 
L 1159 0 
L 581 0 
L 581 3500 
L 1159 3500 
L 1159 2956 
Q 1356 3278 1631 3431 
Q 1906 3584 2284 3584 
Q 2666 3584 2933 3390 
Q 3200 3197 3328 2828 
z
" id="DejaVuSans-6d" transform="scale(0.015625)"/>
       <path d="M 3597 1894 
L 3597 1613 
L 953 1613 
Q 991 1019 1311 708 
Q 1631 397 2203 397 
Q 2534 397 2845 478 
Q 3156 559 3463 722 
L 3463 178 
Q 3153 47 2828 -22 
Q 2503 -91 2169 -91 
Q 1331 -91 842 396 
Q 353 884 353 1716 
Q 353 2575 817 3079 
Q 1281 3584 2069 3584 
Q 2775 3584 3186 3129 
Q 3597 2675 3597 1894 
z
M 3022 2063 
Q 3016 2534 2758 2815 
Q 2500 3097 2075 3097 
Q 1594 3097 1305 2825 
Q 1016 2553 972 2059 
L 3022 2063 
z
" id="DejaVuSans-65" transform="scale(0.015625)"/>
      </defs>
      <use xlink:href="#DejaVuSans-54"/>
      <use x="57.958984" xlink:href="#DejaVuSans-69"/>
      <use x="85.742188" xlink:href="#DejaVuSans-6d"/>
      <use x="183.154297" xlink:href="#DejaVuSans-65"/>
     </g>
    </g>
   </g>
   <g id="matplotlib.axis_2">
    <g id="ytick_1">
     <g id="line2d_9">
      <defs>
       <path d="M 0 0 
L -3.5 0 
" id="ma5d3b7e364" style="stroke:#000000;stroke-width:0.8;"/>
      </defs>
      <g>
       <use style="stroke:#000000;stroke-width:0.8;" x="57.6" xlink:href="#ma5d3b7e364" y="307.584"/>
      </g>
     </g>
     <g id="text_10">
      <!-- 0 -->
      <g transform="translate(44.2375 311.383219)scale(0.1 -0.1)">
       <use xlink:href="#DejaVuSans-30"/>
      </g>
     </g>
    </g>
    <g id="ytick_2">
     <g id="line2d_10">
      <g>
       <use style="stroke:#000000;stroke-width:0.8;" x="57.6" xlink:href="#ma5d3b7e364" y="268.015796"/>
      </g>
     </g>
     <g id="text_11">
      <!-- 1 -->
      <g transform="translate(44.2375 271.815015)scale(0.1 -0.1)">
       <use xlink:href="#DejaVuSans-31"/>
      </g>
     </g>
    </g>
    <g id="ytick_3">
     <g id="line2d_11">
      <g>
       <use style="stroke:#000000;stroke-width:0.8;" x="57.6" xlink:href="#ma5d3b7e364" y="228.447592"/>
      </g>
     </g>
     <g id="text_12">
      <!-- 2 -->
      <g transform="translate(44.2375 232.246811)scale(0.1 -0.1)">
       <use xlink:href="#DejaVuSans-32"/>
      </g>
     </g>
    </g>
    <g id="ytick_4">
     <g id="line2d_12">
      <g>
       <use style="stroke:#000000;stroke-width:0.8;" x="57.6" xlink:href="#ma5d3b7e364" y="188.879388"/>
      </g>
     </g>
     <g id="text_13">
      <!-- 3 -->
      <g transform="translate(44.2375 192.678606)scale(0.1 -0.1)">
       <use xlink:href="#DejaVuSans-33"/>
      </g>
     </g>
    </g>
    <g id="ytick_5">
     <g id="line2d_13">
      <g>
       <use style="stroke:#000000;stroke-width:0.8;" x="57.6" xlink:href="#ma5d3b7e364" y="149.311184"/>
      </g>
     </g>
     <g id="text_14">
      <!-- 4 -->
      <g transform="translate(44.2375 153.110402)scale(0.1 -0.1)">
       <defs>
        <path d="M 2419 4116 
L 825 1625 
L 2419 1625 
L 2419 4116 
z
M 2253 4666 
L 3047 4666 
L 3047 1625 
L 3713 1625 
L 3713 1100 
L 3047 1100 
L 3047 0 
L 2419 0 
L 2419 1100 
L 313 1100 
L 313 1709 
L 2253 4666 
z
" id="DejaVuSans-34" transform="scale(0.015625)"/>
       </defs>
       <use xlink:href="#DejaVuSans-34"/>
      </g>
     </g>
    </g>
    <g id="ytick_6">
     <g id="line2d_14">
      <g>
       <use style="stroke:#000000;stroke-width:0.8;" x="57.6" xlink:href="#ma5d3b7e364" y="109.742979"/>
      </g>
     </g>
     <g id="text_15">
      <!-- 5 -->
      <g transform="translate(44.2375 113.542198)scale(0.1 -0.1)">
       <use xlink:href="#DejaVuSans-35"/>
      </g>
     </g>
    </g>
    <g id="ytick_7">
     <g id="line2d_15">
      <g>
       <use style="stroke:#000000;stroke-width:0.8;" x="57.6" xlink:href="#ma5d3b7e364" y="70.174775"/>
      </g>
     </g>
     <g id="text_16">
      <!-- 6 -->
      <g transform="translate(44.2375 73.973994)scale(0.1 -0.1)">
       <defs>
        <path d="M 2113 2584 
Q 1688 2584 1439 2293 
Q 1191 2003 1191 1497 
Q 1191 994 1439 701 
Q 1688 409 2113 409 
Q 2538 409 2786 701 
Q 3034 994 3034 1497 
Q 3034 2003 2786 2293 
Q 2538 2584 2113 2584 
z
M 3366 4563 
L 3366 3988 
Q 3128 4100 2886 4159 
Q 2644 4219 2406 4219 
Q 1781 4219 1451 3797 
Q 1122 3375 1075 2522 
Q 1259 2794 1537 2939 
Q 1816 3084 2150 3084 
Q 2853 3084 3261 2657 
Q 3669 2231 3669 1497 
Q 3669 778 3244 343 
Q 2819 -91 2113 -91 
Q 1303 -91 875 529 
Q 447 1150 447 2328 
Q 447 3434 972 4092 
Q 1497 4750 2381 4750 
Q 2619 4750 2861 4703 
Q 3103 4656 3366 4563 
z
" id="DejaVuSans-36" transform="scale(0.015625)"/>
       </defs>
       <use xlink:href="#DejaVuSans-36"/>
      </g>
     </g>
    </g>
    <g id="text_17">
     <!-- Stock Prices -->
     <g transform="translate(38.157812 204.757688)rotate(-90)scale(0.1 -0.1)">
      <defs>
       <path d="M 3425 4513 
L 3425 3897 
Q 3066 4069 2747 4153 
Q 2428 4238 2131 4238 
Q 1616 4238 1336 4038 
Q 1056 3838 1056 3469 
Q 1056 3159 1242 3001 
Q 1428 2844 1947 2747 
L 2328 2669 
Q 3034 2534 3370 2195 
Q 3706 1856 3706 1288 
Q 3706 609 3251 259 
Q 2797 -91 1919 -91 
Q 1588 -91 1214 -16 
Q 841 59 441 206 
L 441 856 
Q 825 641 1194 531 
Q 1563 422 1919 422 
Q 2459 422 2753 634 
Q 3047 847 3047 1241 
Q 3047 1584 2836 1778 
Q 2625 1972 2144 2069 
L 1759 2144 
Q 1053 2284 737 2584 
Q 422 2884 422 3419 
Q 422 4038 858 4394 
Q 1294 4750 2059 4750 
Q 2388 4750 2728 4690 
Q 3069 4631 3425 4513 
z
" id="DejaVuSans-53" transform="scale(0.015625)"/>
       <path d="M 1172 4494 
L 1172 3500 
L 2356 3500 
L 2356 3053 
L 1172 3053 
L 1172 1153 
Q 1172 725 1289 603 
Q 1406 481 1766 481 
L 2356 481 
L 2356 0 
L 1766 0 
Q 1100 0 847 248 
Q 594 497 594 1153 
L 594 3053 
L 172 3053 
L 172 3500 
L 594 3500 
L 594 4494 
L 1172 4494 
z
" id="DejaVuSans-74" transform="scale(0.015625)"/>
       <path d="M 1959 3097 
Q 1497 3097 1228 2736 
Q 959 2375 959 1747 
Q 959 1119 1226 758 
Q 1494 397 1959 397 
Q 2419 397 2687 759 
Q 2956 1122 2956 1747 
Q 2956 2369 2687 2733 
Q 2419 3097 1959 3097 
z
M 1959 3584 
Q 2709 3584 3137 3096 
Q 3566 2609 3566 1747 
Q 3566 888 3137 398 
Q 2709 -91 1959 -91 
Q 1206 -91 779 398 
Q 353 888 353 1747 
Q 353 2609 779 3096 
Q 1206 3584 1959 3584 
z
" id="DejaVuSans-6f" transform="scale(0.015625)"/>
       <path d="M 3122 3366 
L 3122 2828 
Q 2878 2963 2633 3030 
Q 2388 3097 2138 3097 
Q 1578 3097 1268 2742 
Q 959 2388 959 1747 
Q 959 1106 1268 751 
Q 1578 397 2138 397 
Q 2388 397 2633 464 
Q 2878 531 3122 666 
L 3122 134 
Q 2881 22 2623 -34 
Q 2366 -91 2075 -91 
Q 1284 -91 818 406 
Q 353 903 353 1747 
Q 353 2603 823 3093 
Q 1294 3584 2113 3584 
Q 2378 3584 2631 3529 
Q 2884 3475 3122 3366 
z
" id="DejaVuSans-63" transform="scale(0.015625)"/>
       <path d="M 581 4863 
L 1159 4863 
L 1159 1991 
L 2875 3500 
L 3609 3500 
L 1753 1863 
L 3688 0 
L 2938 0 
L 1159 1709 
L 1159 0 
L 581 0 
L 581 4863 
z
" id="DejaVuSans-6b" transform="scale(0.015625)"/>
       <path id="DejaVuSans-20" transform="scale(0.015625)"/>
       <path d="M 1259 4147 
L 1259 2394 
L 2053 2394 
Q 2494 2394 2734 2622 
Q 2975 2850 2975 3272 
Q 2975 3691 2734 3919 
Q 2494 4147 2053 4147 
L 1259 4147 
z
M 628 4666 
L 2053 4666 
Q 2838 4666 3239 4311 
Q 3641 3956 3641 3272 
Q 3641 2581 3239 2228 
Q 2838 1875 2053 1875 
L 1259 1875 
L 1259 0 
L 628 0 
L 628 4666 
z
" id="DejaVuSans-50" transform="scale(0.015625)"/>
       <path d="M 2631 2963 
Q 2534 3019 2420 3045 
Q 2306 3072 2169 3072 
Q 1681 3072 1420 2755 
Q 1159 2438 1159 1844 
L 1159 0 
L 581 0 
L 581 3500 
L 1159 3500 
L 1159 2956 
Q 1341 3275 1631 3429 
Q 1922 3584 2338 3584 
Q 2397 3584 2469 3576 
Q 2541 3569 2628 3553 
L 2631 2963 
z
" id="DejaVuSans-72" transform="scale(0.015625)"/>
       <path d="M 2834 3397 
L 2834 2853 
Q 2591 2978 2328 3040 
Q 2066 3103 1784 3103 
Q 1356 3103 1142 2972 
Q 928 2841 928 2578 
Q 928 2378 1081 2264 
Q 1234 2150 1697 2047 
L 1894 2003 
Q 2506 1872 2764 1633 
Q 3022 1394 3022 966 
Q 3022 478 2636 193 
Q 2250 -91 1575 -91 
Q 1294 -91 989 -36 
Q 684 19 347 128 
L 347 722 
Q 666 556 975 473 
Q 1284 391 1588 391 
Q 1994 391 2212 530 
Q 2431 669 2431 922 
Q 2431 1156 2273 1281 
Q 2116 1406 1581 1522 
L 1381 1569 
Q 847 1681 609 1914 
Q 372 2147 372 2553 
Q 372 3047 722 3315 
Q 1072 3584 1716 3584 
Q 2034 3584 2315 3537 
Q 2597 3491 2834 3397 
z
" id="DejaVuSans-73" transform="scale(0.015625)"/>
      </defs>
      <use xlink:href="#DejaVuSans-53"/>
      <use x="63.476562" xlink:href="#DejaVuSans-74"/>
      <use x="102.685547" xlink:href="#DejaVuSans-6f"/>
      <use x="163.867188" xlink:href="#DejaVuSans-63"/>
      <use x="218.847656" xlink:href="#DejaVuSans-6b"/>
      <use x="276.757812" xlink:href="#DejaVuSans-20"/>
      <use x="308.544922" xlink:href="#DejaVuSans-50"/>
      <use x="367.097656" xlink:href="#DejaVuSans-72"/>
      <use x="408.210938" xlink:href="#DejaVuSans-69"/>
      <use x="435.994141" xlink:href="#DejaVuSans-63"/>
      <use x="490.974609" xlink:href="#DejaVuSans-65"/>
      <use x="552.498047" xlink:href="#DejaVuSans-73"/>
     </g>
    </g>
   </g>
   <g id="line2d_16">
    <path clip-path="url(#p6640ac9d50)" d="M 73.832727 144.562999 
L 74.724635 142.188907 
L 75.616543 148.124137 
L 76.508452 145.750045 
L 77.40036 153.663686 
L 78.292268 153.268004 
L 79.184176 157.224824 
L 80.076084 152.872322 
L 80.967992 157.620506 
L 81.8599 159.203235 
L 82.751808 159.994599 
L 83.643716 162.764373 
L 84.535624 165.138465 
L 85.427532 167.116875 
L 86.319441 167.512557 
L 87.211349 169.490968 
L 88.103257 168.699604 
L 88.995165 170.678014 
L 89.887073 169.095286 
L 90.778981 173.447788 
L 92.562797 153.268004 
L 93.454705 161.973009 
L 94.346613 164.742783 
L 95.238521 161.181645 
L 96.13043 165.929829 
L 97.022338 166.325511 
L 97.914246 164.742783 
L 98.806154 165.138465 
L 99.698062 161.577327 
L 100.58997 165.929829 
L 101.481878 166.325511 
L 102.373786 165.138465 
L 103.265694 161.973009 
L 104.157602 164.347101 
L 105.04951 165.534147 
L 105.941419 165.534147 
L 106.833327 162.368691 
L 107.725235 160.390281 
L 108.617143 167.512557 
L 109.509051 160.785963 
L 110.400959 152.080958 
L 111.292867 156.43346 
L 112.184775 156.43346 
L 113.076683 156.037778 
L 113.968591 157.224824 
L 114.8605 163.160055 
L 115.752408 163.555737 
L 116.644316 167.116875 
L 117.536224 163.951419 
L 118.428132 165.929829 
L 119.32004 161.973009 
L 120.211948 162.368691 
L 121.103856 165.929829 
L 121.995764 170.282332 
L 122.887672 172.260742 
L 123.77958 173.447788 
L 124.671489 174.239152 
L 125.563397 173.447788 
L 126.455305 173.84347 
L 127.347213 169.095286 
L 128.239121 168.303921 
L 129.131029 167.908239 
L 130.022937 168.897445 
L 130.914845 163.160055 
L 131.806753 163.555737 
L 132.698661 165.138465 
L 133.590569 168.699604 
L 134.482478 163.555737 
L 135.374386 163.160055 
L 136.266294 161.973009 
L 137.158202 153.268004 
L 138.05011 154.45505 
L 138.942018 154.850732 
L 139.833926 160.785963 
L 140.725834 154.45505 
L 141.617742 159.203235 
L 142.50965 157.620506 
L 143.401558 157.620506 
L 144.293467 158.016188 
L 145.185375 158.807553 
L 146.077283 160.390281 
L 146.969191 160.390281 
L 147.861099 161.577327 
L 148.753007 163.555737 
L 149.644915 164.742783 
L 150.536823 161.973009 
L 151.428731 166.325511 
L 153.212547 167.908239 
L 154.104456 169.490968 
L 154.996364 167.908239 
L 155.888272 167.116875 
L 156.78018 175.030516 
L 157.672088 178.195973 
L 158.563996 182.152793 
L 159.455904 180.174383 
L 160.347812 182.152793 
L 161.23972 182.944157 
L 162.131628 179.778701 
L 163.023536 177.404608 
L 163.915445 167.116875 
L 164.807353 164.347101 
L 165.699261 173.052106 
L 167.483077 172.260742 
L 168.374985 162.368691 
L 169.266893 160.785963 
L 170.158801 153.663686 
L 171.050709 150.893912 
L 171.942617 155.642096 
L 172.834525 150.102548 
L 173.726434 155.246414 
L 174.618342 164.347101 
L 175.51025 165.534147 
L 176.402158 169.095286 
L 177.294066 171.86506 
L 178.185974 169.88665 
L 179.077882 169.88665 
L 179.96979 165.929829 
L 180.861698 159.203235 
L 181.753606 161.181645 
L 182.645514 158.41187 
L 183.537423 161.973009 
L 184.429331 166.721193 
L 185.321239 158.41187 
L 186.213147 156.037778 
L 187.105055 174.239152 
L 187.996963 168.303921 
L 188.888871 171.073696 
L 189.780779 170.282332 
L 190.672687 170.678014 
L 191.564595 171.469378 
L 192.456503 166.721193 
L 193.348412 169.88665 
L 194.24032 168.303921 
L 195.132228 163.951419 
L 196.024136 165.929829 
L 196.916044 163.160055 
L 197.807952 163.555737 
L 198.69986 161.181645 
L 199.591768 160.390281 
L 200.483676 161.181645 
L 201.375584 158.41187 
L 202.267493 157.224824 
L 203.159401 151.289594 
L 204.051309 142.584589 
L 204.943217 131.10981 
L 205.835125 129.131399 
L 206.727033 125.37242 
L 207.618941 126.361625 
L 208.510849 131.10981 
L 209.402757 125.965943 
L 210.294665 132.692538 
L 211.186573 136.253676 
L 212.078482 134.275266 
L 212.97039 133.08822 
L 213.862298 133.08822 
L 214.754206 131.505492 
L 215.646114 125.570261 
L 216.538022 113.304118 
L 217.42993 77.297052 
L 218.321838 52.369083 
L 219.213746 80.066826 
L 220.105654 78.484098 
L 220.997562 113.6998 
L 221.889471 119.63503 
L 222.781379 120.030712 
L 223.673287 116.865256 
L 224.565195 105.390477 
L 225.457103 103.016385 
L 226.349011 108.555933 
L 227.240919 86.002057 
L 228.132827 116.469574 
L 229.024735 113.6998 
L 229.916643 114.886846 
L 230.808551 114.491164 
L 231.70046 123.987533 
L 232.592368 144.562999 
L 233.484276 141.793225 
L 234.376184 136.649358 
L 235.268092 130.714128 
L 236.16 123.591851 
L 237.051908 118.052302 
L 237.943816 115.67821 
L 239.727632 111.72139 
L 240.61954 106.181841 
L 241.511449 108.160251 
L 242.403357 105.786159 
L 243.295265 92.33297 
L 245.079081 116.073892 
L 245.970989 118.052302 
L 246.862897 116.469574 
L 247.754805 121.613441 
L 248.646713 129.131399 
L 249.538621 131.10981 
L 250.430529 129.922763 
L 251.322438 104.599113 
L 252.214346 101.829339 
L 253.106254 104.203431 
L 253.998162 103.016385 
L 254.89007 99.455246 
L 255.781978 97.872518 
L 257.565794 67.405001 
L 258.457702 71.361821 
L 259.34961 62.261134 
L 260.241518 72.153185 
L 261.133427 89.958877 
L 262.025335 78.088416 
L 262.917243 72.94455 
L 263.809151 61.46977 
L 264.701059 65.426591 
L 265.592967 76.90137 
L 266.484875 152.080958 
L 267.376783 167.512557 
L 270.052507 190.857798 
L 270.944416 188.088024 
L 271.836324 181.757111 
L 272.728232 187.296659 
L 273.62014 187.692342 
L 274.512048 191.25348 
L 275.403956 189.670752 
L 276.295864 194.023254 
L 277.187772 199.167121 
L 278.07968 193.23189 
L 278.971588 192.044844 
L 279.863497 195.2103 
L 280.755405 193.627572 
L 281.647313 192.440526 
L 282.539221 194.418936 
L 283.431129 199.562803 
L 284.323037 191.25348 
L 285.214945 192.836208 
L 286.106853 187.296659 
L 286.998761 189.670752 
L 287.890669 209.454854 
L 288.782577 219.742587 
L 290.566394 226.0735 
L 291.458302 224.490771 
L 292.35021 223.699407 
L 293.242118 224.490771 
L 295.025934 218.951223 
L 296.80975 227.260546 
L 297.701658 226.469182 
L 298.593566 228.447592 
L 299.485475 231.217366 
L 300.377383 233.195776 
L 301.269291 233.98714 
L 302.161199 230.426002 
L 303.053107 228.843274 
L 303.945015 230.03032 
L 304.836923 232.00873 
L 305.728831 232.00873 
L 306.620739 233.591458 
L 307.512647 236.361233 
L 308.404555 236.756915 
L 309.296464 241.109417 
L 310.188372 240.318053 
L 311.08028 239.131007 
L 311.972188 239.922371 
L 312.864096 241.109417 
L 313.756004 243.483509 
L 314.647912 245.066237 
L 315.53982 245.066237 
L 316.431728 247.836012 
L 317.323636 244.670555 
L 318.215544 239.526689 
L 319.107453 241.505099 
L 319.999361 245.46192 
L 320.891269 245.46192 
L 321.783177 246.253284 
L 322.675085 243.483509 
L 323.566993 245.857602 
L 324.458901 247.836012 
L 325.350809 245.066237 
L 326.242717 245.066237 
L 327.134625 247.44033 
L 328.026533 249.023058 
L 328.918442 248.231694 
L 329.81035 243.879191 
L 330.702258 246.648966 
L 331.594166 247.44033 
L 332.486074 249.023058 
L 333.377982 254.562606 
L 334.26989 255.353971 
L 335.161798 253.37556 
L 336.053706 253.771242 
L 336.945614 255.749653 
L 337.837522 254.562606 
L 338.729431 254.562606 
L 339.621339 252.979878 
L 340.513247 249.023058 
L 341.405155 247.044648 
L 342.297063 244.274873 
L 343.188971 245.46192 
L 344.080879 242.692145 
L 344.972787 244.670555 
L 345.864695 245.46192 
L 347.648511 242.296463 
L 348.54042 240.318053 
L 349.432328 241.505099 
L 350.324236 248.231694 
L 351.216144 249.814422 
L 352.108052 254.958289 
L 352.99996 254.958289 
L 353.891868 255.353971 
L 354.783776 252.188514 
L 355.675684 255.749653 
L 356.567592 255.749653 
L 357.4595 254.166924 
L 358.351409 253.37556 
L 359.243317 255.749653 
L 360.135225 252.188514 
L 361.027133 252.979878 
L 361.919041 253.37556 
L 362.810949 254.958289 
L 363.702857 258.123745 
L 364.594765 257.332381 
L 365.486673 258.123745 
L 366.378581 258.519427 
L 367.27049 256.145335 
L 368.162398 254.958289 
L 369.054306 261.684883 
L 369.946214 259.310791 
L 370.838122 258.915109 
L 371.73003 258.123745 
L 372.621938 258.915109 
L 373.513846 259.310791 
L 374.405754 258.519427 
L 375.297662 260.497837 
L 376.18957 261.289201 
L 377.081479 261.684883 
L 377.973387 262.871929 
L 378.865295 262.871929 
L 379.757203 263.663293 
L 381.541019 262.871929 
L 382.432927 264.058975 
L 383.324835 262.871929 
L 384.216743 261.289201 
L 385.108651 261.684883 
L 386.000559 263.663293 
L 386.892468 262.476247 
L 387.784376 260.893519 
L 388.676284 264.058975 
L 389.568192 264.058975 
L 390.4601 262.476247 
L 391.352008 262.080565 
L 392.243916 264.058975 
L 393.135824 265.641704 
L 394.027732 268.569751 
L 394.91964 268.80716 
L 395.811548 269.91507 
L 396.703457 270.310752 
L 397.595365 268.015796 
L 398.487273 268.411478 
L 398.487273 268.411478 
" style="fill:none;stroke:#ff0000;stroke-linecap:square;stroke-width:1.5;"/>
   </g>
   <g id="line2d_17">
    <path clip-path="url(#p6640ac9d50)" d="M 73.832727 165.512877 
L 74.724635 160.833338 
L 75.616543 153.249067 
L 76.508452 149.714412 
L 77.40036 149.37655 
L 78.292268 153.210086 
L 79.184176 157.714685 
L 80.076084 161.438421 
L 80.967992 163.170098 
L 81.8599 163.412367 
L 82.751808 163.348265 
L 83.643716 163.880227 
L 84.535624 165.81307 
L 85.427532 168.445344 
L 87.211349 172.865407 
L 88.995165 174.770421 
L 89.887073 175.404127 
L 90.778981 174.617169 
L 91.670889 174.559038 
L 92.562797 174.368334 
L 94.346613 161.989176 
L 95.238521 161.637286 
L 96.13043 161.767651 
L 97.022338 163.85869 
L 97.914246 165.59515 
L 98.806154 167.667867 
L 99.698062 168.871507 
L 101.481878 169.550608 
L 102.373786 169.368724 
L 103.265694 169.903366 
L 104.157602 169.790283 
L 105.04951 168.615171 
L 105.941419 168.015824 
L 106.833327 168.926892 
L 107.725235 165.112101 
L 108.617143 163.059487 
L 109.509051 164.675977 
L 110.400959 166.577406 
L 111.292867 163.952565 
L 112.184775 160.486976 
L 113.076683 159.675877 
L 113.968591 160.467382 
L 114.8605 161.606305 
L 115.752408 163.60793 
L 117.536224 168.988797 
L 118.428132 170.706002 
L 119.32004 171.49462 
L 120.211948 171.051204 
L 121.103856 169.432346 
L 121.995764 169.068352 
L 122.887672 171.295624 
L 123.77958 174.555047 
L 124.671489 177.224736 
L 125.563397 178.529439 
L 126.455305 179.000544 
L 127.347213 178.758652 
L 128.239121 177.215896 
L 130.022937 171.573374 
L 130.914845 170.835075 
L 131.806753 170.86483 
L 132.698661 170.17188 
L 133.590569 169.303084 
L 134.482478 169.673021 
L 135.374386 171.05177 
L 136.266294 170.512072 
L 137.158202 169.384497 
L 138.942018 159.621067 
L 139.833926 157.071659 
L 140.725834 158.84592 
L 141.617742 160.070219 
L 144.293467 164.295465 
L 146.077283 164.015772 
L 146.969191 164.520225 
L 150.536823 168.969524 
L 152.320639 170.344462 
L 153.212547 170.888424 
L 154.104456 171.96565 
L 154.996364 173.378823 
L 155.888272 174.268326 
L 156.78018 174.561623 
L 159.455904 183.428833 
L 160.347812 185.114775 
L 161.23972 185.605512 
L 162.131628 185.367346 
L 163.023536 184.483749 
L 163.915445 182.097772 
L 164.807353 178.763642 
L 165.699261 174.693054 
L 166.591169 172.429509 
L 167.483077 173.533688 
L 168.374985 175.062029 
L 169.266893 174.829835 
L 170.158801 170.503317 
L 171.050709 164.716052 
L 171.942617 160.300696 
L 172.834525 157.539519 
L 173.726434 156.438991 
L 174.618342 156.882879 
L 175.51025 161.739095 
L 176.402158 167.663547 
L 177.294066 172.212721 
L 178.185974 175.746696 
L 179.077882 176.916119 
L 179.96979 176.593351 
L 180.861698 173.612196 
L 181.753606 169.535778 
L 182.645514 166.503765 
L 183.537423 164.625978 
L 184.429331 164.124477 
L 185.321239 165.597838 
L 186.213147 165.469888 
L 187.105055 163.100675 
L 187.996963 165.374569 
L 188.888871 169.78467 
L 189.780779 173.371219 
L 190.672687 174.737912 
L 191.564595 174.791458 
L 192.456503 174.561 
L 193.348412 173.480972 
L 194.24032 172.653562 
L 195.132228 171.012469 
L 196.024136 170.327443 
L 196.916044 169.436157 
L 197.807952 168.918987 
L 199.591768 166.821807 
L 200.483676 165.933238 
L 201.375584 166.103631 
L 202.267493 165.73226 
L 203.159401 165.02282 
L 204.051309 162.843717 
L 204.943217 157.045575 
L 205.835125 145.64072 
L 206.727033 136.692936 
L 207.618941 132.122073 
L 208.510849 131.329616 
L 209.402757 132.95653 
L 210.294665 135.116454 
L 211.186573 135.423222 
L 212.078482 138.610958 
L 212.97039 142.483871 
L 213.862298 143.531739 
L 215.646114 139.257683 
L 216.538022 136.184605 
L 217.42993 130.472272 
L 218.321838 110.434514 
L 219.213746 84.552879 
L 220.105654 66.926833 
L 220.997562 71.93714 
L 221.889471 95.235538 
L 222.781379 114.527725 
L 223.673287 126.658849 
L 224.565195 130.848888 
L 225.457103 125.738318 
L 226.349011 114.256239 
L 227.240919 110.567361 
L 228.132827 105.210003 
L 229.024735 104.229511 
L 230.808551 116.129564 
L 231.70046 118.270602 
L 232.592368 121.710277 
L 233.484276 133.225639 
L 234.376184 146.282143 
L 235.268092 148.849682 
L 236.16 143.196179 
L 237.943816 126.450061 
L 238.835724 122.208117 
L 239.727632 119.666766 
L 240.61954 118.049738 
L 241.511449 117.8301 
L 242.403357 116.981549 
L 243.295265 116.418823 
L 245.079081 109.946447 
L 245.970989 111.95228 
L 246.862897 119.289206 
L 247.754805 125.031557 
L 248.646713 127.753396 
L 249.538621 131.323351 
L 250.430529 134.247224 
L 251.322438 134.903458 
L 252.214346 128.47927 
L 253.106254 117.744309 
L 253.998162 110.170972 
L 254.89007 108.4997 
L 255.781978 108.337608 
L 256.673886 104.970422 
L 257.565794 101.063548 
L 260.241518 72.963273 
L 261.133427 73.697524 
L 262.025335 83.666725 
L 262.917243 90.549565 
L 263.809151 88.44164 
L 264.701059 81.364218 
L 265.592967 72.71956 
L 266.484875 75.219761 
L 267.376783 122.582054 
L 268.268691 157.665413 
L 269.160599 176.100076 
L 270.052507 184.864072 
L 270.944416 190.259807 
L 271.836324 192.411816 
L 272.728232 191.836864 
L 273.62014 189.595847 
L 274.512048 188.460989 
L 275.403956 190.687856 
L 276.295864 191.88458 
L 277.187772 192.474267 
L 278.07968 194.776132 
L 278.971588 196.175051 
L 279.863497 194.950365 
L 280.755405 194.550089 
L 282.539221 194.079871 
L 283.431129 194.533495 
L 284.323037 196.255521 
L 285.214945 197.342077 
L 286.106853 196.718918 
L 287.890669 192.600539 
L 288.782577 198.15261 
L 290.566394 217.419825 
L 291.458302 224.57317 
L 292.35021 226.609577 
L 293.242118 225.390967 
L 294.134026 223.681167 
L 295.917842 221.022771 
L 296.80975 220.197314 
L 297.701658 221.549761 
L 298.593566 223.981388 
L 300.377383 229.529474 
L 301.269291 231.937096 
L 302.161199 233.235762 
L 303.053107 232.503242 
L 303.945015 229.787224 
L 304.836923 228.551882 
L 305.728831 228.835094 
L 307.512647 231.877012 
L 310.188372 237.099141 
L 311.08028 239.286617 
L 311.972188 239.66111 
L 312.864096 238.511248 
L 313.756004 238.290691 
L 314.647912 239.273768 
L 315.53982 241.117858 
L 317.323636 244.110234 
L 318.215544 244.599588 
L 319.107453 243.374605 
L 319.999361 240.359366 
L 320.891269 239.459981 
L 321.783177 241.019812 
L 322.675085 243.456033 
L 323.566993 244.692681 
L 324.458901 244.626112 
L 325.350809 244.935512 
L 326.242717 244.86823 
L 327.134625 244.055824 
L 328.026533 243.931817 
L 329.81035 245.987611 
L 330.702258 245.971507 
L 331.594166 245.215228 
L 332.486074 244.907088 
L 333.377982 245.501832 
L 334.26989 247.342757 
L 335.161798 249.808128 
L 336.053706 251.316644 
L 336.945614 251.945887 
L 338.729431 252.584645 
L 339.621339 252.658799 
L 340.513247 252.110748 
L 341.405155 250.344321 
L 344.080879 242.718532 
L 344.972787 241.648749 
L 345.864695 241.418433 
L 347.648511 242.403533 
L 348.54042 242.098487 
L 349.432328 241.000148 
L 350.324236 239.611969 
L 351.216144 240.472298 
L 352.108052 243.438939 
L 353.891868 251.112817 
L 354.783776 253.434503 
L 355.675684 253.79484 
L 356.567592 253.056613 
L 357.4595 252.569777 
L 358.351409 252.253198 
L 359.243317 251.649897 
L 360.135225 251.459278 
L 361.027133 251.152774 
L 361.919041 250.565025 
L 362.810949 250.326265 
L 363.702857 250.676787 
L 364.594765 251.801201 
L 365.486673 253.334537 
L 367.27049 255.336657 
L 368.162398 255.433821 
L 369.054306 254.585812 
L 371.73003 256.203387 
L 372.621938 256.280886 
L 373.513846 256.473717 
L 377.081479 257.916145 
L 377.973387 258.408273 
L 379.757203 259.611888 
L 380.649111 260.143435 
L 381.541019 260.478434 
L 382.432927 260.572291 
L 384.216743 260.296376 
L 386.000559 259.009592 
L 386.892468 259.068341 
L 387.784376 259.495239 
L 389.568192 259.451556 
L 391.352008 260.118176 
L 392.243916 259.229235 
L 393.135824 258.779851 
L 394.027732 259.62685 
L 394.91964 261.545118 
L 395.811548 263.744112 
L 396.703457 265.409597 
L 397.595365 266.505379 
L 398.487273 266.488191 
L 398.487273 266.488191 
" style="fill:none;stroke:#0000ff;stroke-linecap:square;stroke-width:1.5;"/>
   </g>
   <g id="patch_3">
    <path d="M 57.6 307.584 
L 57.6 41.472 
" style="fill:none;stroke:#000000;stroke-linecap:square;stroke-linejoin:miter;stroke-width:0.8;"/>
   </g>
   <g id="patch_4">
    <path d="M 414.72 307.584 
L 414.72 41.472 
" style="fill:none;stroke:#000000;stroke-linecap:square;stroke-linejoin:miter;stroke-width:0.8;"/>
   </g>
   <g id="patch_5">
    <path d="M 57.6 307.584 
L 414.72 307.584 
" style="fill:none;stroke:#000000;stroke-linecap:square;stroke-linejoin:miter;stroke-width:0.8;"/>
   </g>
   <g id="patch_6">
    <path d="M 57.6 41.472 
L 414.72 41.472 
" style="fill:none;stroke:#000000;stroke-linecap:square;stroke-linejoin:miter;stroke-width:0.8;"/>
   </g>
   <g id="text_18">
    <!-- PLX Prices -->
    <g transform="translate(205.419375 35.472)scale(0.12 -0.12)">
     <defs>
      <path d="M 628 4666 
L 1259 4666 
L 1259 531 
L 3531 531 
L 3531 0 
L 628 0 
L 628 4666 
z
" id="DejaVuSans-4c" transform="scale(0.015625)"/>
      <path d="M 403 4666 
L 1081 4666 
L 2241 2931 
L 3406 4666 
L 4084 4666 
L 2584 2425 
L 4184 0 
L 3506 0 
L 2194 1984 
L 872 0 
L 191 0 
L 1856 2491 
L 403 4666 
z
" id="DejaVuSans-58" transform="scale(0.015625)"/>
     </defs>
     <use xlink:href="#DejaVuSans-50"/>
     <use x="60.302734" xlink:href="#DejaVuSans-4c"/>
     <use x="116.015625" xlink:href="#DejaVuSans-58"/>
     <use x="184.521484" xlink:href="#DejaVuSans-20"/>
     <use x="216.308594" xlink:href="#DejaVuSans-50"/>
     <use x="274.861328" xlink:href="#DejaVuSans-72"/>
     <use x="315.974609" xlink:href="#DejaVuSans-69"/>
     <use x="343.757812" xlink:href="#DejaVuSans-63"/>
     <use x="398.738281" xlink:href="#DejaVuSans-65"/>
     <use x="460.261719" xlink:href="#DejaVuSans-73"/>
    </g>
   </g>
   <g id="legend_1">
    <g id="patch_7">
     <path d="M 274.366875 78.82825 
L 407.72 78.82825 
Q 409.72 78.82825 409.72 76.82825 
L 409.72 48.472 
Q 409.72 46.472 407.72 46.472 
L 274.366875 46.472 
Q 272.366875 46.472 272.366875 48.472 
L 272.366875 76.82825 
Q 272.366875 78.82825 274.366875 78.82825 
z
" style="fill:#ffffff;opacity:0.8;stroke:#cccccc;stroke-linejoin:miter;"/>
    </g>
    <g id="line2d_18">
     <path d="M 276.366875 54.570437 
L 296.366875 54.570437 
" style="fill:none;stroke:#ff0000;stroke-linecap:square;stroke-width:1.5;"/>
    </g>
    <g id="line2d_19"/>
    <g id="text_19">
     <!-- Real PLX Prices -->
     <g transform="translate(304.366875 58.070437)scale(0.1 -0.1)">
      <defs>
       <path d="M 2841 2188 
Q 3044 2119 3236 1894 
Q 3428 1669 3622 1275 
L 4263 0 
L 3584 0 
L 2988 1197 
Q 2756 1666 2539 1819 
Q 2322 1972 1947 1972 
L 1259 1972 
L 1259 0 
L 628 0 
L 628 4666 
L 2053 4666 
Q 2853 4666 3247 4331 
Q 3641 3997 3641 3322 
Q 3641 2881 3436 2590 
Q 3231 2300 2841 2188 
z
M 1259 4147 
L 1259 2491 
L 2053 2491 
Q 2509 2491 2742 2702 
Q 2975 2913 2975 3322 
Q 2975 3731 2742 3939 
Q 2509 4147 2053 4147 
L 1259 4147 
z
" id="DejaVuSans-52" transform="scale(0.015625)"/>
       <path d="M 2194 1759 
Q 1497 1759 1228 1600 
Q 959 1441 959 1056 
Q 959 750 1161 570 
Q 1363 391 1709 391 
Q 2188 391 2477 730 
Q 2766 1069 2766 1631 
L 2766 1759 
L 2194 1759 
z
M 3341 1997 
L 3341 0 
L 2766 0 
L 2766 531 
Q 2569 213 2275 61 
Q 1981 -91 1556 -91 
Q 1019 -91 701 211 
Q 384 513 384 1019 
Q 384 1609 779 1909 
Q 1175 2209 1959 2209 
L 2766 2209 
L 2766 2266 
Q 2766 2663 2505 2880 
Q 2244 3097 1772 3097 
Q 1472 3097 1187 3025 
Q 903 2953 641 2809 
L 641 3341 
Q 956 3463 1253 3523 
Q 1550 3584 1831 3584 
Q 2591 3584 2966 3190 
Q 3341 2797 3341 1997 
z
" id="DejaVuSans-61" transform="scale(0.015625)"/>
       <path d="M 603 4863 
L 1178 4863 
L 1178 0 
L 603 0 
L 603 4863 
z
" id="DejaVuSans-6c" transform="scale(0.015625)"/>
      </defs>
      <use xlink:href="#DejaVuSans-52"/>
      <use x="64.982422" xlink:href="#DejaVuSans-65"/>
      <use x="126.505859" xlink:href="#DejaVuSans-61"/>
      <use x="187.785156" xlink:href="#DejaVuSans-6c"/>
      <use x="215.568359" xlink:href="#DejaVuSans-20"/>
      <use x="247.355469" xlink:href="#DejaVuSans-50"/>
      <use x="307.658203" xlink:href="#DejaVuSans-4c"/>
      <use x="363.371094" xlink:href="#DejaVuSans-58"/>
      <use x="431.876953" xlink:href="#DejaVuSans-20"/>
      <use x="463.664062" xlink:href="#DejaVuSans-50"/>
      <use x="522.216797" xlink:href="#DejaVuSans-72"/>
      <use x="563.330078" xlink:href="#DejaVuSans-69"/>
      <use x="591.113281" xlink:href="#DejaVuSans-63"/>
      <use x="646.09375" xlink:href="#DejaVuSans-65"/>
      <use x="707.617188" xlink:href="#DejaVuSans-73"/>
     </g>
    </g>
    <g id="line2d_20">
     <path d="M 276.366875 69.248562 
L 296.366875 69.248562 
" style="fill:none;stroke:#0000ff;stroke-linecap:square;stroke-width:1.5;"/>
    </g>
    <g id="line2d_21"/>
    <g id="text_20">
     <!-- Predicted PLX Prices -->
     <g transform="translate(304.366875 72.748562)scale(0.1 -0.1)">
      <defs>
       <path d="M 2906 2969 
L 2906 4863 
L 3481 4863 
L 3481 0 
L 2906 0 
L 2906 525 
Q 2725 213 2448 61 
Q 2172 -91 1784 -91 
Q 1150 -91 751 415 
Q 353 922 353 1747 
Q 353 2572 751 3078 
Q 1150 3584 1784 3584 
Q 2172 3584 2448 3432 
Q 2725 3281 2906 2969 
z
M 947 1747 
Q 947 1113 1208 752 
Q 1469 391 1925 391 
Q 2381 391 2643 752 
Q 2906 1113 2906 1747 
Q 2906 2381 2643 2742 
Q 2381 3103 1925 3103 
Q 1469 3103 1208 2742 
Q 947 2381 947 1747 
z
" id="DejaVuSans-64" transform="scale(0.015625)"/>
      </defs>
      <use xlink:href="#DejaVuSans-50"/>
      <use x="58.552734" xlink:href="#DejaVuSans-72"/>
      <use x="97.416016" xlink:href="#DejaVuSans-65"/>
      <use x="158.939453" xlink:href="#DejaVuSans-64"/>
      <use x="222.416016" xlink:href="#DejaVuSans-69"/>
      <use x="250.199219" xlink:href="#DejaVuSans-63"/>
      <use x="305.179688" xlink:href="#DejaVuSans-74"/>
      <use x="344.388672" xlink:href="#DejaVuSans-65"/>
      <use x="405.912109" xlink:href="#DejaVuSans-64"/>
      <use x="469.388672" xlink:href="#DejaVuSans-20"/>
      <use x="501.175781" xlink:href="#DejaVuSans-50"/>
      <use x="561.478516" xlink:href="#DejaVuSans-4c"/>
      <use x="617.191406" xlink:href="#DejaVuSans-58"/>
      <use x="685.697266" xlink:href="#DejaVuSans-20"/>
      <use x="717.484375" xlink:href="#DejaVuSans-50"/>
      <use x="776.037109" xlink:href="#DejaVuSans-72"/>
      <use x="817.150391" xlink:href="#DejaVuSans-69"/>
      <use x="844.933594" xlink:href="#DejaVuSans-63"/>
      <use x="899.914062" xlink:href="#DejaVuSans-65"/>
      <use x="961.4375" xlink:href="#DejaVuSans-73"/>
     </g>
    </g>
   </g>
  </g>
 </g>
 <defs>
  <clipPath id="p6640ac9d50">
   <rect height="266.112" width="357.12" x="57.6" y="41.472"/>
  </clipPath>
 </defs>
</svg>
